<?xml version="1.0" encoding="UTF-8"?>
<svg width="18px" height="24px" viewBox="0 0 18 24" version="1.1" xmlns="http://www.w3.org/2000/svg" xmlns:xlink="http://www.w3.org/1999/xlink">
    <!-- Generator: Sketch 46.2 (44496) - http://www.bohemiancoding.com/sketch -->
    <title>g-home</title>
    <desc>Created with Sketch.</desc>
    <defs></defs>
    <g id="icons" stroke="none" stroke-width="1" fill="none" fill-rule="evenodd">
        <g id="Artboard" transform="translate(-373.000000, -100.000000)" fill-rule="nonzero" fill="#FFFFFF">
            <path d="M390.000118,115.984614 L390.023813,116.21693 L389.997476,116.098412 C389.998652,116.060554 389.999534,116.022621 390.000118,115.984614 Z M373.999882,115.984614 L373.976187,116.21693 L374.002524,116.098412 C374.001348,116.060554 374.000466,116.022621 373.999882,115.984614 Z M387.023813,102.71693 L388,102.5 L391,116 C390.931706,120.43805 387.314523,124 382.875947,124 L381.124053,124 C376.685477,124 373.068294,120.43805 373,116 L376,102.5 L376.976187,102.71693 L374.002524,116.098412 C374.121793,119.937154 377.269774,123 381.124053,123 L382.875947,123 C386.730226,123 389.878207,119.937154 389.997476,116.098412 L387.023813,102.71693 Z M373.999882,115.984614 L373.976187,116.21693 L374.002524,116.098412 C374.001348,116.060554 374.000466,116.022621 373.999882,115.984614 Z M390.000118,115.984614 L390.023813,116.21693 L389.997476,116.098412 C389.998652,116.060554 389.999534,116.022621 390.000118,115.984614 Z M376.75448,103.71461 L374.150749,115.431402 C374.380063,115.600991 374.753724,115.813594 375.30895,116.035793 C376.807173,116.635374 378.995374,117 382,117 C385.004626,117 387.192827,116.635374 388.69105,116.035793 C389.246276,115.813594 389.619937,115.600991 389.849251,115.431402 L387.24552,103.71461 C386.220719,104.481335 384.255728,105 382,105 C379.744272,105 377.779281,104.481335 376.75448,103.71461 Z M376,102.5 C376,101.119288 378.686292,100 382,100 C385.313708,100 388,101.119288 388,102.5 L391,116 C390.931706,120.43805 387.314523,124 382.875947,124 L381.124053,124 C376.685477,124 373.068294,120.43805 373,116 L376,102.5 Z M374.927399,119.394189 L374.985348,119.379843 C374.982937,119.370105 375.003351,119.411119 375.07131,119.492868 C375.220299,119.672091 375.469481,119.86402 375.846892,120.052841 C377.017243,120.638372 379.006635,121 382,121 C384.993365,121 386.982757,120.638372 388.153108,120.052841 C388.530519,119.86402 388.779701,119.672091 388.92869,119.492868 C388.996649,119.411119 389.017063,119.370105 389.014652,119.379843 L389.072601,119.394189 C389.56038,118.537024 389.875596,117.568348 389.970658,116.535025 C389.718795,116.677216 389.417734,116.822083 389.062597,116.964207 C387.43734,117.614626 385.12463,118 382,118 C378.87537,118 376.56266,117.614626 374.937403,116.964207 C374.582266,116.822083 374.281205,116.677216 374.029342,116.535025 C374.124404,117.568348 374.43962,118.537024 374.927399,119.394189 Z M376.651412,121.421534 C377.874929,122.409276 379.43138,123 381.124053,123 L382.875947,123 C384.56862,123 386.125071,122.409276 387.348588,121.421534 C386.049794,121.79257 384.291779,122 382,122 C379.708221,122 377.950206,121.79257 376.651412,121.421534 Z M374.150749,115.431402 C374.027636,115.340354 373.946129,115.261704 373.900467,115.200624 L373.099533,115.799376 C373.258038,116.011404 373.557271,116.268514 374.029342,116.535025 C374.016065,116.390706 374.007083,116.245126 374.002524,116.098412 L374.150749,115.431402 Z M389.970658,116.535025 C390.442729,116.268514 390.741962,116.011404 390.900467,115.799376 L390.099533,115.200624 C390.053871,115.261704 389.972364,115.340354 389.849251,115.431402 L389.997476,116.098412 C389.992917,116.245126 389.983935,116.390706 389.970658,116.535025 Z M374.927399,119.394189 L374.014652,119.620157 C374.112563,120.015645 374.521992,120.508158 375.399461,120.947159 C375.756963,121.126019 376.173039,121.284874 376.651412,121.421534 C375.957797,120.861581 375.37118,120.174036 374.927399,119.394189 Z M387.348588,121.421534 C387.826961,121.284874 388.243037,121.126019 388.600539,120.947159 C389.478008,120.508158 389.887437,120.015645 389.985348,119.620157 L389.072601,119.394189 C388.62882,120.174036 388.042203,120.861581 387.348588,121.421534 Z M376.75448,103.71461 L376.976187,102.71693 L376,102.5 C376,102.940825 376.273829,103.355002 376.75448,103.71461 Z M388,102.5 L387.023813,102.71693 L387.24552,103.71461 C387.726171,103.355002 388,102.940825 388,102.5 Z M382,104 C384.813708,104 387,103.089045 387,102.5 C387,101.910955 384.813708,101 382,101 C379.186292,101 377,101.910955 377,102.5 C377,103.089045 379.186292,104 382,104 Z" id="g-home"></path>
        </g>
    </g>
</svg>