<?xml version="1.0" encoding="UTF-8"?>
<svg width="14px" height="24px" viewBox="0 0 14 24" version="1.1" xmlns="http://www.w3.org/2000/svg" xmlns:xlink="http://www.w3.org/1999/xlink">
    <!-- Generator: Sketch 46.2 (44496) - http://www.bohemiancoding.com/sketch -->
    <title>g-pixel</title>
    <desc>Created with Sketch.</desc>
    <defs></defs>
    <g id="icons" stroke="none" stroke-width="1" fill="none" fill-rule="evenodd">
        <g id="Artboard" transform="translate(-324.000000, -100.000000)" fill-rule="nonzero" fill="#FFFFFF">
            <path d="M337,109 L337,102 C337,101.447715 336.552285,101 336,101 L326,101 C325.447715,101 325,101.447715 325,102 L325,109 L337,109 Z M337,110 L325,110 L325,122 C325,122.552285 325.447715,123 326,123 L336,123 C336.552285,123 337,122.552285 337,122 L337,110 Z M326,100 L336,100 C337.104569,100 338,100.895431 338,102 L338,122 C338,123.104569 337.104569,124 336,124 L326,124 C324.895431,124 324,123.104569 324,122 L324,102 C324,100.895431 324.895431,100 326,100 Z M326,103 L326,102 L327,102 L327,103 L326,103 Z M331,108 C329.895431,108 329,107.104569 329,106 C329,104.895431 329.895431,104 331,104 C332.104569,104 333,104.895431 333,106 C333,107.104569 332.104569,108 331,108 Z M331,107 C331.552285,107 332,106.552285 332,106 C332,105.447715 331.552285,105 331,105 C330.447715,105 330,105.447715 330,106 C330,106.552285 330.447715,107 331,107 Z" id="g-pixel"></path>
        </g>
    </g>
</svg>