<?xml version="1.0" encoding="UTF-8"?>
<svg width="20px" height="24px" viewBox="0 0 20 24" version="1.1" xmlns="http://www.w3.org/2000/svg" xmlns:xlink="http://www.w3.org/1999/xlink">
    <!-- Generator: Sketch 46.2 (44496) - http://www.bohemiancoding.com/sketch -->
    <title>homepod</title>
    <desc>Created with Sketch.</desc>
    <defs></defs>
    <g id="icons" stroke="none" stroke-width="1" fill="none" fill-rule="evenodd">
        <g id="Artboard" transform="translate(-423.000000, -100.000000)" fill-rule="nonzero" fill="#FFFFFF">
            <path d="M429.363091,101.134967 C430.184198,101.363167 431.375489,101.5 433,101.5 C434.624511,101.5 435.815802,101.363167 436.636909,101.134967 C435.424541,101.044987 434.212255,101 433,101 C431.787745,101 430.575459,101.044987 429.363091,101.134967 Z M438.348462,101.366348 C438.174923,101.566584 437.844693,101.780632 437.30935,101.971079 C436.37108,102.304866 434.968259,102.5 433,102.5 C431.031741,102.5 429.62892,102.304866 428.69065,101.971079 C428.155307,101.780632 427.825077,101.566585 427.651539,101.366348 C425.528474,101.959019 424.000002,103.905017 424,106.181765 L424,117.818233 C424,120.404348 425.97207,122.563719 428.547576,122.797722 C430.031826,122.932578 431.515936,123 433,123 C434.484065,123 435.968177,122.932578 437.452427,122.797722 C440.02793,122.563716 441.999998,120.404347 442,117.818235 L442,106.181767 C442,103.905017 440.471528,101.959018 438.348462,101.366348 Z M428.457087,100.206381 C429.971391,100.068794 431.485696,100 433,100 C434.514303,100 436.028606,100.068793 437.542909,100.20638 C440.633516,100.487184 443,103.07843 443,106.181767 L443,117.818235 C442.999997,120.921569 440.633516,123.512813 437.542913,123.793619 C436.028609,123.931206 434.514304,124 433,124 C431.485697,124 429.971394,123.931207 428.457091,123.79362 C425.366484,123.512816 423,120.92157 423,117.818233 L423,106.181765 C423.000003,103.078431 425.366484,100.487187 428.457087,100.206381 Z" id="homepod"></path>
        </g>
    </g>
</svg>