<?xml version="1.0" encoding="UTF-8"?>
<svg width="24px" height="22px" viewBox="0 0 24 22" version="1.1" xmlns="http://www.w3.org/2000/svg" xmlns:xlink="http://www.w3.org/1999/xlink">
    <!-- Generator: Sketch 46.2 (44496) - http://www.bohemiancoding.com/sketch -->
    <title>imac</title>
    <desc>Created with Sketch.</desc>
    <defs></defs>
    <g id="icons" stroke="none" stroke-width="1" fill="none" fill-rule="evenodd">
        <g id="Artboard" transform="translate(-217.000000, -102.000000)" fill-rule="nonzero" fill="#FFFFFF">
            <path d="M218,104 L218,117 C218,117.552285 218.447715,118 219,118 L239,118 C239.552285,118 240,117.552285 240,117 L240,104 C240,103.447715 239.552285,103 239,103 L219,103 C218.447715,103 218,103.447715 218,104 Z M231.333333,119 L232,121 L233.447214,121.723607 C233.785998,121.892999 234,122.239262 234,122.618034 L234,123 C234,123.552285 233.552285,124 233,124 L225,124 C224.447715,124 224,123.552285 224,123 L224,122.618034 C224,122.239262 224.214002,121.892999 224.552786,121.723607 L226,121 L226.666667,119 L219,119 C217.895431,119 217,118.104569 217,117 L217,104 C217,102.895431 217.895431,102 219,102 L239,102 C240.104569,102 241,102.895431 241,104 L241,117 C241,118.104569 240.104569,119 239,119 L231.333333,119 Z M218,115.5 L240,115.5 L240,114.5 L218,114.5 L218,115.5 Z M226.817697,121.709185 L225,122.618034 L225,123 L233,123 L233,122.618034 L231.182303,121.709185 L230.279241,119 L227.720759,119 L226.817697,121.709185 Z" id="imac"></path>
        </g>
    </g>
</svg>