<?xml version="1.0" encoding="UTF-8"?>
<svg width="14px" height="24px" viewBox="0 0 14 24" version="1.1" xmlns="http://www.w3.org/2000/svg" xmlns:xlink="http://www.w3.org/1999/xlink">
    <!-- Generator: Sketch 46.2 (44496) - http://www.bohemiancoding.com/sketch -->
    <title>iphone</title>
    <desc>Created with Sketch.</desc>
    <defs></defs>
    <g id="icons" stroke="none" stroke-width="1" fill="none" fill-rule="evenodd">
        <g id="Artboard" transform="translate(-70.000000, -100.000000)" fill-rule="nonzero" fill="#FFFFFF">
            <path d="M83,120 L83,105 L71,105 L71,120 L83,120 Z M83,121 L71,121 L71,122 C71,122.552285 71.4477153,123 72,123 L82,123 C82.5522847,123 83,122.552285 83,122 L83,121 Z M83,104 L83,102 C83,101.447715 82.5522847,101 82,101 L72,101 C71.4477153,101 71,101.447715 71,102 L71,104 L83,104 Z M72,100 L82,100 C83.1045695,100 84,100.895431 84,102 L84,122 C84,123.104569 83.1045695,124 82,124 L72,124 C70.8954305,124 70,123.104569 70,122 L70,102 C70,100.895431 70.8954305,100 72,100 Z M76,103 L76,102 L78,102 L78,103 L76,103 Z M77,123 C76.4477153,123 76,122.552285 76,122 C76,121.447715 76.4477153,121 77,121 C77.5522847,121 78,121.447715 78,122 C78,122.552285 77.5522847,123 77,123 Z" id="iphone"></path>
        </g>
    </g>
</svg>