<?xml version="1.0" encoding="UTF-8"?>
<svg width="24px" height="15px" viewBox="0 0 24 15" version="1.1" xmlns="http://www.w3.org/2000/svg" xmlns:xlink="http://www.w3.org/1999/xlink">
    <!-- Generator: Sketch 46.2 (44496) - http://www.bohemiancoding.com/sketch -->
    <title>macbook</title>
    <desc>Created with Sketch.</desc>
    <defs></defs>
    <g id="icons" stroke="none" stroke-width="1" fill="none" fill-rule="evenodd">
        <g id="Artboard" transform="translate(-166.000000, -105.000000)" fill-rule="nonzero" fill="#FFFFFF">
            <path d="M168,117 L168,107 C168,105.895431 168.895431,105 170,105 L186,105 C187.104569,105 188,105.895431 188,107 L188,117 L190,117 L189.455848,118.632456 C189.18362,119.44914 188.419342,120 187.558482,120 L168.441518,120 C167.580658,120 166.81638,119.44914 166.544152,118.632456 L166,117 L168,117 Z M188.507165,118.316228 L188.612574,118 L167.387426,118 L167.492835,118.316228 C167.628949,118.72457 168.011088,119 168.441518,119 L187.558482,119 C187.988912,119 188.371051,118.72457 188.507165,118.316228 Z M187,117 L187,107 C187,106.447715 186.552285,106 186,106 L170,106 C169.447715,106 169,106.447715 169,107 L169,117 L187,117 Z" id="macbook"></path>
        </g>
    </g>
</svg>