<?xml version="1.0" encoding="UTF-8"?>
<svg width="13px" height="24px" viewBox="0 0 13 24" version="1.1" xmlns="http://www.w3.org/2000/svg" xmlns:xlink="http://www.w3.org/1999/xlink">
    <!-- Generator: Sketch 46.2 (44496) - http://www.bohemiancoding.com/sketch -->
    <title>watches</title>
    <desc>Created with Sketch.</desc>
    <defs></defs>
    <g id="icons" stroke="none" stroke-width="1" fill="none" fill-rule="evenodd">
        <g id="Artboard" transform="translate(-274.000000, -100.000000)" fill-rule="nonzero" fill="#FFFFFF">
            <path d="M276.378429,119 C276.779285,119.521415 277,120.163543 277,120.828427 L277,123 L283,123 L283,120.828427 C283,120.163543 283.220715,119.521415 283.621571,119 L276.378429,119 Z M283.621571,105 C283.220715,104.478585 283,103.836457 283,103.171573 L283,101 L277,101 L277,103.171573 C277,103.836457 276.779285,104.478585 276.378429,105 L283.621571,105 Z M274,112 L274,106.828427 C274,106.297994 274.210714,105.789286 274.585786,105.414214 L275.414214,104.585786 C275.789286,104.210714 276,103.702006 276,103.171573 L276,101 C276,100.447715 276.447715,100 277,100 L280,100 L283,100 C283.552285,100 284,100.447715 284,101 L284,103.171573 C284,103.702006 284.210714,104.210714 284.585786,104.585786 L285.414214,105.414214 C285.789286,105.789286 286,106.297994 286,106.828427 L286,112 L286,117.171573 C286,117.702006 285.789286,118.210714 285.414214,118.585786 L284.585786,119.414214 C284.210714,119.789286 284,120.297994 284,120.828427 L284,123 C284,123.552285 283.552285,124 283,124 L280,124 L277,124 C276.447715,124 276,123.552285 276,123 L276,120.828427 C276,120.297994 275.789286,119.789286 275.414214,119.414214 L274.585786,118.585786 C274.210714,118.210714 274,117.702006 274,117.171573 L274,112 Z M286,108 L287,108 L287,111 L286,111 L286,108 Z M275,107 L275,117 C275,117.552285 275.447715,118 276,118 L284,118 C284.552285,118 285,117.552285 285,117 L285,107 C285,106.447715 284.552285,106 284,106 L276,106 C275.447715,106 275,106.447715 275,107 Z" id="watches"></path>
        </g>
    </g>
</svg>