<?xml version="1.0" encoding="UTF-8" standalone="no"?>
<!-- Generator: Gravit.io -->
<svg xmlns="http://www.w3.org/2000/svg" xmlns:xlink="http://www.w3.org/1999/xlink" style="isolation:isolate" viewBox="0 0 16 16" width="16pt" height="16pt"><defs><clipPath id="_clipPath_PLowTb0xqF4gL83ThYh7AWCluhf7rQAW"><rect width="16" height="16"/></clipPath></defs><g clip-path="url(#_clipPath_PLowTb0xqF4gL83ThYh7AWCluhf7rQAW)"><rect x="0" y="0" width="16" height="16" transform="matrix(1,0,0,1,0,0)" fill="none"/><rect x="0" y="0" width="16" height="16" transform="matrix(1,0,0,1,0,0)" fill="none"/><circle vector-effect="non-scaling-stroke" cx="7.999999999999999" cy="8" r="8" fill="rgb(255,0,0)"/><path d="M 2.16 0 L 13.84 0 C 15.032 0 16 0.968 16 2.16 L 16 13.84 C 16 15.032 15.032 16 13.84 16 L 2.16 16 C 0.968 16 0 15.032 0 13.84 L 0 2.16 C 0 0.968 0.968 0 2.16 0 Z" style="stroke:none;fill:#FF0000;stroke-miterlimit:10;"/><path d=" M 8 6.293 L 4.264 2.557 L 2.557 4.264 L 6.293 8 L 2.557 11.736 L 4.264 13.443 L 8 9.707 L 11.736 13.443 L 13.443 11.736 L 9.707 8 L 13.443 4.264 L 11.736 2.557 L 8 6.293 Z " fill-rule="evenodd" fill="rgb(255,255,255)"/></g></svg>