<?xml version="1.0" standalone="no"?><!-- Generator: Gravit.io --><svg xmlns="http://www.w3.org/2000/svg" xmlns:xlink="http://www.w3.org/1999/xlink" style="isolation:isolate" viewBox="0 0 16 16" width="16" height="16"><defs><clipPath id="_clipPath_bGA3Dk0u9ECmTYuuan8zhw4Z3XBCEt6C"><rect width="16" height="16"/></clipPath></defs><g clip-path="url(#_clipPath_bGA3Dk0u9ECmTYuuan8zhw4Z3XBCEt6C)"><clipPath id="_clipPath_zxrb1jpcK2yajS1BpdGxIlxKnemRDPF8"><rect x="0" y="0" width="16" height="16" transform="matrix(1,0,0,1,0,0)" fill="rgb(255,255,255)"/></clipPath><g clip-path="url(#_clipPath_zxrb1jpcK2yajS1BpdGxIlxKnemRDPF8)"><g><path d=" M 0 8 C 0 3.585 3.585 0 8 0 C 12.415 0 16 3.585 16 8 C 16 12.415 12.415 16 8 16 C 3.585 16 0 12.415 0 8 Z  M 8.886 5.234 C 8.886 3.99 9.896 2.979 11.14 2.979 C 12.384 2.979 13.395 3.99 13.395 5.234 C 13.395 6.307 12.642 7.206 11.637 7.433 C 11.477 7.469 11.311 7.488 11.14 7.488 C 9.896 7.488 8.886 6.478 8.886 5.234 Z " fill-rule="evenodd" fill="rgb(30,144,255)"/></g></g></g></svg>