<?xml version="1.0" standalone="no"?><!-- Generator: Gravit.io --><svg xmlns="http://www.w3.org/2000/svg" xmlns:xlink="http://www.w3.org/1999/xlink" style="isolation:isolate" viewBox="0 0 16 16" width="16" height="16"><defs><clipPath id="_clipPath_Oodz2i51X1Bj7rXv4lZ74GGHD44y8sKd"><rect width="16" height="16"/></clipPath></defs><g clip-path="url(#_clipPath_Oodz2i51X1Bj7rXv4lZ74GGHD44y8sKd)"><g><ellipse vector-effect="non-scaling-stroke" cx="7.999999999999998" cy="7.998961953629547" rx="7.999999999999998" ry="7.9989619536295455" fill="rgb(255,255,255)"/></g><g><path d=" M 8.45 1.143 C 8.15 1.123 7.85 1.123 7.55 1.143 L 6.942 2.68 C 6.71 2.727 6.481 2.788 6.257 2.864 L 4.961 1.836 C 4.692 1.969 4.432 2.12 4.182 2.286 L 4.425 3.922 C 4.247 4.078 4.079 4.246 3.923 4.424 L 2.287 4.181 C 2.12 4.431 1.97 4.691 1.837 4.96 L 2.865 6.256 C 2.789 6.48 2.728 6.709 2.681 6.941 L 1.144 7.549 C 1.124 7.849 1.124 8.149 1.144 8.449 L 2.681 9.057 C 2.728 9.289 2.789 9.518 2.865 9.742 L 1.837 11.038 C 1.97 11.307 2.12 11.567 2.287 11.817 L 3.923 11.574 C 4.079 11.752 4.247 11.92 4.425 12.076 L 4.182 13.712 C 4.432 13.879 4.692 14.029 4.961 14.162 L 6.257 13.134 C 6.481 13.21 6.71 13.271 6.942 13.318 L 7.55 14.855 C 7.85 14.875 8.15 14.875 8.45 14.855 L 9.058 13.318 C 9.29 13.271 9.519 13.21 9.743 13.134 L 11.039 14.162 C 11.308 14.029 11.568 13.879 11.818 13.712 L 11.575 12.076 C 11.753 11.92 11.921 11.752 12.077 11.574 L 13.713 11.817 C 13.88 11.567 14.03 11.307 14.163 11.038 L 13.135 9.742 C 13.211 9.518 13.272 9.289 13.319 9.057 L 14.856 8.449 C 14.876 8.149 14.876 7.849 14.856 7.549 L 13.319 6.941 C 13.272 6.709 13.211 6.48 13.135 6.256 L 14.163 4.96 C 14.03 4.691 13.88 4.431 13.713 4.181 L 12.077 4.424 C 11.921 4.246 11.753 4.078 11.575 3.922 L 11.818 2.286 C 11.568 2.12 11.308 1.969 11.039 1.836 L 9.743 2.864 C 9.519 2.788 9.29 2.727 9.058 2.68 L 8.45 1.143 Z  M 8 4.814 C 9.758 4.814 11.185 6.241 11.185 7.999 C 11.185 9.757 9.758 11.184 8 11.184 C 6.242 11.184 4.815 9.757 4.815 7.999 C 4.815 6.241 6.242 4.814 8 4.814 Z " fill-rule="evenodd" fill="rgb(31,31,31)"/></g></g></svg>