<?xml version="1.0" encoding="UTF-8" standalone="no"?><!-- Generator: Gravit.io --><svg xmlns="http://www.w3.org/2000/svg" xmlns:xlink="http://www.w3.org/1999/xlink" style="isolation:isolate" viewBox="0 0 8 8" width="8pt" height="8pt"><defs><clipPath id="_clipPath_tAU8SCmP15WepzJNEyC6jMyDK4vmPtux"><rect width="8" height="8"/></clipPath></defs><g clip-path="url(#_clipPath_tAU8SCmP15WepzJNEyC6jMyDK4vmPtux)"><path d=" M 4.522 0.009 C 4.512 0.014 4.495 0.025 4.487 0.035 C 4.478 0.045 4.391 0.202 4.294 0.385 C 4.196 0.567 4.107 0.731 4.096 0.749 C 4.063 0.802 4.065 0.801 3.891 0.808 L 3.737 0.815 L 3.704 0.799 C 3.67 0.782 3.667 0.777 3.443 0.455 C 3.318 0.275 3.21 0.12 3.202 0.109 C 3.184 0.085 3.152 0.069 3.12 0.069 C 3.093 0.069 2.386 0.304 2.362 0.321 C 2.325 0.347 2.318 0.377 2.325 0.468 C 2.34 0.654 2.369 1.027 2.375 1.112 L 2.383 1.208 L 2.365 1.244 C 2.347 1.278 2.341 1.284 2.218 1.369 C 2.148 1.418 2.08 1.461 2.068 1.465 C 2.017 1.48 2.011 1.478 1.608 1.311 C 1.195 1.139 1.207 1.144 1.158 1.166 C 1.135 1.177 0.67 1.755 0.661 1.785 C 0.656 1.803 0.656 1.815 0.661 1.833 C 0.666 1.849 0.756 1.973 0.912 2.179 C 1.123 2.458 1.156 2.505 1.163 2.532 C 1.171 2.573 1.171 2.573 1.09 2.767 C 1.018 2.94 1.002 2.965 0.953 2.982 C 0.939 2.987 0.751 3.023 0.534 3.062 C 0.121 3.136 0.12 3.137 0.092 3.174 C 0.06 3.218 -0.021 3.968 0.005 3.984 C 0.009 3.986 0.188 4.052 0.403 4.131 C 0.618 4.21 0.803 4.28 0.814 4.287 C 0.855 4.31 0.865 4.337 0.902 4.545 C 0.921 4.651 0.937 4.75 0.937 4.767 C 0.937 4.787 0.931 4.808 0.923 4.824 C 0.913 4.842 0.818 4.935 0.615 5.124 C 0.453 5.274 0.316 5.406 0.309 5.416 C 0.301 5.43 0.297 5.446 0.298 5.467 C 0.298 5.496 0.313 5.528 0.457 5.808 C 0.545 5.977 0.625 6.124 0.634 6.134 C 0.643 6.144 0.662 6.155 0.676 6.159 C 0.701 6.166 0.731 6.16 1.093 6.078 C 1.502 5.985 1.517 5.984 1.562 6.005 C 1.587 6.017 1.877 6.317 1.895 6.349 C 1.918 6.392 1.917 6.405 1.853 6.654 C 1.707 7.228 1.71 7.215 1.718 7.242 C 1.722 7.256 1.732 7.274 1.739 7.283 C 1.747 7.292 1.89 7.376 2.058 7.471 C 2.335 7.627 2.367 7.643 2.393 7.643 C 2.41 7.643 2.43 7.638 2.44 7.632 C 2.451 7.625 2.584 7.493 2.737 7.337 C 2.89 7.181 3.025 7.048 3.038 7.042 C 3.084 7.018 3.097 7.019 3.325 7.07 C 3.443 7.097 3.547 7.122 3.555 7.128 C 3.598 7.156 3.601 7.162 3.734 7.562 C 3.86 7.94 3.864 7.95 3.887 7.971 C 3.901 7.984 3.922 7.995 3.935 7.997 C 3.992 8.008 4.347 7.985 4.573 7.957 C 4.675 7.943 4.697 7.933 4.715 7.886 C 4.72 7.871 4.762 7.684 4.806 7.472 C 4.86 7.217 4.892 7.077 4.899 7.065 C 4.924 7.026 4.942 7.016 5.132 6.944 C 5.338 6.865 5.364 6.859 5.41 6.884 C 5.421 6.89 5.565 7.003 5.729 7.136 C 5.893 7.269 6.036 7.382 6.046 7.388 C 6.06 7.396 6.074 7.399 6.098 7.397 C 6.13 7.395 6.137 7.39 6.316 7.254 C 6.681 6.978 6.715 6.951 6.727 6.934 C 6.734 6.926 6.741 6.904 6.742 6.887 C 6.745 6.86 6.732 6.824 6.6 6.476 C 6.52 6.265 6.453 6.084 6.452 6.072 C 6.446 6.029 6.46 6.002 6.56 5.864 C 6.614 5.791 6.664 5.724 6.671 5.716 C 6.693 5.692 6.731 5.676 6.766 5.676 C 6.782 5.676 6.969 5.695 7.18 5.718 L 7.562 5.759 L 7.589 5.748 C 7.604 5.741 7.621 5.73 7.627 5.723 C 7.636 5.713 7.854 5.126 7.891 5.015 C 7.904 4.975 7.896 4.94 7.864 4.908 C 7.851 4.894 7.696 4.777 7.519 4.647 C 7.202 4.414 7.198 4.411 7.182 4.376 L 7.167 4.342 L 7.174 4.207 C 7.184 4.031 7.186 4.023 7.209 3.989 C 7.227 3.962 7.242 3.954 7.592 3.778 C 7.792 3.678 7.961 3.591 7.966 3.587 C 7.98 3.575 8 3.534 8 3.517 C 8 3.49 7.838 2.755 7.828 2.735 C 7.822 2.725 7.808 2.71 7.795 2.701 C 7.769 2.684 7.796 2.686 7.162 2.645 C 6.919 2.63 6.914 2.628 6.877 2.593 C 6.851 2.568 6.738 2.356 6.734 2.322 C 6.731 2.305 6.734 2.284 6.739 2.269 C 6.744 2.255 6.84 2.088 6.952 1.898 C 7.149 1.567 7.157 1.551 7.157 1.521 C 7.157 1.504 7.153 1.484 7.149 1.475 C 7.141 1.459 6.617 0.921 6.587 0.898 C 6.578 0.891 6.559 0.885 6.537 0.884 L 6.502 0.881 L 6.149 1.077 C 5.956 1.185 5.785 1.277 5.772 1.282 C 5.729 1.297 5.7 1.288 5.584 1.223 C 5.467 1.157 5.454 1.147 5.436 1.112 C 5.42 1.08 5.42 1.089 5.405 0.642 C 5.393 0.272 5.392 0.259 5.379 0.232 C 5.355 0.185 5.401 0.198 4.764 0.046 C 4.656 0.021 4.562 0 4.554 0 C 4.547 0.001 4.532 0.004 4.522 0.009 Z  M 4.281 1.668 C 4.453 1.69 4.595 1.722 4.744 1.771 C 5.53 2.032 6.133 2.71 6.296 3.519 C 6.332 3.696 6.34 3.781 6.34 3.987 C 6.341 4.181 6.337 4.229 6.312 4.385 C 6.192 5.117 5.715 5.76 5.047 6.091 C 4.794 6.216 4.575 6.282 4.269 6.323 C 4.173 6.337 3.824 6.334 3.719 6.32 C 3.172 6.246 2.696 6.008 2.325 5.624 C 1.794 5.074 1.567 4.317 1.706 3.558 C 1.797 3.059 2.068 2.583 2.453 2.242 C 2.834 1.905 3.298 1.706 3.809 1.659 C 3.904 1.651 4.189 1.656 4.281 1.668 Z " fill="rgb(255,255,255)"/></g></svg>