<?xml version="1.0" encoding="UTF-8" standalone="no"?><!-- Generator: Gravit.io --><svg xmlns="http://www.w3.org/2000/svg" xmlns:xlink="http://www.w3.org/1999/xlink" style="isolation:isolate" viewBox="0 0 8 8" width="8pt" height="8pt"><defs><clipPath id="_clipPath_51KTJFJUACZkNqIZIC8Ug5kdvoOFEIxC"><rect width="8" height="8"/></clipPath></defs><g clip-path="url(#_clipPath_51KTJFJUACZkNqIZIC8Ug5kdvoOFEIxC)"><path d=" M 4.391 1.007 C 4.384 1.01 4.372 1.019 4.365 1.026 C 4.358 1.034 4.293 1.152 4.22 1.289 C 4.147 1.425 4.08 1.548 4.072 1.562 C 4.047 1.601 4.049 1.601 3.918 1.606 L 3.802 1.611 L 3.778 1.599 C 3.753 1.587 3.75 1.583 3.583 1.341 C 3.489 1.207 3.408 1.09 3.402 1.082 C 3.388 1.063 3.364 1.052 3.34 1.052 C 3.32 1.052 2.789 1.228 2.771 1.241 C 2.744 1.26 2.738 1.283 2.744 1.351 C 2.755 1.49 2.777 1.77 2.781 1.834 L 2.787 1.906 L 2.774 1.933 C 2.76 1.959 2.756 1.963 2.664 2.027 C 2.611 2.063 2.56 2.096 2.551 2.099 C 2.513 2.11 2.508 2.108 2.206 1.983 C 1.896 1.854 1.905 1.858 1.869 1.874 C 1.851 1.883 1.503 2.316 1.496 2.339 C 1.492 2.353 1.492 2.361 1.496 2.375 C 1.499 2.387 1.567 2.48 1.684 2.634 C 1.843 2.844 1.867 2.879 1.872 2.899 C 1.879 2.93 1.879 2.93 1.818 3.075 C 1.764 3.205 1.752 3.223 1.715 3.237 C 1.704 3.24 1.563 3.268 1.4 3.297 C 1.091 3.352 1.09 3.353 1.069 3.381 C 1.045 3.414 0.984 3.976 1.004 3.988 C 1.007 3.99 1.141 4.039 1.302 4.099 C 1.464 4.158 1.603 4.21 1.61 4.215 C 1.641 4.233 1.648 4.253 1.677 4.409 C 1.691 4.488 1.703 4.563 1.703 4.576 C 1.703 4.59 1.699 4.606 1.692 4.618 C 1.685 4.632 1.614 4.701 1.461 4.843 C 1.34 4.956 1.237 5.055 1.232 5.062 C 1.226 5.072 1.223 5.084 1.223 5.1 C 1.223 5.122 1.235 5.146 1.343 5.356 C 1.409 5.483 1.468 5.593 1.475 5.601 C 1.482 5.608 1.497 5.616 1.507 5.619 C 1.526 5.624 1.548 5.62 1.82 5.559 C 2.127 5.489 2.137 5.488 2.172 5.504 C 2.19 5.513 2.408 5.738 2.421 5.761 C 2.439 5.794 2.438 5.804 2.39 5.99 C 2.28 6.421 2.282 6.412 2.288 6.432 C 2.291 6.442 2.299 6.456 2.304 6.462 C 2.31 6.469 2.418 6.532 2.544 6.603 C 2.751 6.72 2.775 6.732 2.795 6.732 C 2.807 6.732 2.822 6.729 2.83 6.724 C 2.838 6.719 2.938 6.62 3.053 6.503 C 3.168 6.386 3.269 6.286 3.279 6.282 C 3.313 6.263 3.322 6.264 3.494 6.303 C 3.583 6.322 3.66 6.342 3.667 6.346 C 3.699 6.367 3.701 6.371 3.801 6.672 C 3.895 6.955 3.898 6.962 3.915 6.978 C 3.926 6.988 3.941 6.996 3.952 6.998 C 3.994 7.006 4.26 6.989 4.43 6.967 C 4.507 6.958 4.523 6.95 4.536 6.914 C 4.54 6.903 4.571 6.763 4.605 6.604 C 4.645 6.413 4.669 6.308 4.674 6.298 C 4.693 6.269 4.706 6.262 4.849 6.208 C 5.003 6.149 5.023 6.144 5.057 6.163 C 5.066 6.167 5.174 6.252 5.296 6.352 C 5.42 6.452 5.527 6.536 5.535 6.541 C 5.545 6.547 5.556 6.549 5.574 6.548 C 5.597 6.546 5.603 6.543 5.737 6.441 C 6.01 6.234 6.036 6.213 6.045 6.201 C 6.05 6.194 6.055 6.178 6.056 6.166 C 6.059 6.145 6.049 6.118 5.95 5.857 C 5.89 5.699 5.84 5.563 5.839 5.554 C 5.834 5.521 5.845 5.501 5.92 5.398 C 5.96 5.343 5.998 5.293 6.003 5.287 C 6.02 5.269 6.048 5.257 6.074 5.257 C 6.087 5.257 6.227 5.271 6.385 5.289 L 6.672 5.32 L 6.692 5.311 C 6.703 5.306 6.715 5.298 6.72 5.292 C 6.727 5.285 6.891 4.845 6.918 4.761 C 6.928 4.731 6.922 4.705 6.898 4.681 C 6.888 4.671 6.772 4.583 6.64 4.485 C 6.401 4.31 6.399 4.308 6.387 4.282 L 6.375 4.256 L 6.381 4.155 C 6.388 4.023 6.389 4.017 6.407 3.992 C 6.421 3.972 6.431 3.966 6.694 3.834 C 6.844 3.758 6.97 3.693 6.975 3.69 C 6.985 3.681 7 3.65 7 3.637 C 7 3.618 6.879 3.066 6.871 3.052 C 6.867 3.044 6.856 3.032 6.846 3.026 C 6.827 3.013 6.847 3.015 6.371 2.984 C 6.189 2.972 6.186 2.971 6.158 2.945 C 6.138 2.926 6.054 2.767 6.05 2.741 C 6.048 2.729 6.05 2.713 6.054 2.702 C 6.058 2.692 6.13 2.566 6.214 2.423 C 6.362 2.176 6.368 2.163 6.368 2.141 C 6.368 2.128 6.365 2.113 6.362 2.106 C 6.355 2.094 5.963 1.691 5.941 1.674 C 5.934 1.668 5.919 1.664 5.903 1.663 L 5.876 1.661 L 5.612 1.808 C 5.467 1.889 5.339 1.958 5.329 1.961 C 5.296 1.973 5.275 1.966 5.188 1.917 C 5.1 1.868 5.091 1.861 5.077 1.834 C 5.065 1.81 5.065 1.816 5.054 1.481 C 5.045 1.204 5.044 1.194 5.034 1.174 C 5.017 1.138 5.051 1.149 4.573 1.035 C 4.492 1.016 4.421 1 4.416 1 C 4.41 1 4.399 1.003 4.391 1.007 Z  M 4.211 2.251 C 4.34 2.268 4.447 2.292 4.558 2.329 C 5.148 2.524 5.6 3.033 5.722 3.639 C 5.749 3.772 5.755 3.836 5.755 3.991 C 5.755 4.136 5.753 4.172 5.734 4.289 C 5.644 4.837 5.286 5.32 4.785 5.568 C 4.595 5.662 4.431 5.711 4.201 5.743 C 4.13 5.752 3.868 5.751 3.789 5.74 C 3.379 5.684 3.022 5.506 2.744 5.218 C 2.346 4.806 2.175 4.237 2.279 3.668 C 2.348 3.294 2.551 2.937 2.84 2.681 C 3.126 2.429 3.474 2.279 3.857 2.245 C 3.928 2.238 4.142 2.242 4.211 2.251 Z " fill="rgb(255,255,255)"/></g></svg>