<?xml version="1.0" encoding="UTF-8" standalone="no"?><!-- Generator: Gravit.io --><svg xmlns="http://www.w3.org/2000/svg" xmlns:xlink="http://www.w3.org/1999/xlink" style="isolation:isolate" viewBox="0 0 490 490" width="490pt" height="490pt"><defs><clipPath id="_clipPath_HgCtJf3FJs9jc5o3wf4iiNhU8Vj5qZn8"><rect width="490" height="490"/></clipPath></defs><g clip-path="url(#_clipPath_HgCtJf3FJs9jc5o3wf4iiNhU8Vj5qZn8)"><path d=" M 470 190 L 442.336 190 C 437.861 174.011 431.503 158.721 423.364 144.378 L 442.972 124.771 C 450.756 116.984 450.756 104.315 442.971 96.529 L 393.47 47.029 C 385.685 39.242 373.015 39.244 365.228 47.029 L 345.622 66.635 C 331.279 58.497 315.99 52.139 300 47.664 L 300 20 C 300 8.972 291.028 0 280 0 L 210 0 C 198.972 0 190 8.972 190 20 L 190 47.664 C 174.01 52.139 158.72 58.497 144.377 66.636 L 124.771 47.029 C 116.984 39.243 104.315 39.244 96.529 47.029 L 47.029 96.529 C 39.243 104.315 39.243 116.985 47.029 124.772 L 66.635 144.378 C 58.497 158.72 52.139 174.01 47.664 190 L 20 190 C 8.972 190 0 198.972 0 210 L 0 280 C 0 291.028 8.972 300 20 300 L 47.664 300 C 52.139 315.99 58.497 331.28 66.636 345.623 L 47.029 365.229 C 39.243 373.016 39.243 385.685 47.029 393.471 L 96.529 442.971 C 104.316 450.757 116.985 450.757 124.772 442.971 L 144.378 423.365 C 158.721 431.504 174.011 437.862 190.001 442.337 L 190.001 470 C 190.001 481.028 198.973 490 210.001 490 L 280.001 490 C 291.029 490 300.001 481.028 300.001 470 L 300.001 442.336 C 315.991 437.861 331.28 431.503 345.623 423.364 L 365.23 442.971 C 373.015 450.758 385.685 450.756 393.472 442.971 L 442.972 393.471 C 450.757 385.685 450.757 373.016 442.972 365.229 L 423.365 345.623 C 431.504 331.28 437.862 315.99 442.337 300.001 L 470 300.001 C 481.028 300.001 490 291.029 490 280.001 L 490 210.001 C 490 198.972 481.028 190 470 190 Z  M 470 280 L 434.6 280 C 429.972 280 425.95 283.175 424.873 287.675 C 420.261 306.976 412.667 325.229 402.304 341.926 C 399.854 345.873 400.445 350.986 403.729 354.271 L 428.83 379.328 L 379.372 428.828 L 354.272 403.728 C 350.986 400.442 345.873 399.854 341.927 402.302 C 325.231 412.665 306.978 420.259 287.675 424.873 C 283.175 425.949 280 429.972 280 434.599 L 280 470 L 210 470 L 210 434.6 C 210 429.973 206.825 425.95 202.325 424.874 C 183.023 420.26 164.77 412.666 148.074 402.303 C 146.446 401.292 144.619 400.8 142.804 400.8 C 140.22 400.8 137.659 401.8 135.729 403.729 L 110.672 428.829 L 61.172 379.371 L 86.272 354.271 C 89.557 350.986 90.147 345.873 87.698 341.926 C 77.335 325.23 69.741 306.977 65.127 287.675 C 64.05 283.175 60.027 280 55.4 280 L 20 280 L 20 210 L 55.4 210 C 60.027 210 64.05 206.825 65.126 202.325 C 69.74 183.023 77.334 164.77 87.697 148.074 C 90.146 144.128 89.556 139.014 86.271 135.729 L 61.171 110.672 L 110.629 61.172 L 135.729 86.272 C 139.014 89.557 144.127 90.146 148.074 87.698 C 164.77 77.335 183.023 69.741 202.325 65.127 C 206.825 64.051 210 60.028 210 55.401 L 210 20 L 280 20 L 280 55.4 C 280 60.027 283.175 64.05 287.675 65.126 C 306.978 69.74 325.231 77.334 341.927 87.697 C 345.872 90.146 350.986 89.557 354.272 86.271 L 379.33 61.171 L 428.83 110.629 L 403.729 135.729 C 400.445 139.014 399.854 144.127 402.304 148.074 C 412.667 164.772 420.261 183.025 424.873 202.325 C 425.949 206.825 429.972 210 434.6 210 L 470 210 L 470 280 L 470 280 Z " fill="rgb(255,255,255)"/><path d=" M 245 125 C 178.832 125 125 178.832 125 245 C 125 311.168 178.832 365 245 365 C 311.168 365 365 311.168 365 245 C 365 178.832 311.168 125 245 125 Z  M 245 345 C 189.86 345 145 300.14 145 245 C 145 189.86 189.86 145 245 145 C 300.141 145 345 189.86 345 245 C 345 300.14 300.141 345 245 345 Z " fill="rgb(255,255,255)"/><path d=" M 245 185 C 211.916 185 185 211.916 185 245 C 185 278.084 211.916 305 245 305 C 278.084 305 305 278.084 305 245 C 305 211.916 278.084 185 245 185 Z  M 245 285 C 222.944 285 205 267.056 205 245 C 205 222.944 222.944 205 245 205 C 267.056 205 285 222.944 285 245 C 285 267.056 267.056 285 245 285 Z " fill="rgb(255,255,255)"/></g></svg>