<?xml version="1.0" encoding="UTF-8" standalone="no"?><!-- Generator: Gravit.io --><svg xmlns="http://www.w3.org/2000/svg" xmlns:xlink="http://www.w3.org/1999/xlink" style="isolation:isolate" viewBox="0 0 512 512" width="512pt" height="512pt"><defs><clipPath id="_clipPath_l7AFaFMGFwSYUhCKFDPxiM9Wr3FlM2rj"><rect width="512" height="512"/></clipPath></defs><g clip-path="url(#_clipPath_l7AFaFMGFwSYUhCKFDPxiM9Wr3FlM2rj)"><path d=" M 506.877 250.491 C 454.31 159.064 358.866 101.75 256 101.75 C 153.134 101.75 57.587 159.064 5.123 250.491 C 2.959 253.775 2.959 258.225 5.123 261.509 C 57.69 352.936 153.134 410.25 256 410.25 C 358.866 410.25 454.413 352.936 506.877 261.509 C 509.041 258.225 509.041 253.775 506.877 250.491 L 506.877 250.491 Z  M 256 388.214 C 162.72 388.214 75.831 337.575 27.593 256 C 75.831 174.425 162.72 123.786 256 123.786 C 349.28 123.786 436.169 174.425 484.407 256 C 436.169 337.575 349.28 388.214 256 388.214 Z " fill="rgb(255,255,255)"/><path d=" M 256 156.839 C 202.403 156.839 159.525 200.911 159.525 256 C 159.525 311.089 202.403 355.161 256 355.161 C 309.597 355.161 352.475 311.089 352.475 256 C 352.475 200.911 309.597 156.839 256 156.839 Z  M 256 333.125 C 214.153 333.125 180.964 298.906 180.964 256 C 180.964 213.094 214.256 178.875 256 178.875 C 297.744 178.875 331.036 213.094 331.036 256 C 331.036 298.906 297.847 333.125 256 333.125 Z " fill="rgb(255,255,255)"/><path d=" M 256 211.929 L 256 233.964 C 267.75 233.964 277.439 243.923 277.439 256 C 277.439 268.077 267.75 278.036 256 278.036 C 244.25 278.036 234.561 268.077 234.561 256 L 213.122 256 C 213.122 280.26 232.397 300.071 256 300.071 C 279.603 300.071 298.878 280.26 298.878 256 C 298.878 231.74 279.603 211.929 256 211.929 L 256 211.929 Z " fill="rgb(255,255,255)"/></g></svg>