<?xml version="1.0" encoding="UTF-8" standalone="no"?><!-- Generator: Gravit.io --><svg xmlns="http://www.w3.org/2000/svg" xmlns:xlink="http://www.w3.org/1999/xlink" style="isolation:isolate" viewBox="0 0 2480 3508" width="2480pt" height="3508pt"><defs><clipPath id="_clipPath_tYyn07y0EfO91g3Rt7sucqkxkkJaXX4m"><rect width="2480" height="3508"/></clipPath></defs><g clip-path="url(#_clipPath_tYyn07y0EfO91g3Rt7sucqkxkkJaXX4m)"><path d=" M 203.552 742.39 L 203.552 667.368 L 254.764 667.368 L 254.764 682.101 L 221.688 682.101 L 221.688 697.487 L 251.498 697.487 L 251.498 712.237 L 221.688 712.237 L 221.688 742.39 L 203.552 742.39 L 203.552 742.39 Z  M 259.191 742.39 L 259.191 686.124 L 277.104 686.124 L 277.104 742.39 L 259.191 742.39 L 259.191 742.39 Z  M 268.165 679.574 C 265.655 679.574 263.489 678.731 261.684 677.063 C 259.879 675.396 258.968 673.368 258.968 670.996 C 258.968 668.64 259.879 666.612 261.684 664.961 C 263.489 663.293 265.655 662.469 268.165 662.469 C 270.709 662.469 272.875 663.293 274.663 664.961 C 276.469 666.612 277.363 668.64 277.363 670.996 C 277.363 673.368 276.469 675.396 274.663 677.063 C 272.875 678.731 270.709 679.574 268.165 679.574 Z  M 283.801 742.39 L 283.801 686.124 L 301.198 686.124 L 301.198 696.386 L 301.782 696.386 C 302.815 692.673 304.482 689.905 306.803 688.083 C 309.123 686.261 311.823 685.367 314.899 685.367 C 316.619 685.367 318.286 685.573 319.92 686.021 L 319.92 701.579 C 319.06 701.286 317.943 701.063 316.567 700.89 C 315.192 700.719 313.971 700.633 312.888 700.633 C 309.691 700.633 307.026 701.664 304.912 703.727 C 302.78 705.79 301.714 708.49 301.714 711.841 L 301.714 742.39 L 283.801 742.39 L 283.801 742.39 Z  M 348.897 743.456 C 340.061 743.456 333.098 740.877 328.043 735.72 C 322.972 730.563 320.445 723.497 320.445 714.471 C 320.445 708.661 321.58 703.59 323.884 699.223 C 326.17 694.857 329.419 691.47 333.58 689.046 C 337.757 686.605 342.691 685.402 348.346 685.402 C 353.676 685.402 358.385 686.501 362.495 688.701 C 366.586 690.919 369.801 694.169 372.122 698.432 C 374.443 702.712 375.594 707.939 375.594 714.111 L 375.594 718.581 L 338.1 718.581 L 338.1 719.061 C 338.1 722.5 339.08 725.267 341.075 727.365 C 343.068 729.48 345.785 730.528 349.224 730.528 C 351.578 730.528 353.607 730.03 355.343 729.032 C 357.079 728.052 358.283 726.625 358.97 724.769 L 375.422 725.251 C 374.391 730.768 371.554 735.187 366.913 738.488 C 362.271 741.805 356.271 743.456 348.896 743.456 L 348.897 743.456 Z  M 338.1 708.18 L 358.936 708.18 C 358.902 705.292 357.939 702.937 356.031 701.097 C 354.106 699.24 351.665 698.329 348.708 698.329 C 345.734 698.329 343.257 699.257 341.264 701.149 C 339.269 703.022 338.221 705.378 338.1 708.18 L 338.1 708.18 Z  M 412.118 686.124 L 412.118 699.309 L 401.39 699.309 L 401.39 742.39 L 383.511 742.39 L 383.511 699.309 L 375.93 699.309 L 375.93 686.124 L 383.511 686.124 L 383.511 683.269 C 383.511 676.754 385.299 671.89 388.875 668.675 C 392.468 665.459 397.11 663.861 402.852 663.861 C 405.327 663.861 407.666 664.05 409.882 664.428 C 412.118 664.806 413.751 665.133 414.8 665.425 L 411.945 678.542 C 411.276 678.353 410.484 678.182 409.556 678.009 C 408.628 677.855 407.734 677.768 406.892 677.768 C 404.811 677.768 403.367 678.232 402.577 679.161 C 401.786 680.089 401.39 681.362 401.39 682.978 L 401.39 686.124 L 412.118 686.124 L 412.118 686.124 Z  M 442.383 743.457 C 436.503 743.457 431.432 742.235 427.187 739.811 C 422.94 737.37 419.673 733.984 417.387 729.617 C 415.101 725.267 413.966 720.213 413.966 714.437 C 413.966 708.661 415.101 703.59 417.387 699.223 C 419.673 694.857 422.94 691.47 427.187 689.046 C 431.432 686.605 436.503 685.402 442.383 685.402 C 448.297 685.402 453.368 686.605 457.597 689.046 C 461.843 691.47 465.093 694.857 467.379 699.223 C 469.665 703.59 470.8 708.661 470.8 714.437 C 470.8 720.213 469.665 725.267 467.379 729.617 C 465.093 733.984 461.843 737.37 457.597 739.811 C 453.368 742.235 448.297 743.457 442.383 743.457 Z  M 442.486 729.944 C 445.684 729.944 448.177 728.5 449.929 725.611 C 451.683 722.74 452.561 718.975 452.561 714.334 C 452.561 709.675 451.683 705.893 449.929 702.988 C 448.177 700.1 445.684 698.656 442.486 698.656 C 439.169 698.656 436.624 700.1 434.853 702.988 C 433.083 705.893 432.206 709.675 432.206 714.334 C 432.206 718.975 433.083 722.74 434.853 725.611 C 436.624 728.5 439.169 729.944 442.486 729.944 Z  M 490.597 686.124 L 499.862 704.655 L 509.455 686.124 L 527.506 686.124 L 511.794 714.266 L 528.091 742.39 L 510.194 742.39 L 499.862 723.704 L 489.789 742.39 L 471.617 742.39 L 487.949 714.266 L 472.425 686.124 L 490.597 686.124 L 490.597 686.124 Z  M 544.454 742.39 L 544.454 686.124 L 564.129 686.124 C 568.048 686.124 571.285 686.806 573.824 688.148 C 576.377 689.488 578.273 691.294 579.511 693.562 C 580.761 695.819 581.38 698.32 581.38 701.066 C 581.38 703.491 580.955 705.489 580.103 707.062 C 579.253 708.635 578.131 709.886 576.752 710.801 C 575.372 711.716 573.876 712.387 572.264 712.825 L 572.264 713.38 C 573.979 713.496 575.707 714.089 577.447 715.197 C 579.188 716.293 580.645 717.866 581.818 719.917 C 582.992 721.967 583.585 724.481 583.585 727.446 C 583.585 730.27 582.94 732.797 581.652 735.054 C 580.375 737.31 578.351 739.089 575.578 740.418 C 572.819 741.732 569.222 742.39 564.786 742.39 L 544.454 742.39 L 544.454 742.39 Z  M 551.274 736.344 L 564.786 736.344 C 569.235 736.344 572.406 735.479 574.277 733.751 C 576.159 732.024 577.1 729.922 577.1 727.446 C 577.1 725.538 576.61 723.772 575.643 722.16 C 574.663 720.535 573.283 719.234 571.491 718.254 C 569.699 717.274 567.571 716.784 565.122 716.784 L 551.274 716.784 L 551.274 736.344 L 551.274 736.344 Z  M 551.274 710.853 L 563.91 710.853 C 566.991 710.853 569.582 709.963 571.71 708.184 C 573.837 706.417 574.895 704.045 574.895 701.066 C 574.895 698.604 574.031 696.502 572.316 694.762 C 570.588 693.035 567.867 692.17 564.129 692.17 L 551.274 692.17 L 551.274 710.853 L 551.274 710.853 Z  M 589.34 742.39 L 589.34 700.19 L 595.606 700.19 L 595.606 706.572 L 596.044 706.572 C 596.818 704.484 598.211 702.781 600.222 701.479 C 602.233 700.19 604.503 699.532 607.029 699.532 C 607.506 699.532 608.1 699.545 608.822 699.558 C 609.531 699.584 610.072 699.61 610.447 699.648 L 610.447 706.236 C 610.227 706.186 609.724 706.095 608.937 705.979 C 608.164 705.863 607.351 705.798 606.488 705.798 C 603.407 705.798 600.867 706.726 598.843 708.596 C 596.83 710.465 595.825 712.825 595.825 715.687 L 595.825 742.39 L 589.339 742.39 L 589.34 742.39 Z  M 630.72 743.266 C 626.903 743.266 623.565 742.364 620.702 740.547 C 617.839 738.741 615.609 736.201 613.997 732.939 C 612.399 729.677 611.599 725.873 611.599 721.515 C 611.599 717.119 612.399 713.277 613.997 710.001 C 615.609 706.726 617.839 704.174 620.702 702.369 C 623.565 700.551 626.903 699.648 630.72 699.648 C 634.524 699.648 637.863 700.551 640.725 702.369 C 643.601 704.174 645.832 706.726 647.429 710.001 C 649.041 713.277 649.841 717.119 649.841 721.515 C 649.841 725.873 649.041 729.677 647.429 732.939 C 645.832 736.201 643.601 738.741 640.725 740.547 C 637.862 742.364 634.524 743.266 630.72 743.266 Z  M 630.72 737.439 C 633.609 737.439 635.993 736.704 637.863 735.222 C 639.732 733.738 641.112 731.792 642.002 729.368 C 642.904 726.956 643.355 724.326 643.355 721.516 C 643.355 718.692 642.904 716.062 642.002 713.624 C 641.112 711.188 639.732 709.228 637.863 707.72 C 635.993 706.223 633.609 705.463 630.72 705.463 C 627.819 705.463 625.447 706.223 623.577 707.72 C 621.707 709.228 620.328 711.188 619.425 713.624 C 618.523 716.062 618.084 718.692 618.084 721.516 C 618.084 724.326 618.523 726.956 619.425 729.368 C 620.328 731.792 621.707 733.738 623.577 735.222 C 625.447 736.704 627.819 737.439 630.72 737.439 Z  M 664.737 742.39 L 651.883 700.19 L 658.691 700.19 L 667.807 732.501 L 668.245 732.501 L 677.257 700.19 L 684.181 700.19 L 693.091 732.385 L 693.529 732.385 L 702.645 700.19 L 709.452 700.19 L 696.597 742.39 L 690.228 742.39 L 680.997 709.976 L 680.339 709.976 L 671.107 742.39 L 664.737 742.39 L 664.737 742.39 Z  M 743.353 709.641 L 737.538 711.291 C 736.97 709.822 736.016 708.454 734.676 707.165 C 733.335 705.889 731.246 705.244 728.41 705.244 C 725.83 705.244 723.678 705.837 721.976 707.023 C 720.261 708.197 719.397 709.692 719.397 711.51 C 719.397 713.122 719.991 714.398 721.163 715.326 C 722.337 716.267 724.168 717.042 726.656 717.661 L 732.922 719.208 C 740.388 721.038 744.127 724.842 744.127 730.631 C 744.127 733.055 743.43 735.209 742.051 737.117 C 740.671 739.024 738.737 740.521 736.275 741.617 C 733.8 742.725 730.924 743.266 727.649 743.266 C 723.342 743.266 719.784 742.338 716.96 740.469 C 714.137 738.599 712.357 735.866 711.596 732.281 L 717.76 730.747 C 718.908 735.285 722.169 737.555 727.533 737.555 C 730.563 737.555 732.961 736.91 734.741 735.621 C 736.532 734.331 737.423 732.771 737.423 730.967 C 737.423 727.975 735.334 726.002 731.155 725.023 L 724.129 723.385 C 720.261 722.47 717.424 721.038 715.619 719.104 C 713.827 717.171 712.925 714.759 712.925 711.846 C 712.925 709.46 713.595 707.358 714.936 705.528 C 716.29 703.697 718.121 702.253 720.455 701.208 C 722.801 700.164 725.444 699.648 728.41 699.648 C 732.587 699.648 735.874 700.564 738.26 702.395 C 740.658 704.225 742.347 706.637 743.353 709.641 L 743.353 709.641 Z  M 767.029 743.266 C 762.968 743.266 759.462 742.364 756.521 740.56 C 753.582 738.754 751.326 736.227 749.74 732.978 C 748.154 729.729 747.367 725.938 747.367 721.618 C 747.367 717.3 748.154 713.483 749.74 710.182 C 751.326 706.868 753.543 704.29 756.392 702.434 C 759.242 700.576 762.569 699.648 766.373 699.648 C 768.577 699.648 770.743 700.009 772.883 700.744 C 775.024 701.48 776.983 702.665 778.737 704.303 C 780.491 705.94 781.896 708.106 782.94 710.801 C 783.984 713.496 784.513 716.809 784.513 720.742 L 784.513 723.488 L 753.878 723.488 C 754.02 728.001 755.296 731.444 757.708 733.841 C 760.119 736.24 763.226 737.44 767.029 737.44 C 769.582 737.44 771.774 736.897 773.606 735.802 C 775.436 734.693 776.764 733.055 777.589 730.851 L 783.842 732.604 C 782.863 735.802 780.877 738.368 777.912 740.327 C 774.946 742.287 771.323 743.266 767.029 743.266 L 767.029 743.266 Z  M 753.878 717.879 L 777.912 717.879 C 777.912 714.308 776.868 711.356 774.779 708.996 C 772.689 706.65 769.892 705.463 766.373 705.463 C 763.896 705.463 761.756 706.044 759.952 707.204 C 758.133 708.351 756.702 709.873 755.658 711.768 C 754.614 713.663 754.02 715.701 753.878 717.879 L 753.878 717.879 Z  M 789.83 742.39 L 789.83 700.19 L 796.096 700.19 L 796.096 706.572 L 796.534 706.572 C 797.309 704.484 798.701 702.781 800.712 701.48 C 802.723 700.19 804.993 699.532 807.519 699.532 C 807.996 699.532 808.59 699.545 809.312 699.558 C 810.022 699.584 810.563 699.61 810.937 699.648 L 810.937 706.236 C 810.717 706.186 810.214 706.095 809.428 705.979 C 808.654 705.863 807.842 705.798 806.978 705.798 C 803.897 705.798 801.357 706.726 799.333 708.596 C 797.32 710.465 796.315 712.825 796.315 715.688 L 796.315 742.39 L 789.83 742.39 L 789.83 742.39 Z " fill="rgb(30,144,255)"/></g></svg>