<?xml version="1.0" standalone="no"?><!-- Generator: Gravit.io --><svg xmlns="http://www.w3.org/2000/svg" xmlns:xlink="http://www.w3.org/1999/xlink" style="isolation:isolate" viewBox="0 0 16 16" width="16" height="16"><defs><clipPath id="_clipPath_7QABTloHmgRaJFaETFh8uCMZkoqazbCM"><rect width="16" height="16"/></clipPath></defs><g clip-path="url(#_clipPath_7QABTloHmgRaJFaETFh8uCMZkoqazbCM)"><g><clipPath id="_clipPath_hFy0yjhSnJxKZI1xZ4m7taaBswzUWlC0"><rect x="0" y="2" width="16" height="12" transform="matrix(1,0,0,1,0,0)" fill="rgb(255,255,255)"/></clipPath><g clip-path="url(#_clipPath_hFy0yjhSnJxKZI1xZ4m7taaBswzUWlC0)"><g><g><path d=" M 0 13.769 L 0 14 L 0.276 14 L 15.724 14 L 16 14 L 16 13.769 L 15.724 13.769 L 0.276 13.769 L 0 13.769 Z " fill="rgb(46,49,50)" fill-opacity="0.294118"/><path d=" M 0.276 2 L 0.276 3.154 L 0.276 8.231 C 0.276 8.359 0.399 8.461 0.552 8.461 L 15.448 8.461 C 15.601 8.461 15.724 8.359 15.724 8.231 L 15.724 3.157 C 15.724 3.156 15.724 3.155 15.724 3.154 L 15.724 3.154 L 15.724 2.923 L 8 2.923 L 6.897 2 L 0.276 2 L 0.276 2 Z " fill="rgb(169,118,6)"/><path d=" M 6.345 3.678 L 5.241 4.661 L 0 4.661 L 0 4.906 L 0.001 4.906 C 0.001 4.908 0 4.909 0 4.909 L 0 13.754 L 0 14 L 0.276 14 L 15.724 14 L 16 14 L 16 13.754 L 16 4.909 L 16 4.906 L 16 3.678 L 6.345 3.678 Z " fill="rgb(255,153,0)"/></g></g></g></g><path d=" M 8.142 3.91 L 9.629 6.962 L 12.991 7.433 L 10.548 9.79 L 11.139 13.133 L 8.142 11.538 L 5.146 13.133 L 5.736 9.79 L 3.294 7.433 L 6.655 6.962 L 8.142 3.91 Z " fill-rule="evenodd" fill="rgb(255,255,255)"/></g></svg>