<?xml version="1.0" encoding="UTF-8" standalone="no"?><!-- Generator: Gravit.io --><svg xmlns="http://www.w3.org/2000/svg" xmlns:xlink="http://www.w3.org/1999/xlink" style="isolation:isolate" viewBox="0 0 128 120" width="128pt" height="120pt"><defs><clipPath id="_clipPath_u7WY5AZ79l0EEQ7zOyvQJYysEw5IP62y"><rect width="128" height="120"/></clipPath></defs><g clip-path="url(#_clipPath_u7WY5AZ79l0EEQ7zOyvQJYysEw5IP62y)"><g><path d=" M 3.514 110 C 1.986 109.935 1.105 109.114 1.041 107.335 L 1 23.457 C 1.235 21.101 2.305 20.811 3.508 20.85 C 7.055 20.785 8.853 20.991 8.856 17.495 L 8.863 12.631 C 8.866 10.289 10.056 10 11.366 10 L 51.513 10.012 C 53.471 10.052 53.398 11.648 53.537 12.685 L 53.561 16.527 C 53.603 21.287 53.712 20.782 57.896 20.86 L 124.45 20.888 C 126.229 20.876 126.925 21.865 126.907 23.522 L 127 107.169 C 126.915 108.542 126.563 109.757 124.425 109.92 L 3.514 110 Z " fill="rgb(255,253,220)"/><defs><filter id="TS4JLARm8EI6dYjGNgf8uuPzIpGmX0pk" x="-200%" y="-200%" width="400%" height="400%" filterUnits="objectBoundingBox" color-interpolation-filters="sRGB"><feGaussianBlur xmlns="http://www.w3.org/2000/svg" in="SourceGraphic" stdDeviation="0.3"/><feOffset xmlns="http://www.w3.org/2000/svg" dx="-8.60423e-16" dy="0.4" result="pf_100_offsetBlur"/><feFlood xmlns="http://www.w3.org/2000/svg" flood-color="#000000" flood-opacity="1"/><feComposite xmlns="http://www.w3.org/2000/svg" in2="pf_100_offsetBlur" operator="in" result="pf_100_dropShadow"/><feBlend xmlns="http://www.w3.org/2000/svg" in="SourceGraphic" in2="pf_100_dropShadow" mode="normal"/></filter></defs><g filter="url(#TS4JLARm8EI6dYjGNgf8uuPzIpGmX0pk)"><path d=" M 3.514 110 C 1.986 109.936 1.105 109.114 1.041 107.334 L 1 23.427 C 1.235 21.07 2.305 20.78 3.508 20.819 C 7.055 20.754 8.853 20.96 8.856 17.463 L 8.863 12.632 C 8.833 10.289 10.058 10.074 11.366 10 L 51.513 10.012 C 53.471 10.052 53.398 11.649 53.537 12.686 L 53.561 16.495 C 53.603 21.256 53.712 20.751 57.896 20.83 L 124.45 20.858 C 126.229 20.846 126.925 21.835 126.907 23.493 L 127 107.169 C 126.915 108.542 126.563 109.757 124.425 109.921 L 3.514 110 Z " fill="rgb(244,230,49)"/></g><path d=" M 42.829 33.941 C 39.961 33.941 37.653 36.106 37.653 38.796 L 37.653 93.822 C 37.653 96.512 39.961 98.677 42.829 98.677 L 87.687 98.677 C 90.554 98.677 92.863 96.512 92.863 93.822 L 92.863 50.125 L 75.61 33.941 L 42.829 33.941 Z " fill="rgb(78,67,22)"/><path d=" M 42.829 36.773 C 39.961 36.773 37.653 38.844 37.653 41.416 L 37.653 94.034 C 37.653 96.606 39.961 98.677 42.829 98.677 L 87.687 98.677 C 90.554 98.677 92.863 96.606 92.863 94.034 L 92.863 52.249 L 75.61 36.773 L 42.829 36.773 Z " fill="rgb(162,129,0)"/></g></g></svg>