<?xml version="1.0" standalone="no"?><!-- Generator: Gravit.io --><svg xmlns="http://www.w3.org/2000/svg" xmlns:xlink="http://www.w3.org/1999/xlink" style="isolation:isolate" viewBox="0 0 16 16" width="16" height="16"><defs><clipPath id="_clipPath_lj3Dgc2eOwDeZ8Xl8KRLkwbYf5ZcNpPC"><rect width="16" height="16"/></clipPath></defs><g clip-path="url(#_clipPath_lj3Dgc2eOwDeZ8Xl8KRLkwbYf5ZcNpPC)"><clipPath id="_clipPath_Djekcqk4cvzBKICYJqUyfoNWSfof9ChL"><rect x="0" y="2" width="16" height="12" transform="matrix(1,0,0,1,0,0)" fill="rgb(255,255,255)"/></clipPath><g clip-path="url(#_clipPath_Djekcqk4cvzBKICYJqUyfoNWSfof9ChL)"><g id="Group"><path d=" M 0 13.769 L 0 14 L 0.276 14 L 15.724 14 L 16 14 L 16 13.769 L 15.724 13.769 L 0.276 13.769 L 0 13.769 Z " fill="rgb(46,49,50)" fill-opacity="0.294118"/><path d=" M 0.276 2 L 0.276 3.154 L 0.276 8.231 C 0.276 8.359 0.399 8.461 0.552 8.461 L 15.448 8.461 C 15.601 8.461 15.724 8.359 15.724 8.231 L 15.724 3.157 C 15.724 3.156 15.724 3.155 15.724 3.154 L 15.724 3.154 L 15.724 2.923 L 8 2.923 L 6.897 2 L 0.276 2 L 0.276 2 Z " fill="rgb(169,118,6)"/><linearGradient id="_lgradient_0" x1="0%" y1="50%" x2="6.123233995736766e-15%" y2="-50%"><stop offset="0.000031307959040235936%" stop-opacity="1" style="stop-color:rgb(242,203,64)"/><stop offset="100%" stop-opacity="1" style="stop-color:rgb(245,215,110)"/></linearGradient><path d=" M 6.345 4.308 L 5.241 5.231 L 0 5.231 L 0 5.461 L 0.001 5.461 C 0.001 5.463 0 5.464 0 5.464 L 0 13.769 L 0 14 L 0.276 14 L 15.724 14 L 16 14 L 16 13.769 L 16 5.464 L 16 5.461 L 16 4.308 L 6.345 4.308 Z " fill="url(#_lgradient_0)"/><path d=" M 0 5.231 L 0 5.461 L 5.517 5.461 L 6.345 4.308 L 5.241 5.231 L 0 5.231 Z " fill-rule="evenodd" fill="rgb(255,255,255)" fill-opacity="0.235294"/><path d=" M 0.276 5 L 0.276 5.231 L 5.241 5.231 L 6.345 4.308 L 4.69 5 L 0.276 5 Z " fill-rule="evenodd" fill="rgb(0,0,0)" fill-opacity="0.235294"/><path d=" M 0 13.769 L 0 14 L 0.276 14 L 15.724 14 L 16 14 L 16 13.769 L 15.724 13.769 L 0.276 13.769 L 0 13.769 Z " fill="rgb(0,0,0)" fill-opacity="0.235294"/><path d=" M 6.897 2 L 7.724 3.154 L 8.276 3.154 L 15.724 3.154 L 15.724 2.923 L 8.276 2.923 L 8 2.923 L 6.897 2 Z " fill-rule="evenodd" fill="rgb(255,255,255)" fill-opacity="0.235294"/></g></g></g></svg>