<?xml version="1.0" standalone="no"?><!-- Generator: Gravit.io --><svg xmlns="http://www.w3.org/2000/svg" xmlns:xlink="http://www.w3.org/1999/xlink" style="isolation:isolate" viewBox="0 0 128 128" width="128" height="128"><defs><clipPath id="_clipPath_sw6rtS0cxQURxOIZpsdSgynq204UsKMd"><rect width="128" height="128"/></clipPath></defs><g clip-path="url(#_clipPath_sw6rtS0cxQURxOIZpsdSgynq204UsKMd)"><clipPath id="_clipPath_ty3ODZmBRqBoDKHRgYVFk6n0YkEx4IIS"><rect x="6.293" y="17.388" width="116.497" height="95.595" transform="matrix(1,0,0,1,0,0)" fill="rgb(255,255,255)"/></clipPath><g clip-path="url(#_clipPath_ty3ODZmBRqBoDKHRgYVFk6n0YkEx4IIS)"><g><rect x="6.293" y="17.584" width="116.497" height="95.595" transform="matrix(1,0,0,1,0,0)" fill="none"/><rect x="6.293" y="17.584" width="116.497" height="95.595" transform="matrix(1,0,0,1,0,0)" fill="none"/><path d=" M 120.161 18.529 L 73.752 18.529 C 72.245 18.529 70.927 18.529 69.427 20.826 L 66.98 24.264 L 12.117 24.264 C 8.921 24.264 6.293 27.325 6.293 30.578 L 6.293 105.735 C 6.293 108.98 8.921 112.234 12.117 112.234 L 116.965 112.234 C 120.161 112.234 122.79 108.98 122.79 105.735 L 122.79 47.6 L 122.79 30.771 L 122.79 20.826 C 122.79 19.485 121.661 18.529 120.161 18.529 Z " fill="rgb(255,0,0)"/><path d=" M 120.351 94.845 C 121.851 93.696 122.79 91.977 122.79 90.065 L 122.79 46.655 L 122.79 29.826 L 122.79 19.881 C 122.79 18.54 121.661 17.584 120.161 17.584 L 73.752 17.584 C 72.245 17.584 70.927 17.584 69.427 19.881 L 66.98 23.32 L 12.117 23.32 C 9.11 23.32 6.671 25.81 6.293 28.677 L 120.351 94.845 L 120.351 94.845 L 120.351 94.845 Z " fill="rgb(255,153,0)"/><path d=" M 10.239 30.967 L 120.351 94.46 C 121.851 93.311 122.79 91.977 122.79 90.065 L 122.79 46.655 L 122.79 35.94 L 115.647 30.967 L 10.239 30.967 L 10.239 30.967 L 10.239 30.967 Z " fill="rgb(152,0,0)"/><path d=" M 122.79 107.094 C 122.79 110.558 120.161 113.201 116.965 113.201 L 12.117 113.201 C 8.921 113.201 6.293 110.558 6.293 107.094 L 8.171 42.553 C 8.171 39.097 10.8 35.839 13.996 35.839 L 115.276 35.839 C 118.465 35.839 121.101 39.097 121.101 42.553 L 122.79 107.094 L 122.79 107.094 L 122.79 107.094 Z " fill="rgb(255,153,0)"/><path d=" M 103.428 64.837 C 102.777 63.163 101.457 61.81 99.496 61.488 L 80.75 58.802 L 72.516 41.738 C 71.866 40.064 70.23 39.071 68.25 39.071 C 66.28 39.071 64.635 40.064 63.984 41.738 L 55.75 58.802 L 37.005 61.488 C 35.369 61.81 33.724 63.163 33.073 64.837 C 32.404 66.511 33.073 68.507 34.384 69.85 L 47.86 83.235 L 44.579 101.973 C 44.245 103.647 44.904 105.652 46.549 106.655 C 47.86 107.667 49.839 108.007 51.484 106.995 L 68.25 97.953 L 85.016 106.995 C 85.685 107.326 86.327 107.667 87.321 107.667 C 88.306 107.667 89.301 107.326 90.277 106.655 C 91.596 105.652 92.591 103.647 92.256 101.973 L 88.966 83.235 L 102.451 69.85 C 103.428 68.507 103.762 66.511 103.428 64.837 Z " fill="rgb(255,0,0)"/><path d=" M 103.428 63.61 C 102.777 61.936 101.457 60.602 99.496 60.262 L 80.75 57.594 L 72.516 40.53 C 71.866 38.847 70.23 37.844 68.25 37.844 C 66.28 37.844 64.635 38.847 63.984 40.53 L 55.75 57.594 L 37.005 60.262 C 35.369 60.602 33.724 61.936 33.073 63.61 C 32.404 65.284 33.073 67.29 34.384 68.633 L 47.86 82.026 L 44.579 100.764 C 44.245 102.439 44.904 104.444 46.549 105.447 C 47.86 106.44 49.839 106.78 51.484 105.787 L 68.25 96.744 L 85.016 105.787 C 85.685 106.118 86.327 106.44 87.321 106.44 C 88.306 106.44 89.301 106.118 90.277 105.447 C 91.596 104.444 92.591 102.439 92.256 100.764 L 88.966 82.026 L 102.451 68.633 C 103.428 67.29 103.762 65.284 103.428 63.61 Z " fill="rgb(255,255,255)"/></g></g></g></svg>