<?xml version="1.0" encoding="UTF-8" standalone="no"?><!-- Generator: Gravit.io --><svg xmlns="http://www.w3.org/2000/svg" xmlns:xlink="http://www.w3.org/1999/xlink" style="isolation:isolate" viewBox="0 0 16 14" width="16pt" height="14pt"><defs><clipPath id="_clipPath_QdaCvRGsCl4dzdE6CrN0hZzVTxaErSps"><rect width="16" height="14"/></clipPath></defs><g clip-path="url(#_clipPath_QdaCvRGsCl4dzdE6CrN0hZzVTxaErSps)"><g><g><path d=" M 0 11.769 L 0 12 L 0.276 12 L 15.724 12 L 16 12 L 16 11.769 L 15.724 11.769 L 0.276 11.769 L 0 11.769 Z " fill="rgb(46,49,50)" fill-opacity="0.294118"/><path d=" M 0.276 1 L 0.276 2.154 L 0.276 6.231 C 0.276 6.359 0.399 6.461 0.552 6.461 L 15.448 6.461 C 15.601 6.461 15.724 6.359 15.724 6.231 L 15.724 2.157 C 15.724 2.156 15.724 2.155 15.724 2.154 L 15.724 2.154 L 15.724 1.923 L 7 1.923 L 5.897 1 L 0.276 1 L 0.276 1 Z " fill="rgb(169,118,6)"/><linearGradient id="_lgradient_3" x1="0" y1="0.5" x2="6.123233995736766e-17" y2="-0.5" gradientTransform="matrix(16,0,0,10.692,0,2.308)" gradientUnits="userSpaceOnUse"><stop offset="50.00003130795903%" stop-opacity="1" style="stop-color:rgb(242,203,64)"/><stop offset="100%" stop-opacity="1" style="stop-color:rgb(245,215,110)"/></linearGradient><path d=" M 6.345 2.308 L 5.241 3.231 L 0 3.231 L 0 3.461 L 0.001 3.461 C 0.001 3.463 0 3.464 0 3.464 L 0 12.769 L 0 13 L 0.276 13 L 15.724 13 L 16 13 L 16 12.769 L 16 3.464 L 16 3.461 L 16 2.308 L 6.345 2.308 Z " fill="url(#_lgradient_3)"/></g></g></g></svg>