<?xml version="1.0" encoding="UTF-8" standalone="no"?><!-- Generator: Gravit.io --><svg xmlns="http://www.w3.org/2000/svg" xmlns:xlink="http://www.w3.org/1999/xlink" style="isolation:isolate" viewBox="0 0 16 12.7" width="16pt" height="12.7pt"><defs><clipPath id="_clipPath_rvrAW9OPb0qG3EXYXjQTDQ04DwMXMIDq"><rect width="16" height="12.7"/></clipPath></defs><g clip-path="url(#_clipPath_rvrAW9OPb0qG3EXYXjQTDQ04DwMXMIDq)"><clipPath id="_clipPath_0MQuLGHSRPnZCJymHTEsKgct6tM9lleI"><rect x="0.013" y="1.075" width="15.973" height="10.55" transform="matrix(1,0,0,1,0,0)" fill="rgb(255,255,255)"/></clipPath><g clip-path="url(#_clipPath_0MQuLGHSRPnZCJymHTEsKgct6tM9lleI)"><g><clipPath id="_clipPath_ZgVu4I9BgALpaLPtNQSpnlezaUvLWx6G"><rect x="0.013" y="1.075" width="15.973" height="10.55" transform="matrix(1,0,0,1,0,0)" fill="rgb(255,255,255)"/></clipPath><g clip-path="url(#_clipPath_ZgVu4I9BgALpaLPtNQSpnlezaUvLWx6G)"><g><g><g><g><path d=" M 13.99 2.436 L 13.99 1.832 L 13.99 1.227 L 7.456 1.227 L 1.284 1.227 L 1.284 10.441 L 13.99 10.441 L 13.99 2.436 L 13.99 2.436 Z " fill="rgb(255,255,255)"/><path d=" M 15.805 3.567 L 15.805 10.969 C 15.805 11.26 15.522 11.497 15.17 11.499 L 0.83 11.499 C 0.478 11.497 0.195 11.26 0.196 10.969 L 0.196 1.754 C 0.196 1.614 0.262 1.48 0.381 1.381 C 0.5 1.282 0.661 1.227 0.83 1.227 L 6.096 1.227 C 6.446 1.227 6.73 1.463 6.73 1.754 L 6.73 3.04 L 15.171 3.04 C 15.339 3.04 15.5 3.095 15.619 3.194 C 15.738 3.293 15.805 3.428 15.805 3.567 Z " fill="rgb(251,184,84)"/><path d=" M 15.171 10.29 L 0.83 10.29 C 0.479 10.289 0.196 10.053 0.196 9.763 L 0.196 10.969 C 0.195 11.26 0.478 11.497 0.83 11.499 L 15.171 11.499 C 15.522 11.497 15.805 11.26 15.805 10.969 L 15.804 9.763 C 15.804 10.053 15.521 10.289 15.171 10.29 Z " fill="rgb(255,153,0)"/><path d=" M 15.171 2.888 L 6.912 2.888 L 6.912 1.754 C 6.911 1.38 6.545 1.076 6.095 1.075 L 0.83 1.075 C 0.38 1.076 0.014 1.38 0.013 1.754 L 0.013 10.971 C 0.014 11.345 0.38 11.648 0.829 11.648 L 15.171 11.648 C 15.62 11.648 15.986 11.345 15.987 10.971 L 15.987 3.567 C 15.986 3.192 15.62 2.889 15.17 2.888 L 15.171 2.888 L 15.171 2.888 Z  M 15.625 10.971 C 15.623 11.179 15.421 11.347 15.171 11.347 L 0.83 11.347 C 0.579 11.347 0.377 11.179 0.376 10.971 L 0.376 1.754 C 0.377 1.546 0.579 1.378 0.83 1.378 L 6.096 1.378 C 6.345 1.378 6.547 1.547 6.547 1.754 L 6.547 3.04 C 6.547 3.079 6.566 3.118 6.6 3.147 C 6.635 3.175 6.681 3.192 6.73 3.192 L 15.171 3.192 C 15.421 3.191 15.623 3.359 15.625 3.567 L 15.625 10.971 L 15.625 10.971 Z " fill="rgb(0,0,0)"/><path d=" M 13.99 2.587 C 14.091 2.587 14.172 2.519 14.172 2.436 L 14.173 1.227 C 14.173 1.143 14.091 1.075 13.99 1.075 L 7.456 1.075 C 7.355 1.075 7.274 1.143 7.274 1.227 C 7.274 1.31 7.355 1.378 7.456 1.378 L 13.808 1.378 L 13.808 2.436 C 13.807 2.519 13.889 2.587 13.99 2.587 L 13.99 2.587 Z " fill="rgb(0,0,0)"/></g></g></g></g></g></g></g></g></svg>