<?xml version="1.0" encoding="UTF-8" standalone="no"?><!-- Generator: Gravit.io --><svg xmlns="http://www.w3.org/2000/svg" xmlns:xlink="http://www.w3.org/1999/xlink" style="isolation:isolate" viewBox="0 0 16 16" width="16pt" height="16pt"><defs><clipPath id="_clipPath_aGXDXgIKjzxLdQA0mJiY4USjuzAVJEPq"><rect width="16" height="16"/></clipPath></defs><g clip-path="url(#_clipPath_aGXDXgIKjzxLdQA0mJiY4USjuzAVJEPq)"><g><rect x="0" y="0" width="16" height="16" transform="matrix(1,0,0,1,0,0)" fill="none"/><g><path d=" M 10.609 8.988 C 10.609 9.809 10.011 10.482 9.28 10.482 L 1.415 10.482 C 0.684 10.482 0.085 9.809 0.085 8.988 L 0.085 3.361 C 0.085 2.539 0.684 1.867 1.415 1.867 L 9.28 1.867 C 10.011 1.867 10.609 2.539 10.609 3.361 L 10.609 8.988 L 10.609 8.988 Z " fill-rule="evenodd" fill="rgb(249,170,45)"/><path d=" M 10.609 8.318 C 10.609 9.164 10.011 9.856 9.28 9.856 L 1.415 9.856 C 0.684 9.856 0.085 9.164 0.085 8.318 L 0.085 2.525 C 0.085 1.68 0.684 0.988 1.415 0.988 L 9.28 0.988 C 10.011 0.988 10.609 1.68 10.609 2.525 L 10.609 8.318 L 10.609 8.318 Z " fill-rule="evenodd" fill="rgb(255,160,0)"/><path d=" M 0 12.881 C 0 13.684 0.619 14.344 1.373 14.344 L 14.626 14.344 C 15.381 14.344 16 13.684 16 12.881 L 16 1.807 C 16 1.002 15.381 0.344 14.626 0.344 L 10.956 0.344 C 10.201 0.344 9.235 0.888 8.809 1.552 L 7.619 3.413 C 7.193 4.077 6.227 4.622 5.472 4.622 L 1.373 4.622 C 0.619 4.622 0 5.28 0 6.082 L 0 12.881 Z " fill-rule="evenodd" fill="rgb(254,213,47)"/></g></g></g></svg>