<?xml version="1.0" encoding="UTF-8" standalone="no"?><!-- Generator: Gravit.io --><svg xmlns="http://www.w3.org/2000/svg" xmlns:xlink="http://www.w3.org/1999/xlink" style="isolation:isolate" viewBox="0 0 16 16" width="16pt" height="16pt"><defs><clipPath id="_clipPath_gygaRczBZ1Id8feHlpqoV5GW3kyJeCPh"><rect width="16" height="16"/></clipPath></defs><g clip-path="url(#_clipPath_gygaRczBZ1Id8feHlpqoV5GW3kyJeCPh)"><clipPath id="_clipPath_vPDy0OzvHk0wiu3aRznpcyMSOot1YiYU"><rect x="0" y="0" width="16" height="16" transform="matrix(1,0,0,1,0,0)" fill="rgb(255,255,255)"/></clipPath><g clip-path="url(#_clipPath_vPDy0OzvHk0wiu3aRznpcyMSOot1YiYU)"><g><g><g style="opacity:0.2;"><g opacity="0.2"><path d=" M 0.8 5.12 L 15.2 5.12 C 15.642 5.12 16 5.478 16 5.92 L 16 14.56 C 16 15.002 15.642 15.36 15.2 15.36 L 0.8 15.36 C 0.358 15.36 0 15.002 0 14.56 L 0 5.92 C 0 5.478 0.358 5.12 0.8 5.12 Z " fill="rgb(0,0,0)"/></g></g><path d=" M 0 11.68 C 0 12.123 0.357 12.48 0.8 12.48 L 15.2 12.48 C 15.643 12.48 16 12.123 16 11.68 L 16 3.04 C 16 2.597 15.643 2.24 15.2 2.24 L 7.04 2.24 L 7.04 1.44 C 7.04 0.997 6.683 0.64 6.24 0.64 L 0.8 0.64 C 0.357 0.64 0 0.997 0 1.44" fill="rgb(181,143,27)"/><g style="opacity:0.2;"><g opacity="0.2"><path d=" M 0.8 4.48 L 15.2 4.48 C 15.642 4.48 16 4.838 16 5.28 L 16 13.92 C 16 14.362 15.642 14.72 15.2 14.72 L 0.8 14.72 C 0.358 14.72 0 14.362 0 13.92 L 0 5.28 C 0 4.838 0.358 4.48 0.8 4.48 Z " fill="rgb(0,0,0)"/></g></g><path d=" M 1.76 3.2 L 14.24 3.2 C 14.682 3.2 15.04 3.558 15.04 4 L 15.04 8.8 C 15.04 9.242 14.682 9.6 14.24 9.6 L 1.76 9.6 C 1.318 9.6 0.96 9.242 0.96 8.8 L 0.96 4 C 0.96 3.558 1.318 3.2 1.76 3.2 Z " fill="rgb(228,228,228)"/><path d=" M 0.8 4.8 L 15.2 4.8 C 15.642 4.8 16 5.158 16 5.6 L 16 14.24 C 16 14.682 15.642 15.04 15.2 15.04 L 0.8 15.04 C 0.358 15.04 0 14.682 0 14.24 L 0 5.6 C 0 5.158 0.358 4.8 0.8 4.8 Z " fill="rgb(226,179,34)"/><g style="opacity:0.1;"><g opacity="0.1"><path d=" M 0.8 0.64 C 0.357 0.64 0 0.997 0 1.44 L 0 1.76 C 0 1.317 0.357 0.96 0.8 0.96 L 6.24 0.96 C 6.683 0.96 7.04 1.317 7.04 1.76 L 7.04 1.44 C 7.04 0.997 6.683 0.64 6.24 0.64 L 0.8 0.64 L 0.8 0.64 Z  M 7.04 2.24 L 7.04 2.56 L 15.2 2.56 C 15.645 2.56 16 2.917 16 3.36 L 16 3.04 C 16 2.597 15.645 2.24 15.2 2.24 L 7.04 2.24 L 7.04 2.24 Z " fill="rgb(255,255,255)"/></g></g></g></g></g></g></svg>