<?xml version="1.0" standalone="no"?><!-- Generator: Gravit.io --><svg xmlns="http://www.w3.org/2000/svg" xmlns:xlink="http://www.w3.org/1999/xlink" style="isolation:isolate" viewBox="0 0 16 12.2" width="16" height="12.2"><defs><clipPath id="_clipPath_8e0hFCeiJ6M5EukPu9jU2mQpBYeSvBjC"><rect width="16" height="12.2"/></clipPath></defs><g clip-path="url(#_clipPath_8e0hFCeiJ6M5EukPu9jU2mQpBYeSvBjC)"><clipPath id="_clipPath_b1lK1hN6jCG2W36wZpsKiearag4MF5YD"><rect x="0" y="0" width="16" height="12.2" transform="matrix(1,0,0,1,0,0)" fill="rgb(255,255,255)"/></clipPath><g clip-path="url(#_clipPath_b1lK1hN6jCG2W36wZpsKiearag4MF5YD)"><g><g><g><g><path d=" M 10.61 6.413 C 10.61 7.144 10.011 7.743 9.28 7.743 L 1.415 7.743 C 0.684 7.743 0.086 7.144 0.086 6.413 L 0.086 2.408 C 0.086 1.676 0.684 1.078 1.415 1.078 L 9.28 1.078 C 10.011 1.078 10.61 1.676 10.61 2.408 L 10.61 6.413 L 10.61 6.413 Z " fill-rule="evenodd" fill="rgb(255,50,0)"/><path d=" M 0 10.78 C 0 11.535 0.618 12.153 1.374 12.153 L 14.626 12.153 C 15.382 12.153 16 11.535 16 10.78 L 16 1.374 C 16 0.618 15.382 0 14.626 0 L 10.957 0 C 10.201 0 9.235 0.511 8.809 1.135 L 7.618 2.883 C 7.193 3.507 6.227 4.018 5.471 4.018 L 1.374 4.018 C 0.618 4.018 0 4.636 0 5.392 L 0 10.78 L 0 10.78 Z " fill-rule="evenodd" fill="rgb(255,153,0)"/><g style="opacity:0.2;"><g style="opacity:0.2;"><g opacity="0.2"><path d=" M 14.626 11.838 L 1.374 11.838 C 0.618 11.838 0 11.22 0 10.465 L 0 10.78 C 0 11.535 0.618 12.153 1.374 12.153 L 14.626 12.153 C 15.382 12.153 16 11.535 16 10.78 L 16 10.465 C 16 11.22 15.382 11.838 14.626 11.838 Z " fill-rule="evenodd" fill="rgb(44,44,44)"/></g></g></g></g></g></g></g></g></g></svg>