<?xml version="1.0" standalone="no"?><!-- Generator: Gravit.io --><svg xmlns="http://www.w3.org/2000/svg" xmlns:xlink="http://www.w3.org/1999/xlink" style="isolation:isolate" viewBox="0 0 24 21" width="24" height="21"><defs><clipPath id="_clipPath_fuUiKzgjtkzSpYBG5drGN5Xew3UCkXpQ"><rect width="24" height="21"/></clipPath></defs><g clip-path="url(#_clipPath_fuUiKzgjtkzSpYBG5drGN5Xew3UCkXpQ)"><path d=" M 12 4 C 12 5.1 11.105 6 10 6 L 5 6 L 2 6 C 0.895 6 0 6.9 0 8 L 0 16 L 0 19 C 0 20.1 0.895 21 2 21 L 22 21 C 23.105 21 24 20.1 24 19 L 24 16 L 24 6 C 24 4.9 23.105 4 22 4 L 12 4 Z " fill="rgb(41,128,185)"/><path d=" M 2 0 C 0.895 0 0 0.895 0 2 L 0 7 L 10 7 L 10 8 L 24 8 L 24 3 C 24 1.895 23.105 1 22 1 L 11.719 1 C 11.373 0.403 10.74 0 10 0 L 2 0 Z " fill="rgb(41,128,185)"/><path d=" M 12 3 C 12 4.1 11.105 5 10 5 L 5 5 L 2 5 C 0.895 5 0 5.9 0 7 L 0 15 L 0 18 C 0 19.1 0.895 20 2 20 L 22 20 C 23.105 20 24 19.1 24 18 L 24 15 L 24 5 C 24 3.9 23.105 3 22 3 L 12 3 Z " fill="rgb(52,152,219)"/><path d=" M 12.552 3.703 L 15.12 8.965 L 20.918 9.775 L 16.707 13.843 L 17.729 19.608 L 12.559 16.86 L 7.391 19.613 L 8.407 13.847 L 4.192 9.783 L 9.99 8.968 L 12.552 3.703 Z " fill-rule="evenodd" fill="rgb(255,255,255)"/></g></svg>