<?xml version="1.0" standalone="no"?><!-- Generator: Gravit.io --><svg xmlns="http://www.w3.org/2000/svg" xmlns:xlink="http://www.w3.org/1999/xlink" style="isolation:isolate" viewBox="0 0 8 6.6" width="8" height="6.6"><defs><clipPath id="_clipPath_65nuTjUADvtN0g16KZA4824ZqFLlsXIc"><rect width="8" height="6.6"/></clipPath></defs><g clip-path="url(#_clipPath_65nuTjUADvtN0g16KZA4824ZqFLlsXIc)"><clipPath id="_clipPath_QrAbJGr4TFhAJ06lQOQXN4L1uIcsevp7"><rect x="0" y="0" width="8" height="6.565" transform="matrix(1,0,0,1,0,0)" fill="rgb(255,255,255)"/></clipPath><g clip-path="url(#_clipPath_QrAbJGr4TFhAJ06lQOQXN4L1uIcsevp7)"><g><rect x="0" y="0.013" width="8" height="6.565" transform="matrix(1,0,0,1,0,0)" fill="none"/><rect x="0" y="0.013" width="8" height="6.565" transform="matrix(1,0,0,1,0,0)" fill="none"/><path d=" M 7.82 0.078 L 4.633 0.078 C 4.529 0.078 4.439 0.078 4.336 0.236 L 4.168 0.472 L 0.4 0.472 C 0.181 0.472 0 0.682 0 0.906 L 0 6.067 C 0 6.29 0.181 6.513 0.4 6.513 L 7.6 6.513 C 7.82 6.513 8 6.29 8 6.067 L 8 2.075 L 8 0.919 L 8 0.236 C 8 0.144 7.923 0.078 7.82 0.078 Z " fill="rgb(255,0,0)"/><path d=" M 7.833 5.319 C 7.936 5.24 8 5.122 8 4.991 L 8 2.01 L 8 0.854 L 8 0.171 C 8 0.079 7.923 0.013 7.82 0.013 L 4.633 0.013 C 4.529 0.013 4.439 0.013 4.336 0.171 L 4.168 0.407 L 0.4 0.407 C 0.194 0.407 0.026 0.578 0 0.775 L 7.833 5.319 L 7.833 5.319 L 7.833 5.319 Z " fill="rgb(255,153,0)"/><path d=" M 0.271 0.933 L 7.833 5.293 C 7.936 5.214 8 5.122 8 4.991 L 8 2.01 L 8 1.274 L 7.51 0.933 L 0.271 0.933 L 0.271 0.933 L 0.271 0.933 Z " fill="rgb(152,0,0)"/><path d=" M 8 6.16 C 8 6.398 7.82 6.58 7.6 6.58 L 0.4 6.58 C 0.181 6.58 0 6.398 0 6.16 L 0.129 1.728 C 0.129 1.491 0.31 1.267 0.529 1.267 L 7.484 1.267 C 7.703 1.267 7.884 1.491 7.884 1.728 L 8 6.16 L 8 6.16 L 8 6.16 Z " fill="rgb(255,153,0)"/><path d=" M 6.67 3.258 C 6.626 3.143 6.535 3.051 6.4 3.028 L 5.113 2.844 L 4.548 1.672 C 4.503 1.557 4.391 1.489 4.255 1.489 C 4.119 1.489 4.006 1.557 3.962 1.672 L 3.396 2.844 L 2.109 3.028 C 1.997 3.051 1.884 3.143 1.839 3.258 C 1.793 3.373 1.839 3.51 1.929 3.603 L 2.854 4.522 L 2.629 5.809 C 2.606 5.924 2.652 6.061 2.764 6.13 C 2.854 6.2 2.99 6.223 3.103 6.153 L 4.255 5.532 L 5.406 6.153 C 5.452 6.176 5.496 6.2 5.564 6.2 C 5.632 6.2 5.7 6.176 5.767 6.13 C 5.858 6.061 5.926 5.924 5.903 5.809 L 5.677 4.522 L 6.603 3.603 C 6.67 3.51 6.693 3.373 6.67 3.258 Z " fill="rgb(255,0,0)"/><path d=" M 6.67 3.174 C 6.626 3.059 6.535 2.968 6.4 2.944 L 5.113 2.761 L 4.548 1.589 C 4.503 1.474 4.391 1.405 4.255 1.405 C 4.119 1.405 4.006 1.474 3.962 1.589 L 3.396 2.761 L 2.109 2.944 C 1.997 2.968 1.884 3.059 1.839 3.174 C 1.793 3.289 1.839 3.427 1.929 3.519 L 2.854 4.439 L 2.629 5.726 C 2.606 5.841 2.652 5.978 2.764 6.047 C 2.854 6.115 2.99 6.139 3.103 6.07 L 4.255 5.45 L 5.406 6.07 C 5.452 6.093 5.496 6.115 5.564 6.115 C 5.632 6.115 5.7 6.093 5.767 6.047 C 5.858 5.978 5.926 5.841 5.903 5.726 L 5.677 4.439 L 6.603 3.519 C 6.67 3.427 6.693 3.289 6.67 3.174 Z " fill="rgb(255,255,255)"/></g></g></g></svg>