<?xml version="1.0" standalone="no"?><!-- Generator: Gravit.io --><svg xmlns="http://www.w3.org/2000/svg" xmlns:xlink="http://www.w3.org/1999/xlink" style="isolation:isolate" viewBox="0 0 16 16" width="16" height="16"><defs><clipPath id="_clipPath_87Ky7ZGou9oczZSzoeK1xGGLrPOxd7Xh"><rect width="16" height="16"/></clipPath></defs><g clip-path="url(#_clipPath_87Ky7ZGou9oczZSzoeK1xGGLrPOxd7Xh)"><g id="Layer_x0020_1"><path d=" M 0.005 3.171 L 0.005 0.17 L 0.005 0 L 0.175 0 C 4.537 0 8.494 1.776 11.36 4.643 C 14.225 7.509 16 11.466 16 15.83 L 16 16 L 15.83 16 L 12.819 16 L 12.649 16 L 12.649 15.83 C 12.649 12.388 11.25 9.265 8.99 7.003 C 6.732 4.742 3.614 3.341 0.175 3.341 L 0.005 3.341 L 0.005 3.171 L 0.005 3.171 Z " fill="rgb(255,123,10)"/><path d=" M 0 8.49 L 0 5.489 L 0 5.319 L 0.17 5.319 C 3.067 5.319 5.693 6.498 7.595 8.401 C 9.498 10.305 10.676 12.933 10.676 15.83 L 10.676 16 L 10.506 16 L 7.49 16 L 7.32 16 L 7.32 15.83 C 7.32 14.868 7.134 13.937 6.779 13.078 C 6.425 12.221 5.901 11.434 5.225 10.761 L 5.225 10.76 C 4.551 10.084 3.765 9.558 2.908 9.202 C 2.052 8.847 1.125 8.66 0.17 8.66 L 0 8.66 L 0 8.49 L 0 8.49 Z " fill="rgb(255,123,10)"/><path d=" M 0.663 12.143 C 1.071 11.736 1.634 11.483 2.254 11.483 C 2.877 11.483 3.441 11.735 3.849 12.142 C 4.259 12.55 4.512 13.113 4.512 13.732 C 4.512 14.354 4.26 14.916 3.851 15.323 C 3.443 15.729 2.878 15.98 2.254 15.98 C 1.633 15.98 1.069 15.729 0.66 15.321 C 0.253 14.914 0 14.353 0 13.732 C 0 13.114 0.254 12.551 0.663 12.143 L 0.663 12.143 Z " fill="rgb(255,123,10)"/></g></g></svg>