<?xml version="1.0" standalone="no"?><!-- Generator: Gravit.io --><svg xmlns="http://www.w3.org/2000/svg" xmlns:xlink="http://www.w3.org/1999/xlink" style="isolation:isolate" viewBox="0 0 14 14" width="14" height="14"><defs><clipPath id="_clipPath_bIq7yPNbUI7L02e4I5jJHY9Jz7jFbfnO"><rect width="14" height="14"/></clipPath></defs><g clip-path="url(#_clipPath_bIq7yPNbUI7L02e4I5jJHY9Jz7jFbfnO)"><g id="Group"><rect x="0" y="0" width="14" height="14" transform="matrix(1,0,0,1,0,0)" fill="rgb(74,134,232)"/><g id="Group"><path d=" M 10.45 12.998 L 12.605 12.998 C 12.605 6.383 7.577 1 1.395 1 L 1.395 3.301 C 6.386 3.299 10.45 7.649 10.45 12.998 Z  M 2.887 13 C 3.716 13 4.382 12.291 4.382 11.409 C 4.382 10.534 3.716 9.815 2.887 9.815 C 2.064 9.815 1.395 10.534 1.395 11.409 C 1.395 12.291 2.063 13 2.887 13 Z  M 6.638 12.998 L 6.638 12.998 L 8.798 12.998 C 8.798 8.629 5.476 5.077 1.395 5.077 L 1.395 7.376 C 2.794 7.376 4.11 7.962 5.102 9.024 C 6.092 10.081 6.638 11.495 6.638 12.998 Z " fill="rgb(255,255,255)"/></g></g></g></svg>