<?xml version="1.0" standalone="no"?><!-- Generator: Gravit.io --><svg xmlns="http://www.w3.org/2000/svg" xmlns:xlink="http://www.w3.org/1999/xlink" style="isolation:isolate" viewBox="0 0 32 32" width="32" height="32"><defs><clipPath id="_clipPath_ry6RZSuj7MN3RfdSlcTQgjyWosUmnOad"><rect width="32" height="32"/></clipPath></defs><g clip-path="url(#_clipPath_ry6RZSuj7MN3RfdSlcTQgjyWosUmnOad)"><g id="Group"><defs><filter id="s85oXjb1MEB2VekbjceUbyU3chlXzoGX" x="-200%" y="-200%" width="400%" height="400%"><feGaussianBlur xmlns="http://www.w3.org/2000/svg" stdDeviation="2.6295418"/></filter></defs><g filter="url(#s85oXjb1MEB2VekbjceUbyU3chlXzoGX)" style="mix-blend-mode:normal;" opacity="0.34732822"><path d="M 5.478 0.332 L 26.931 0.332 C 29.729 0.332 32 2.603 32 5.401 L 32 26.931 C 32 29.729 29.729 32 26.931 32 L 5.478 32 C 2.68 32 0.409 29.729 0.409 26.931 L 0.409 5.401 C 0.409 2.603 2.68 0.332 5.478 0.332 Z" style="stroke:none;fill:#000000;stroke-miterlimit:10;"/></g><defs><linearGradient id="_lgradient_0" x1="0.43288945440497517" y1="0.41479608683158814" x2="0.4376776469247385" y2="0.8578211172792807"><stop offset="0.8695652173913043%" style="stop-color:rgba(30,144,255,0.5)"/><stop offset="42.06250784044342%" style="stop-color:#1E90FF"/><stop offset="98.26086956521739%" style="stop-color:#1E90FF"/></linearGradient></defs><path d="M 5.069 0 L 26.522 0 C 29.32 0 31.591 2.271 31.591 5.069 L 31.591 26.599 C 31.591 29.397 29.32 31.668 26.522 31.668 L 5.069 31.668 C 2.271 31.668 0 29.397 0 26.599 L 0 5.069 C 0 2.271 2.271 0 5.069 0 Z" style="stroke:none;fill:url(#_lgradient_0);stroke-miterlimit:10;"/><g id="g3281" style="opacity:0.50381679;" filter="url(#7FrTRIz6TfmFBlbMsVCohF7yEOYkZYgF)"><path d=" M 10.618 24.043 C 10.618 25.73 9.245 27.098 7.552 27.098 C 5.858 27.098 4.485 25.73 4.485 24.043 C 4.485 22.355 5.858 20.988 7.552 20.988 C 9.245 20.988 10.618 22.355 10.618 24.043 L 10.618 24.043 Z " fill="rgb(0,0,0)"/><path d=" M 4.999 12.262 C 4.891 12.262 4.784 12.264 4.676 12.266 L 4.676 16.694 C 4.784 16.691 4.891 16.69 4.999 16.69 C 10.482 16.69 14.932 21.123 14.932 26.585 C 14.932 26.623 14.93 26.66 14.93 26.697 L 19.375 26.697 C 19.375 26.66 19.377 26.623 19.377 26.585 C 19.377 18.679 12.935 12.262 4.999 12.262 Z " fill="rgb(0,0,0)"/><path d=" M 4.676 4.455 L 4.676 8.67 C 14.596 8.969 22.611 16.855 23.066 26.697 L 26.778 26.697 C 26.778 26.642 26.78 26.586 26.78 26.53 C 26.78 14.364 16.882 4.486 4.676 4.455 Z " fill="rgb(0,0,0)"/></g><defs><filter id="7FrTRIz6TfmFBlbMsVCohF7yEOYkZYgF" x="-200%" y="-200%" width="400%" height="400%"><feGaussianBlur xmlns="http://www.w3.org/2000/svg" stdDeviation="1.8679857"/></filter></defs><g id="g3264"><path d=" M 10.618 23.817 C 10.618 25.504 9.245 26.872 7.552 26.872 C 5.858 26.872 4.485 25.504 4.485 23.817 C 4.485 22.129 5.858 20.762 7.552 20.762 C 9.245 20.762 10.618 22.129 10.618 23.817 L 10.618 23.817 Z " fill="rgb(255,255,255)"/><linearGradient id="_lgradient_1" x1="74.52990927477609%" y1="-8.12600205188333%" x2="81.8864466917076%" y2="97.98236787337035%"><stop offset="0%" stop-opacity="1" style="stop-color:rgb(255,255,255)"/><stop offset="100%" stop-opacity="1" style="stop-color:rgb(195,195,195)"/></linearGradient><path d=" M 4.999 12.036 C 4.891 12.036 4.784 12.038 4.676 12.04 L 4.676 16.468 C 4.784 16.465 4.891 16.464 4.999 16.464 C 10.482 16.464 14.932 20.897 14.932 26.359 C 14.932 26.397 14.93 26.434 14.93 26.471 L 19.375 26.471 C 19.375 26.434 19.377 26.397 19.377 26.359 C 19.377 18.453 12.935 12.036 4.999 12.036 Z " fill="url(#_lgradient_1)"/><path d=" M 4.676 4.229 L 4.676 8.444 C 14.596 8.743 22.611 16.629 23.066 26.471 L 26.778 26.471 C 26.778 26.415 26.78 26.36 26.78 26.304 C 26.78 14.137 16.882 4.26 4.676 4.229 Z " fill="rgb(255,255,255)"/></g><g opacity="0.47709925"><linearGradient id="_lgradient_2" x1="49.99999924885133%" y1="92.51930766542523%" x2="50.48093290491027%" y2="11.512639568685767%"><stop offset="0%" stop-opacity="0" style="stop-color:rgb(255,255,255)"/><stop offset="100%" stop-opacity="1" style="stop-color:rgb(255,255,255)"/></linearGradient><path d=" M 5.25 0.151 C 2.481 0.151 0.253 2.371 0.253 5.128 L 0.253 18.685 C 4.793 13.931 12.727 10.778 21.748 10.778 C 25.14 10.778 28.376 11.225 31.338 12.034 L 31.338 5.128 C 31.338 2.371 29.11 0.151 26.342 0.151 L 5.25 0.151 Z " fill="url(#_lgradient_2)"/></g></g></g></svg>