<?xml version="1.0" standalone="no"?><!-- Generator: Gravit.io --><svg xmlns="http://www.w3.org/2000/svg" xmlns:xlink="http://www.w3.org/1999/xlink" style="isolation:isolate" viewBox="0 0 16 16" width="16" height="16"><defs><clipPath id="_clipPath_pXsxQzs0YMBZGRqm2nnD2o4MUf9KNr3f"><rect width="16" height="16"/></clipPath></defs><g clip-path="url(#_clipPath_pXsxQzs0YMBZGRqm2nnD2o4MUf9KNr3f)"><path d=" M 66.36 93.2 L 65.724 92.5 L 65.724 91.3 L 65.724 90.1 L 66.114 87.9 C 66.328 86.6 66.504 85.6 66.504 85.5 C 66.504 85.4 66.374 85.4 65.98 85.2 L 65.455 84.9 L 64.911 83.6 C 64.611 82.8 64.364 82.2 64.362 82.1 C 64.36 82 64.453 81.8 64.577 81.7 C 64.795 81.3 64.797 81.3 64.797 80.9 L 64.797 80.5 L 64.281 80.5 L 63.684 80.5 C 63.639 80.4 63.503 80.2 63.382 80 L 63.163 79.5 L 62.828 79.5 L 62.494 79.6 L 61.345 78.9 L 60.196 78.3 L 59.836 77.8 C 59.638 77.6 59.442 77.4 59.401 77.4 C 59.359 77.3 59.142 77.3 58.919 77.3 L 58.512 77.3 L 57.281 75.7 L 56.051 74.1 L 56.104 73.2 L 56.157 72.4 L 55.776 71.9 C 55.567 71.6 55.36 71.3 55.318 71.3 C 55.264 71.2 55.169 71.2 55.015 71.3 L 54.74 71.3 C 54.712 71.3 54.615 71.1 54.524 70.9 C 54.351 70.6 54.361 70.5 54.58 70.5 L 54.699 70.5 C 54.699 70.4 53.69 69.4 53.559 69.3 C 53.502 69.3 53.119 69.2 52.707 69.1 L 51.959 69 L 50.079 70 C 49.045 70.5 48.186 70.9 48.171 70.9 C 48.156 70.8 48.411 70.6 48.738 70.2 C 49.066 69.9 49.333 69.6 49.333 69.6 C 49.333 69.6 49.124 69.4 48.869 69.2 C 48.613 69 48.394 68.8 48.381 68.8 C 48.368 68.7 48.27 68.1 48.163 67.4 C 47.985 66.2 47.976 66.1 48.049 66 C 48.093 66 48.46 65.8 48.865 65.6 L 49.602 65.2 L 53.382 65.6 C 55.461 65.8 57.215 66 57.278 66 C 57.376 66 57.385 66 57.333 65.9 C 57.299 65.9 57.025 65.7 56.724 65.5 C 56.422 65.3 56.149 65.1 56.115 65 C 56.065 65 56.083 64.8 56.212 64.3 C 56.299 63.9 56.395 63.6 56.425 63.6 C 56.455 63.6 58.236 62.9 60.382 62 L 64.285 60.5 L 65.407 60.6 C 67.03 60.7 67.292 60.7 67.275 60.8 C 67.267 60.8 66.7 61.5 66.016 62.2 C 65.332 63 64.756 63.7 64.735 63.7 C 64.714 63.7 64.731 63.8 64.775 63.8 C 64.817 63.9 65.607 64.5 66.531 65.3 C 67.455 66 68.211 66.7 68.211 66.7 C 68.211 66.7 67.962 67 67.658 67.4 L 67.105 67.9 L 66.085 67.8 C 65.524 67.7 65.046 67.5 65.022 67.5 C 64.996 67.5 65.023 67.2 65.089 66.9 C 65.149 66.6 65.186 66.3 65.17 66.3 C 65.148 66.2 65.065 66.2 64.826 66.2 C 64.652 66.2 64.496 66.2 64.48 66.3 C 64.464 66.3 64.385 66.5 64.306 66.7 L 64.161 67.1 L 64.267 67.5 C 64.325 67.7 64.359 67.9 64.342 67.9 L 63.688 67.9 C 62.66 67.8 62.778 67.7 62.362 68.3 C 62.164 68.6 61.992 68.8 61.981 68.9 C 61.968 68.9 62.061 69.1 62.236 69.2 C 62.448 69.4 62.607 69.5 62.934 69.5 C 63.167 69.6 63.428 69.7 63.513 69.7 C 63.621 69.8 63.815 69.9 64.147 70.3 C 64.411 70.6 64.657 70.9 64.695 70.9 C 64.759 70.9 65.089 70 65.089 69.8 C 65.089 69.8 65.046 69.7 64.992 69.6 C 64.906 69.5 64.894 69.4 64.894 68.9 C 64.894 68.4 64.902 68.3 64.985 68.3 C 65.225 68.3 67.462 68.7 67.509 68.8 C 67.539 68.8 67.998 69.3 68.529 70 C 69.354 71 69.484 71.1 69.426 71.2 C 69.388 71.2 68.755 71.6 68.017 72 C 67.28 72.5 66.666 72.8 66.652 72.8 C 66.637 72.8 66.615 73 66.602 73.3 L 66.577 73.7 L 66.331 73.7 C 66.091 73.7 66.08 73.7 65.852 73.9 C 65.661 74.1 65.624 74.2 65.645 74.3 C 65.75 74.8 65.794 74.7 65.167 75.3 C 64.792 75.6 64.602 75.8 64.602 75.8 C 64.603 75.9 64.657 76.1 64.724 76.3 C 64.896 76.9 64.898 76.8 64.567 76.8 C 64.289 76.8 64.287 76.8 64.102 76.5 C 63.77 76.1 63.877 76.1 62.931 76.1 L 62.036 76.1 C 61.961 76.2 61.382 77.2 61.382 77.3 C 61.382 77.4 62.041 78 62.165 78 C 62.224 78 62.434 77.9 62.632 77.8 L 62.991 77.6 L 63.191 77.7 L 63.391 77.8 L 63.352 78.1 C 63.331 78.3 63.313 78.5 63.311 78.6 L 63.309 78.8 L 63.56 78.8 C 63.698 78.8 63.832 78.8 63.858 78.9 C 63.884 78.9 63.931 79.1 63.964 79.3 C 64.058 79.9 63.987 79.8 64.666 79.8 L 65.26 79.8 L 65.815 79.6 L 66.37 79.3 L 66.766 79.5 C 67.128 79.6 67.228 79.6 67.904 79.7 L 68.694 79.7 C 68.72 79.8 68.763 80 68.788 80.2 C 68.817 80.5 68.861 80.7 68.902 80.7 L 69.513 80.7 C 69.814 80.7 70.071 80.8 70.085 80.8 C 70.1 80.8 70.138 81 70.17 81.3 C 70.203 81.6 70.258 81.8 70.296 81.8 C 70.343 81.9 70.484 81.9 70.741 81.9 L 71.117 81.9 L 72.201 82.6 C 72.797 83 73.284 83.4 73.284 83.4 C 73.284 83.4 73.142 83.6 72.967 83.8 C 72.793 84 72.65 84.2 72.649 84.2 C 72.648 84.2 72.607 84.6 72.56 85 L 72.473 85.6 L 72.227 85.9 C 71.91 86.2 67.678 90.7 67.564 90.9 C 67.485 91 67.484 91 67.552 91.2 C 67.593 91.3 67.626 91.5 67.626 91.7 L 67.626 92 L 67.309 92.4 C 67.135 92.5 66.992 92.7 66.992 92.7 C 66.992 92.7 67.101 92.9 67.235 93 C 67.369 93.2 67.479 93.4 67.479 93.4 C 67.48 93.5 67.101 94 67.038 94 C 67.015 94 66.71 93.6 66.36 93.2 L 66.36 93.2 Z  M 111.35 92 C 111.28 91.9 111.24 91.8 111.19 91.6 C 111.09 91.1 111.07 91.2 111.85 90.3 C 112.23 89.9 112.55 89.5 112.55 89.5 C 112.55 89.4 112.43 89.2 112.28 89 C 112.14 88.8 112.02 88.6 112.02 88.6 C 112.02 88.5 112.31 88.1 112.36 88.1 C 112.39 88.2 112.52 88.3 112.66 88.5 L 112.9 88.9 L 112.97 89.6 C 113.08 90.6 113.12 90.5 112.45 91.3 L 111.86 92 L 111.66 92 L 111.35 92 L 111.35 92 Z  M 106.74 89.8 C 106.56 89.8 106.41 89.8 106.3 89.7 C 106.21 89.6 105.73 89.2 105.23 88.9 C 104.72 88.5 104.29 88.2 104.26 88.2 C 104.23 88.2 104.21 88.3 104.21 88.4 C 104.21 88.4 104.18 88.5 104.15 88.5 C 104.06 88.6 101.56 89.1 101.51 89.1 C 101.49 89.1 101.53 88.8 101.6 88.6 C 101.67 88.3 101.72 88.1 101.72 88.1 C 101.72 88 101.61 87.9 101.47 87.9 L 101.21 87.7 L 101.2 87.1 L 101.18 86.4 L 101.32 86.3 C 101.6 86.1 104.71 84.1 104.75 84.1 C 104.76 84.1 105.12 84.3 105.53 84.5 C 105.95 84.8 106.31 85 106.34 85 C 106.38 85 106.41 84.9 106.43 84.7 C 106.45 84.4 106.49 84.3 106.52 84.2 L 106.78 84.2 L 107 84.2 L 107.99 85.7 C 108.54 86.5 108.99 87.2 108.99 87.3 C 108.99 87.3 107.78 89.7 107.66 89.8 C 107.61 89.9 107.24 89.9 106.74 89.8 L 106.74 89.8 Z  M 83.957 88.8 C 83.563 88.7 83.22 88.7 83.196 88.7 C 83.172 88.6 82.85 87.8 82.48 86.8 L 81.808 84.9 L 82.01 84.6 L 82.211 84.4 L 82.211 83.9 L 82.211 83.3 L 81.984 83.1 C 81.86 82.9 81.603 82.6 81.413 82.4 L 81.069 82 L 81.287 81.8 C 81.406 81.7 81.493 81.6 81.48 81.6 C 81.466 81.6 81.225 81.4 80.943 81.3 L 80.431 80.9 L 79.251 80.9 C 78.082 80.8 78.07 80.8 77.934 80.7 C 77.859 80.6 77.577 80.4 77.309 80.1 C 77.041 79.9 76.807 79.7 76.79 79.7 C 76.772 79.6 76.742 79 76.722 78.3 L 76.687 77.1 L 78.172 75.8 L 79.658 74.6 L 80.479 74.5 L 81.299 74.4 L 81.499 74.6 C 81.682 74.8 81.699 74.8 81.699 75 L 81.699 75.3 L 82.285 75.5 C 82.607 75.6 82.896 75.7 82.927 75.7 C 82.958 75.7 83.112 75.6 83.268 75.4 C 83.425 75.3 83.582 75.2 83.618 75.2 C 83.654 75.2 83.782 75.3 83.904 75.4 L 84.126 75.5 L 85.006 75.6 L 85.887 75.6 L 86.074 75.4 L 86.26 75.3 L 86.26 74.9 C 86.26 74.6 86.243 74.5 86.199 74.5 C 86.166 74.5 86.009 74.6 85.852 74.8 C 85.694 75.1 85.54 75.2 85.51 75.2 C 85.48 75.2 85.28 75 85.065 74.7 C 84.662 74.1 84.516 74 84.57 74.3 C 84.586 74.4 84.614 74.6 84.633 74.8 C 84.66 75.2 84.655 75.2 84.597 75.2 C 84.559 75.2 84.36 75 84.154 74.9 C 83.878 74.7 83.773 74.6 83.754 74.5 C 83.74 74.4 83.703 74.2 83.672 74 C 83.618 73.7 83.601 73.6 83.261 73.2 C 82.56 72.4 82.526 72.4 82.437 72.4 C 82.394 72.5 82.358 72.5 82.358 72.6 C 82.358 72.6 82.544 72.9 82.771 73.2 C 83.135 73.7 83.178 73.8 83.129 73.9 C 83.03 74.1 82.681 74.5 82.643 74.5 C 82.603 74.5 82.544 74.4 82.452 73.9 C 82.393 73.6 82.305 73.6 81.662 73.1 L 81.385 72.9 L 81.11 73.2 C 80.848 73.4 80.829 73.4 80.679 73.3 L 80.47 73.3 C 80.442 73.3 80.029 73.6 79.554 74.1 C 79.078 74.5 78.66 74.9 78.624 74.9 C 78.561 74.9 78.531 74.8 78.158 73.8 C 77.907 73.1 77.908 73.1 78.199 73.2 L 78.819 73.2 L 79.208 73.2 L 79.319 73 C 79.472 72.7 79.46 72.7 79.233 72.4 C 79.123 72.3 79.043 72.2 79.053 72.1 C 79.063 72.1 79.24 71.9 79.445 71.8 C 79.753 71.5 79.862 71.5 80.062 71.5 C 80.279 71.4 80.354 71.4 80.746 71 C 80.989 70.8 81.187 70.6 81.187 70.5 C 81.187 70.5 81.143 70.4 81.089 70.2 C 81.036 70.1 80.992 70 80.992 70 C 80.992 69.9 81.344 69.7 81.427 69.7 C 81.454 69.7 81.549 69.8 81.637 69.9 L 81.797 70.2 L 82.577 70.1 L 83.407 70.1 C 83.433 70 83.478 69.9 83.506 69.8 L 83.557 69.6 L 84.405 69.3 C 84.871 69.1 85.26 68.9 85.27 68.9 C 85.28 68.9 85.224 68.8 85.146 68.7 L 85.004 68.6 L 84.485 68.7 C 84.199 68.8 83.935 68.9 83.898 68.9 C 83.829 68.8 83.577 68.3 83.577 68.2 C 83.577 68.2 83.742 68 83.943 67.9 C 84.144 67.7 84.309 67.6 84.309 67.5 C 84.309 67.5 83.929 67.1 83.854 67.1 C 83.788 67.2 82.846 68.4 82.846 68.4 C 82.846 68.4 82.925 68.5 83.022 68.6 L 83.198 68.8 L 83.156 69.2 L 83.114 69.6 L 82.708 69.7 C 82.075 69.9 82.062 69.9 81.94 69.6 C 81.882 69.5 81.814 69.4 81.789 69.3 C 81.76 69.3 81.554 69.3 81.234 69.4 L 80.693 69.4 C 80.652 69.3 80.724 68.5 80.776 68.4 C 80.87 68.2 82.48 66.1 82.572 66 C 82.648 65.9 82.925 65.8 83.626 65.7 C 84.149 65.5 84.629 65.4 84.692 65.4 C 84.755 65.4 85.464 65.6 86.267 65.8 C 87.071 66 87.738 66.1 87.75 66.1 C 87.851 66.1 87.329 66.9 87.222 66.9 C 87.138 67 87.16 67 86.638 66.9 L 86.163 66.9 C 86.163 67 86.314 67.2 86.5 67.3 L 86.837 67.7 L 87.024 67.6 C 87.127 67.5 87.656 67.2 88.199 66.8 L 89.186 66.2 L 89.927 66.1 L 90.685 66.1 C 90.695 66 90.494 65.8 90.239 65.5 C 89.983 65.2 89.774 64.9 89.774 64.9 C 89.775 64.9 90.043 64.6 90.371 64.3 L 90.968 63.6 L 91.816 63.3 C 92.63 62.9 92.667 62.9 92.732 63 C 92.818 63.1 92.919 63.5 92.88 63.5 C 92.864 63.5 92.542 63.6 92.164 63.8 C 91.786 63.9 91.425 64 91.362 64.1 C 91.241 64.1 90.455 65 90.455 65 C 90.455 65.1 90.616 65.2 91.424 65.7 C 91.809 65.9 92.138 66.1 92.155 66.1 C 92.172 66.1 92.136 66 92.076 65.9 C 92.017 65.8 91.968 65.7 91.968 65.7 C 91.968 65.6 92.982 64.7 93.073 64.7 C 93.104 64.7 93.576 64.8 94.121 64.9 C 94.728 65 95.132 65.1 95.16 65.1 C 95.185 65.1 95.273 64.9 95.355 64.8 L 95.504 64.5 L 97.351 63.8 L 99.197 63.1 L 100.01 63.3 C 100.46 63.4 101.01 63.5 101.25 63.5 C 101.48 63.6 101.67 63.6 101.67 63.7 C 101.67 63.7 101.3 63.9 100.84 64.2 C 100.36 64.5 100.03 64.7 100.05 64.7 C 100.07 64.7 101.28 64.9 102.73 65 C 104.17 65.2 105.44 65.3 105.55 65.3 C 105.73 65.3 105.75 65.3 106.21 64.9 C 106.47 64.6 106.7 64.4 106.73 64.4 C 106.76 64.4 106.87 64.6 106.99 64.8 C 107.1 65 107.22 65.2 107.25 65.2 C 107.28 65.2 107.92 65.3 108.67 65.4 L 110.03 65.5 L 110.41 65.7 C 110.86 65.9 110.87 65.9 111.99 65.8 C 112.45 65.7 112.89 65.7 112.98 65.7 L 113.14 65.7 L 113.14 67.2 C 113.14 68 113.12 68.7 113.1 68.8 C 113.08 68.8 112.59 68.8 112.02 68.9 C 111.44 68.9 110.94 69 110.91 69 C 110.87 69.1 110.86 69.2 110.88 69.5 L 110.9 69.9 L 110.26 70.7 C 109.91 71.2 109.6 71.6 109.58 71.6 C 109.55 71.6 109.52 71.5 109.51 71.5 C 109.47 71.3 109.28 70.1 109.28 70 C 109.28 70 109.43 69.8 109.6 69.6 C 109.78 69.3 109.92 69.1 109.92 69.1 C 109.92 69 109.93 69 108.56 69.2 L 107.38 69.3 L 106.63 69.7 C 106.22 69.9 105.86 70.1 105.83 70.1 C 105.76 70.2 105.67 70.7 105.71 70.7 C 105.73 70.7 105.95 70.7 106.19 70.6 C 106.44 70.6 106.66 70.5 106.69 70.5 C 106.72 70.6 106.76 70.9 106.77 71.3 L 106.81 72 L 106.69 72.1 L 106.42 72.1 C 106.11 72.1 106.04 72.2 105.95 72.5 C 105.9 72.7 105.83 72.9 105.79 72.9 C 105.75 72.9 105.41 73.2 105.04 73.4 C 104.66 73.7 104.36 73.9 104.36 73.9 C 104.36 74 104.4 74.1 104.46 74.2 C 104.53 74.4 104.54 74.5 104.5 74.6 C 104.41 74.7 103.68 75.1 103.62 75.1 C 103.59 75.1 103.5 74.9 103.43 74.6 C 103.35 74.4 103.27 74.2 103.25 74.1 C 103.19 74.1 102.67 74.3 102.63 74.4 C 102.62 74.5 102.64 75 102.68 75.6 C 102.75 76.5 102.75 76.7 102.69 76.7 C 102.66 76.8 102.04 77.1 101.32 77.5 C 100.6 78 100.02 78.3 100.02 78.4 C 100.02 78.4 100.16 78.6 100.34 78.9 C 100.52 79.2 100.65 79.4 100.63 79.4 C 100.59 79.5 99.554 80.1 99.485 80.1 C 99.456 80.1 99.333 79.9 99.211 79.7 C 99.043 79.3 98.968 79.2 98.892 79.2 C 98.737 79.2 98.73 79.3 98.852 79.8 L 98.965 80.3 L 99.405 80.6 C 99.648 80.8 99.864 80.9 99.887 80.9 C 99.944 81 99.849 81.2 99.707 81.2 C 99.603 81.3 99.564 81.3 99.356 81.3 C 99.032 81.2 99.024 81.2 99.058 81.4 C 99.092 81.6 99.196 81.7 99.395 81.7 C 99.639 81.7 99.709 81.7 99.872 82.2 C 99.959 82.4 100.06 82.7 100.09 82.7 C 100.13 82.7 100.46 82.9 100.83 83 C 101.28 83.2 101.51 83.3 101.53 83.4 C 101.58 83.5 101.59 83.8 101.54 83.8 C 101.52 83.8 101.15 83.7 100.72 83.6 C 100.29 83.5 99.93 83.5 99.914 83.5 C 99.861 83.5 97.577 80.9 97.577 80.9 C 97.577 80.8 97.692 80.8 97.992 80.9 C 98.314 80.9 98.407 80.9 98.407 80.8 C 98.407 80.8 98.105 80.1 97.737 79.3 L 97.068 77.9 L 97.05 77.5 C 97.034 77.1 97.018 77 96.938 77 C 96.735 76.9 96.661 77 96.572 77.4 L 96.486 77.8 L 95.876 78.2 C 95.54 78.5 95.232 78.7 95.19 78.8 C 95.133 78.8 95.108 79 95.089 79.3 L 95.065 79.8 L 94.626 80 C 94.385 80 94.145 80.1 94.093 80.1 C 94.022 80.1 93.95 79.9 93.787 79.5 C 93.311 78.2 93.35 78.3 93.123 78.2 L 92.919 78.1 L 92.919 77.6 C 92.919 77.2 92.899 77 92.87 77 C 92.664 76.9 89.11 76.3 89.083 76.3 C 89.052 76.4 89.5 77.2 89.611 77.3 C 89.635 77.3 89.796 77.3 89.982 77.2 L 90.31 77.1 L 90.651 77.5 C 90.839 77.6 90.992 77.8 90.992 77.9 C 90.992 77.9 90.372 78.7 90.243 78.8 C 90.185 78.8 89.799 79 89.385 79.1 C 88.886 79.3 88.608 79.4 88.563 79.3 C 88.526 79.3 88.118 78.6 87.656 77.7 C 87.195 76.8 86.788 76 86.752 76 C 86.681 75.9 86.425 75.9 86.311 76 C 86.263 76 86.233 76.1 86.22 76.3 L 86.201 76.7 L 86.792 77.9 C 87.373 79 87.388 79 87.68 79.3 C 88.149 79.6 88.368 79.8 88.451 79.7 L 89.109 79.7 L 89.66 79.7 C 89.644 79.8 89.092 80.6 88.433 81.5 C 87.775 82.5 87.236 83.3 87.236 83.3 C 87.236 83.4 87.291 83.5 87.359 83.6 C 87.461 83.7 87.489 83.8 87.528 84.2 C 87.607 85 87.646 84.9 86.925 85.4 C 86.854 85.5 86.825 85.6 86.792 86 C 86.769 86.2 86.732 86.4 86.709 86.5 C 86.414 86.9 84.818 88.8 84.757 88.8 L 83.957 88.8 L 83.957 88.8 Z  M 89.955 74.6 C 90.082 74.6 90.163 74.5 90.163 74.5 C 90.163 74.4 90.078 74.2 89.974 74 C 89.689 73.5 89.69 73.5 89.916 73.2 C 90.14 72.9 90.144 72.9 90.033 72.7 C 89.919 72.6 89.863 72.6 89.644 72.8 L 89.451 73 L 89.495 73.8 C 89.538 74.6 89.573 74.7 89.691 74.7 C 89.722 74.7 89.841 74.6 89.955 74.6 L 89.955 74.6 Z  M 85.436 73.5 C 85.78 73.2 85.76 73.2 86.846 73.3 C 87.235 73.4 87.571 73.4 87.593 73.4 C 87.615 73.4 87.516 73.2 87.373 72.9 C 87.104 72.5 86.994 72.4 86.692 72.4 C 86.563 72.4 86.553 72.4 86.553 72.6 C 86.553 72.8 86.503 72.8 86.244 72.8 C 86.119 72.8 86.047 72.8 85.866 72.6 L 85.642 72.3 L 85.293 72.8 C 85.1 73 84.943 73.2 84.943 73.3 C 84.944 73.4 85.045 73.7 85.092 73.7 C 85.117 73.7 85.272 73.6 85.436 73.5 Z  M 91.662 73.4 C 91.688 73.4 91.697 73.2 91.68 73.1 L 91.65 72.9 L 91.456 72.9 C 91.233 72.9 91.207 72.9 91.259 73.3 C 91.289 73.5 91.299 73.5 91.452 73.5 C 91.541 73.5 91.636 73.4 91.662 73.4 L 91.662 73.4 Z  M 55.004 87.1 C 54.836 87 54.699 86.9 54.699 86.8 C 54.699 86.8 54.893 86.6 55.037 86.5 L 55.175 86.4 L 55.475 86.5 C 55.64 86.7 55.789 86.8 55.805 86.8 C 55.839 86.9 55.501 87.3 55.384 87.3 C 55.343 87.3 55.172 87.2 55.004 87.1 Z  M 88.2 86.6 C 87.939 86.4 87.716 86.2 87.704 86.2 C 87.682 86.1 87.922 85.2 87.99 85.1 C 88.045 85 88.995 84.3 89.053 84.3 C 89.161 84.3 89.431 84.5 89.431 84.6 C 89.431 84.7 88.796 86.8 88.732 86.8 C 88.688 86.9 88.562 86.8 88.2 86.6 L 88.2 86.6 Z  M 53.626 86.2 C 53.452 86.1 53.312 85.9 53.315 85.9 C 53.323 85.8 53.77 85.2 53.825 85.2 C 53.888 85.2 54.556 86.1 54.529 86.1 C 54.489 86.2 54.078 86.4 54.008 86.4 C 53.972 86.4 53.8 86.3 53.626 86.2 Z  M 106.27 83.5 C 105.43 83.3 104.72 83.1 104.7 83.1 C 104.65 83 104.56 82 104.6 82 C 104.64 81.9 107.7 82.7 107.78 82.7 C 107.83 82.8 108.07 83.6 108.07 83.7 C 108.07 83.9 107.98 83.8 106.27 83.5 L 106.27 83.5 Z  M 102.66 82.8 C 102.6 82.8 102.55 82.7 102.55 82.7 C 102.55 82.7 103.05 81.6 103.09 81.6 C 103.14 81.5 103.65 81.6 103.7 81.7 C 103.72 81.7 103.59 82 103.42 82.3 C 103.12 82.8 103.12 82.8 102.95 82.8 L 102.66 82.8 Z  M 101.13 82.6 C 100.87 82.5 100.65 82.5 100.64 82.4 C 100.63 82.4 100.64 82.2 100.66 81.9 L 100.7 81.4 L 101.2 80.9 C 101.47 80.7 101.73 80.5 101.76 80.5 C 101.83 80.5 102.5 81.4 102.5 81.5 C 102.5 81.5 102.36 81.8 102.19 82.1 C 101.83 82.8 101.86 82.8 101.13 82.6 L 101.13 82.6 Z  M 66.975 78.6 L 66.006 78.3 L 66.034 78.1 C 66.049 78 66.082 77.9 66.106 77.9 C 66.133 77.9 66.522 78 67.096 78.3 C 67.616 78.5 68.115 78.7 68.206 78.7 C 68.348 78.8 68.362 78.8 68.303 78.9 C 68.149 79 67.96 79 66.975 78.6 L 66.975 78.6 Z  M 50.288 78.3 C 50.003 78.1 49.745 78 49.715 78 C 49.685 78 49.522 78 49.354 78.1 C 49.187 78.2 49.013 78.3 48.97 78.3 C 48.861 78.3 47.236 77.3 47.204 77.3 C 47.175 77.2 47.27 76.9 47.33 76.8 C 47.351 76.8 47.804 77 48.337 77.2 C 48.869 77.4 49.334 77.6 49.369 77.6 C 49.404 77.6 49.586 77.5 49.772 77.4 C 49.959 77.3 50.141 77.2 50.176 77.2 C 50.271 77.2 51.138 78.1 51.138 78.1 C 51.138 78.2 50.905 78.6 50.848 78.6 C 50.825 78.6 50.573 78.5 50.288 78.3 L 50.288 78.3 Z  M 64.75 78 C 64.443 77.9 64.174 77.8 64.152 77.8 C 64.106 77.8 64.198 77.3 64.259 77.3 C 64.305 77.2 65.434 77.6 65.497 77.6 C 65.547 77.7 65.451 78 65.367 78 C 65.331 78.1 65.103 78.1 64.75 78 Z  M 106.38 76.7 C 106.26 76.3 106.17 75.9 106.19 75.9 L 106.35 75.9 C 106.44 75.9 106.57 76.1 106.83 76.5 C 107.02 76.7 107.18 77 107.18 77 C 107.19 77 106.72 77.4 106.66 77.4 C 106.63 77.4 106.51 77.1 106.38 76.7 Z  M 65.614 77.1 C 65.391 76.9 65.382 76.9 65.382 76.7 C 65.382 76.6 65.401 76.5 65.425 76.5 C 65.465 76.5 65.838 76.9 65.899 77.1 C 65.939 77.2 65.889 77.2 65.614 77.1 L 65.614 77.1 Z  M 45.638 76.7 C 45.576 76.6 45.236 75.9 45.236 75.8 C 45.236 75.7 45.366 75.8 45.942 76 C 46.253 76.1 46.5 76.2 46.491 76.2 C 46.475 76.3 45.784 76.7 45.717 76.7 L 45.638 76.7 Z  M 104.43 75.7 C 104.31 75.5 104.21 75.4 104.22 75.4 C 104.23 75.3 104.59 75.1 105.01 74.9 C 105.44 74.6 105.81 74.4 105.84 74.4 C 105.88 74.4 106.02 74 106.16 73.6 C 106.3 73.2 106.44 72.8 106.47 72.8 C 106.52 72.8 106.63 72.8 106.97 73 C 107.21 73.2 107.41 73.3 107.42 73.3 C 107.44 73.4 106.57 74.8 106.41 75 C 106.35 75.1 104.76 75.9 104.68 75.9 C 104.67 75.9 104.56 75.8 104.43 75.7 L 104.43 75.7 Z  M 82.033 74.5 C 81.976 74.5 81.915 74.4 81.898 74.4 C 81.865 74.4 82.063 74 82.127 74 C 82.171 74 82.233 74.2 82.282 74.4 C 82.311 74.5 82.303 74.5 82.227 74.5 L 82.033 74.5 L 82.033 74.5 Z  M 107.79 72.6 C 107.68 72.5 107.67 72.4 107.73 72.4 C 107.81 72.3 108.77 71.9 108.85 71.9 C 108.93 71.9 109.28 72.2 109.28 72.2 C 109.28 72.3 108.11 72.8 107.98 72.8 C 107.95 72.8 107.86 72.7 107.79 72.6 L 107.79 72.6 Z  M 77.73 71.2 C 77.592 71.1 77.48 70.9 77.48 70.9 C 77.48 70.8 77.868 70.2 77.933 70.2 C 77.965 70.2 78.106 70.3 78.245 70.5 C 78.428 70.7 78.486 70.8 78.456 70.9 C 78.389 71 78.061 71.4 78.019 71.4 C 77.998 71.4 77.868 71.3 77.73 71.2 Z  M 78.816 71.2 C 78.802 71.2 78.846 71 78.915 70.9 C 79.074 70.6 79.073 70.5 78.89 70.4 C 78.807 70.3 78.65 70.1 78.541 70 L 78.343 69.8 L 78.603 69.5 C 78.783 69.3 78.881 69.2 78.92 69.3 C 78.951 69.3 79.036 69.5 79.11 69.7 C 79.231 70 79.282 70 79.611 70.3 L 79.977 70.6 L 79.943 70.9 C 79.924 71.1 79.883 71.2 79.853 71.2 C 79.822 71.3 79.582 71.3 79.32 71.3 C 78.955 71.3 78.836 71.3 78.816 71.2 L 78.816 71.2 Z  M 44 68.7 C 43.948 68.7 43.961 65.7 44.013 65.7 C 44.039 65.7 44.791 66 45.684 66.3 L 47.309 67 L 47.489 67.2 C 47.588 67.4 47.671 67.5 47.672 67.6 L 46.443 67.6 C 45.267 67.6 45.201 67.6 44.98 67.7 C 44.852 67.7 44.748 67.8 44.748 67.8 C 44.748 67.8 44.861 68 44.999 68.1 C 45.138 68.2 45.238 68.4 45.224 68.4 C 45.21 68.4 44.957 68.5 44.644 68.6 C 44.033 68.8 44.046 68.8 44 68.7 L 44 68.7 Z  M 70.812 68.7 C 70.669 68.7 70.608 68.6 70.075 67.8 C 69.755 67.3 69.479 66.8 69.463 66.8 C 69.446 66.8 69.324 66.2 69.191 65.5 C 69.059 64.9 68.939 64.3 68.925 64.3 C 68.871 64.2 67.975 63.5 67.909 63.5 C 67.871 63.5 67.645 63.6 67.407 63.7 C 67.168 63.8 66.947 63.8 66.914 63.8 C 66.839 63.8 66.358 63.2 66.358 63.1 C 66.358 63 68.041 60.9 68.132 60.9 C 68.207 60.8 75.302 60 75.452 60 C 75.589 60 77.26 61.3 77.26 61.4 C 77.26 61.5 77.074 61.7 76.846 61.9 C 76.618 62.1 76.416 62.2 76.399 62.3 C 76.381 62.3 76.33 62.8 76.286 63.3 C 76.242 63.8 76.185 64.3 76.16 64.3 C 76.135 64.4 75.794 64.9 75.403 65.5 C 74.748 66.6 74.678 66.6 74.513 66.7 C 74.414 66.7 73.883 66.9 73.333 67.1 L 72.333 67.4 L 72.045 68.1 L 71.757 68.7 L 71.362 68.7 L 70.812 68.7 L 70.812 68.7 Z  M 75.752 67.9 C 75.517 67.5 75.354 67.2 75.377 67.2 C 75.442 67.2 76.907 66.8 76.965 66.8 C 77.103 66.9 77.626 67.4 77.626 67.5 C 77.626 67.5 76.392 68.4 76.241 68.5 C 76.19 68.5 76.046 68.3 75.752 67.9 L 75.752 67.9 Z " fill="rgb(0,0,0)"/><g id="Group"><g id="Group"><path d=" M 15.672 6.872 C 15.672 7.028 15.592 7.184 15.433 7.34 L 12.085 10.617 L 12.878 15.376 C 12.884 15.376 12.887 15.454 12.887 15.532 C 12.887 15.688 12.853 15.766 12.786 15.844 C 12.724 15.922 12.632 16 12.509 16 C 12.392 16 12.27 16 12.141 15.922 L 8 13.659 L 3.86 15.922 C 3.724 16 3.601 16 3.491 16 C 3.362 16 3.263 15.922 3.196 15.844 C 3.134 15.766 3.103 15.688 3.103 15.532 C 3.103 15.532 3.11 15.454 3.122 15.376 L 3.915 10.617 L 0.558 7.34 C 0.405 7.184 0.328 7.028 0.328 6.872 C 0.328 6.638 0.5 6.482 0.844 6.482 L 5.473 5.78 L 7.548 1.489 C 7.665 1.255 7.816 1.099 8 1.099 C 8.184 1.099 8.335 1.255 8.452 1.489 L 10.526 5.78 L 15.156 6.482 C 15.5 6.482 15.672 6.638 15.672 6.872 Z " fill="rgb(230,126,34)"/></g><g id="Group"><path d=" M 16 6.02 C 16 6.183 15.917 6.345 15.75 6.508 L 12.26 9.925 L 13.086 14.887 C 13.093 14.887 13.096 14.969 13.096 15.05 C 13.096 15.213 13.061 15.294 12.99 15.376 C 12.926 15.457 12.83 15.538 12.702 15.538 C 12.58 15.538 12.452 15.538 12.318 15.457 L 8 13.098 L 3.683 15.457 C 3.542 15.538 3.413 15.538 3.298 15.538 C 3.163 15.538 3.061 15.457 2.99 15.376 C 2.926 15.294 2.894 15.213 2.894 15.05 C 2.894 15.05 2.901 14.969 2.913 14.887 L 3.74 9.925 L 0.24 6.508 C 0.08 6.345 0 6.183 0 6.02 C 0 5.776 0.18 5.613 0.538 5.613 L 5.365 4.881 L 7.529 0.407 C 7.65 0.163 7.808 0 8 0 C 8.192 0 8.35 0.163 8.471 0.407 L 10.634 4.881 L 15.462 5.613 C 15.821 5.613 16 5.776 16 6.02 Z " fill="rgb(241,196,15)"/></g></g></g></svg>