<?xml version="1.0" standalone="no"?><!-- Generator: Gravit.io --><svg xmlns="http://www.w3.org/2000/svg" xmlns:xlink="http://www.w3.org/1999/xlink" style="isolation:isolate" viewBox="0 0 16 4" width="16" height="4"><defs><clipPath id="_clipPath_pdM6PL3FYTrfBtQdIAHkuEP7HVgRSjzw"><rect width="16" height="4"/></clipPath></defs><g clip-path="url(#_clipPath_pdM6PL3FYTrfBtQdIAHkuEP7HVgRSjzw)"><path d=" M 2 0 C 0.895 0 0 0.895 0 2 C 0 3.105 0.895 4 2 4 C 3.105 4 4 3.105 4 2 C 4 0.895 3.105 0 2 0 Z " fill="rgb(255,255,255)"/><path d=" M 8 0 C 6.895 0 6 0.895 6 2 C 6 3.105 6.895 4 8 4 C 9.105 4 10 3.105 10 2 C 10 0.895 9.105 0 8 0 Z " fill="rgb(255,255,255)"/><path d=" M 14 0 C 12.895 0 12 0.895 12 2 C 12 3.105 12.895 4 14 4 C 15.105 4 16 3.105 16 2 C 16 0.895 15.105 0 14 0 Z " fill="rgb(255,255,255)"/></g></svg>