<?xml version="1.0" encoding="UTF-8"?>
<svg width="24px" height="23px" viewBox="0 0 24 23" version="1.1" xmlns="http://www.w3.org/2000/svg" xmlns:xlink="http://www.w3.org/1999/xlink">
    <!-- Generator: Sketch 46.2 (44496) - http://www.bohemiancoding.com/sketch -->
    <title>bank</title>
    <desc>Created with Sketch.</desc>
    <defs></defs>
    <g id="icons" stroke="none" stroke-width="1" fill="none" fill-rule="evenodd">
        <g id="Artboard" transform="translate(-676.000000, -101.000000)" fill-rule="nonzero" fill="#FFFFFF">
            <path d="M700,104 L699,105 L699,104 L699.757464,104.970143 L688,102.030776 L676.242536,104.970143 L677,104 L677,105 L676,104 L679,104 L679,106 L697,106 L697,104 L700,104 Z M698,105 L698,107 L678,107 L678,105 L676,105 L676,104 L688,101 L700,104 L700,105 L698,105 Z M692.447353,108.894705 C692.200287,108.400573 692.450975,108 692.990778,108 L697.009222,108 C697.556414,108 697.797635,108.40473 697.552647,108.894705 L697.447353,109.105295 C697.200287,109.599427 697,110.437881 697,111.002929 L697,115.997071 C697,116.550973 697.202365,117.40473 697.447353,117.894705 L697.552647,118.105295 C697.799713,118.599427 697.549025,119 697.009222,119 L692.990778,119 C692.443586,119 692.202365,118.59527 692.447353,118.105295 L692.552647,117.894705 C692.799713,117.400573 693,116.562119 693,115.997071 L693,111.002929 C693,110.449027 692.797635,109.59527 692.552647,109.105295 L692.447353,108.894705 Z M694,111.002929 L694,115.997071 C694,116.595229 693.83643,117.385166 693.597356,118 L696.40312,118 C696.165405,117.385589 696,116.587181 696,115.997071 L696,111.002929 C696,110.404771 696.16357,109.614834 696.402644,109 L693.59688,109 C693.834595,109.614411 694,110.412819 694,111.002929 Z M685.447353,108.894705 C685.200287,108.400573 685.450975,108 685.990778,108 L690.009222,108 C690.556414,108 690.797635,108.40473 690.552647,108.894705 L690.447353,109.105295 C690.200287,109.599427 690,110.437881 690,111.002929 L690,115.997071 C690,116.550973 690.202365,117.40473 690.447353,117.894705 L690.552647,118.105295 C690.799713,118.599427 690.549025,119 690.009222,119 L685.990778,119 C685.443586,119 685.202365,118.59527 685.447353,118.105295 L685.552647,117.894705 C685.799713,117.400573 686,116.562119 686,115.997071 L686,111.002929 C686,110.449027 685.797635,109.59527 685.552647,109.105295 L685.447353,108.894705 Z M687,111.002929 L687,115.997071 C687,116.595229 686.83643,117.385166 686.597356,118 L689.40312,118 C689.165405,117.385589 689,116.587181 689,115.997071 L689,111.002929 C689,110.404771 689.16357,109.614834 689.402644,109 L686.59688,109 C686.834595,109.614411 687,110.412819 687,111.002929 Z M678.447353,108.894705 C678.200287,108.400573 678.450975,108 678.990778,108 L683.009222,108 C683.556414,108 683.797635,108.40473 683.552647,108.894705 L683.447353,109.105295 C683.200287,109.599427 683,110.437881 683,111.002929 L683,115.997071 C683,116.550973 683.202365,117.40473 683.447353,117.894705 L683.552647,118.105295 C683.799713,118.599427 683.549025,119 683.009222,119 L678.990778,119 C678.443586,119 678.202365,118.59527 678.447353,118.105295 L678.552647,117.894705 C678.799713,117.400573 679,116.562119 679,115.997071 L679,111.002929 C679,110.449027 678.797635,109.59527 678.552647,109.105295 L678.447353,108.894705 Z M680,111.002929 L680,115.997071 C680,116.595229 679.83643,117.385166 679.597356,118 L682.40312,118 C682.165405,117.385589 682,116.587181 682,115.997071 L682,111.002929 C682,110.404771 682.16357,109.614834 682.402644,109 L679.59688,109 C679.834595,109.614411 680,110.412819 680,111.002929 Z M676,122 C676,120.895431 676.897026,120 678.004947,120 L697.995053,120 C699.102355,120 700,120.88773 700,122 L700,124 L676,124 L676,122 Z M699,123 L699,122 C699,121.443826 698.553889,121 697.995053,121 L678.004947,121 C677.44902,121 677,121.448008 677,122 L677,123 L699,123 Z" id="bank"></path>
        </g>
    </g>
</svg>