<?xml version="1.0" encoding="UTF-8"?>
<svg width="24px" height="18px" viewBox="0 0 24 18" version="1.1" xmlns="http://www.w3.org/2000/svg" xmlns:xlink="http://www.w3.org/1999/xlink">
    <!-- Generator: Sketch 46.2 (44496) - http://www.bohemiancoding.com/sketch -->
    <title>basket</title>
    <desc>Created with Sketch.</desc>
    <defs></defs>
    <g id="icons" stroke="none" stroke-width="1" fill="none" fill-rule="evenodd">
        <g id="Artboard" transform="translate(-268.000000, -103.000000)" fill-rule="nonzero" fill="#FFFFFF">
            <path d="M289.499136,109 L270.500864,109 C269.740848,109 269.366681,109.518906 269.608154,110.243322 L272.34053,118.44045 C272.624231,119.291553 273.60455,120 274.491884,120 L285.508116,120 C286.391529,120 287.377529,119.286274 287.65947,118.44045 L290.391846,110.243322 C290.635546,109.512223 290.26581,109 289.499136,109 Z M289.499136,108 C290.948011,108 291.800186,109.180581 291.34053,110.55955 L288.608154,118.756678 C288.190357,120.010068 286.822782,121 285.508116,121 L274.491884,121 C273.173613,121 271.811502,120.015644 271.391846,118.756678 L268.65947,110.55955 C268.202122,109.187504 269.058394,108 270.500864,108 L289.499136,108 Z M275,115 C276.104569,115 277,114.104569 277,113 C277,111.895431 276.104569,111 275,111 C273.895431,111 273,111.895431 273,113 C273,114.104569 273.895431,115 275,115 Z M275,114 C274.447715,114 274,113.552285 274,113 C274,112.447715 274.447715,112 275,112 C275.552285,112 276,112.447715 276,113 C276,113.552285 275.552285,114 275,114 Z M285,115 C286.104569,115 287,114.104569 287,113 C287,111.895431 286.104569,111 285,111 C283.895431,111 283,111.895431 283,113 C283,114.104569 283.895431,115 285,115 Z M285,114 C284.447715,114 284,113.552285 284,113 C284,112.447715 284.447715,112 285,112 C285.552285,112 286,112.447715 286,113 C286,113.552285 285.552285,114 285,114 Z M285,108 L284,108 C284,105.790861 282.209139,104 280,104 C277.790861,104 276,105.790861 276,108 L275,108 C275,105.238576 277.238576,103 280,103 C282.761424,103 285,105.238576 285,108 Z" id="basket"></path>
        </g>
    </g>
</svg>