<?xml version="1.0" encoding="UTF-8"?>
<svg width="24px" height="16px" viewBox="0 0 24 16" version="1.1" xmlns="http://www.w3.org/2000/svg" xmlns:xlink="http://www.w3.org/1999/xlink">
    <!-- Generator: Sketch 46.2 (44496) - http://www.bohemiancoding.com/sketch -->
    <title>card</title>
    <desc>Created with Sketch.</desc>
    <defs></defs>
    <g id="icons" stroke="none" stroke-width="1" fill="none" fill-rule="evenodd">
        <g id="Artboard" transform="translate(-115.000000, -104.000000)" fill-rule="nonzero" fill="#FFFFFF">
            <path d="M116,105.99406 L116,118.00594 C116,118.552717 116.449454,119 117.004947,119 L136.995053,119 C137.551643,119 138,118.553982 138,118.00594 L138,105.99406 C138,105.447283 137.550546,105 136.995053,105 L117.004947,105 C116.448357,105 116,105.446018 116,105.99406 Z M115,105.99406 C115,104.892771 115.897026,104 117.004947,104 L136.995053,104 C138.102355,104 139,104.894514 139,105.99406 L139,118.00594 C139,119.107229 138.102974,120 136.995053,120 L117.004947,120 C115.897645,120 115,119.105486 115,118.00594 L115,105.99406 Z M118.990778,110 L118.997994,110 C118.996296,110.001402 118.99368,110 118.990778,110 Z M123.009222,110 L118.997994,110 C118.999247,109.998966 119,109.996406 119,109.990631 L119,108.009369 C119,108.003792 119.003742,108 118.990778,108 L123.002006,108 C123.000753,108.001034 123,108.003594 123,108.009369 L123,109.990631 C123,109.996208 122.996258,110 123.009222,110 Z M118,108.009369 L118,109.990631 C118,110.556647 118.443586,111 118.990778,111 L123.009222,111 C123.549025,111 124,110.54809 124,109.990631 L124,108.009369 C124,107.443353 123.556414,107 123.009222,107 L118.990778,107 C118.450975,107 118,107.45191 118,108.009369 Z" id="card"></path>
        </g>
    </g>
</svg>