<?xml version="1.0" encoding="UTF-8"?>
<svg width="25px" height="23px" viewBox="0 0 25 23" version="1.1" xmlns="http://www.w3.org/2000/svg" xmlns:xlink="http://www.w3.org/1999/xlink">
    <!-- Generator: Sketch 46.2 (44496) - http://www.bohemiancoding.com/sketch -->
    <title>cards</title>
    <desc>Created with Sketch.</desc>
    <defs></defs>
    <g id="icons" stroke="none" stroke-width="1" fill="none" fill-rule="evenodd">
        <g id="Artboard" transform="translate(-217.000000, -102.000000)" fill-rule="nonzero" fill="#FFFFFF">
            <path d="M241,115 L241,114.50853 C241,113.67658 240.326928,113 239.500028,113 L237,113 L237,112 L239.500028,112 C240.88038,112 242,113.125455 242,114.50853 L242,122.49147 C242,123.876332 240.884087,125 239.504911,125 L225.495089,125 C224.117626,125 223,123.883095 223,122.507128 L223,116 L224,116 L224,118 L241,118 L241,116 L237,116 L237,115 L241,115 Z M241,119 L224,119 L224,122.507128 C224,123.330666 224.669767,124 225.495089,124 L239.504911,124 C240.330246,124 241,123.325592 241,122.49147 L241,119 Z M217,104.50853 C217,103.123668 218.115913,102 219.495089,102 L233.504911,102 C234.882844,102 236,103.125727 236,104.50853 L236,112.49147 C236,113.876332 234.884087,115 233.504911,115 L219.495089,115 C218.117156,115 217,113.874273 217,112.49147 L217,104.50853 Z M218,104.50853 L218,112.49147 C218,113.323692 218.671159,114 219.495089,114 L233.504911,114 C234.330246,114 235,113.325592 235,112.49147 L235,104.50853 C235,103.676308 234.328841,103 233.504911,103 L219.495089,103 C218.669754,103 218,103.674408 218,104.50853 Z M220,106 L220,105 L223,105 L223,106 L220,106 Z" id="cards"></path>
        </g>
    </g>
</svg>