<?xml version="1.0" encoding="UTF-8"?>
<svg width="24px" height="18px" viewBox="0 0 24 18" version="1.1" xmlns="http://www.w3.org/2000/svg" xmlns:xlink="http://www.w3.org/1999/xlink">
    <!-- Generator: Sketch 46.2 (44496) - http://www.bohemiancoding.com/sketch -->
    <title>cart-3</title>
    <desc>Created with Sketch.</desc>
    <defs></defs>
    <g id="icons" stroke="none" stroke-width="1" fill="none" fill-rule="evenodd">
        <g id="Artboard" transform="translate(-421.000000, -105.000000)" fill-rule="nonzero" fill="#FFFFFF">
            <path d="M444.035762,105.314305 L444.964238,105.685695 L441.333379,114.762844 C441.053436,115.462701 440.259237,116 439.504423,116 L430.495577,116 C429.758953,116 428.936451,115.490936 428.60907,114.836174 L424.496503,106.61104 C424.33836,106.294754 423.85805,106 423.506402,106 L421,106 L421,105 L423.506402,105 C424.235605,105 425.062845,105.507656 425.39093,106.163826 L429.503497,114.38896 C429.661597,114.70516 430.137974,115 430.495577,115 L439.504423,115 C439.850469,115 440.276874,114.711525 440.404902,114.391453 L444.035762,105.314305 Z M430.5,123 C429.119288,123 428,121.880712 428,120.5 C428,119.119288 429.119288,118 430.5,118 C431.880712,118 433,119.119288 433,120.5 C433,121.880712 431.880712,123 430.5,123 Z M430.5,122 C431.328427,122 432,121.328427 432,120.5 C432,119.671573 431.328427,119 430.5,119 C429.671573,119 429,119.671573 429,120.5 C429,121.328427 429.671573,122 430.5,122 Z M439.5,123 C438.119288,123 437,121.880712 437,120.5 C437,119.119288 438.119288,118 439.5,118 C440.880712,118 442,119.119288 442,120.5 C442,121.880712 440.880712,123 439.5,123 Z M439.5,122 C440.328427,122 441,121.328427 441,120.5 C441,119.671573 440.328427,119 439.5,119 C438.671573,119 438,119.671573 438,120.5 C438,121.328427 438.671573,122 439.5,122 Z" id="cart-3"></path>
        </g>
    </g>
</svg>