<?xml version="1.0" encoding="UTF-8"?>
<svg width="24px" height="23px" viewBox="0 0 24 23" version="1.1" xmlns="http://www.w3.org/2000/svg" xmlns:xlink="http://www.w3.org/1999/xlink">
    <!-- Generator: Sketch 46.2 (44496) - http://www.bohemiancoding.com/sketch -->
    <title>cart</title>
    <desc>Created with Sketch.</desc>
    <defs></defs>
    <g id="icons" stroke="none" stroke-width="1" fill="none" fill-rule="evenodd">
        <g id="Artboard" transform="translate(-319.000000, -101.000000)" fill-rule="nonzero" fill="#FFFFFF">
            <path d="M331.275254,115.544355 L338.674126,117.734135 C339.268408,117.910019 339.7586,118.439059 339.932339,119.037247 C341.106999,119.242033 342,120.266731 342,121.5 C342,122.880712 340.880712,124 339.5,124 C338.119288,124 337,122.880712 337,121.5 C337,120.338701 337.791815,119.36234 338.865009,119.081355 C338.750517,118.899799 338.575719,118.747887 338.390333,118.69302 L328.700856,115.82531 L325.595822,118.270517 C325.382206,118.438738 325.185591,118.755055 325.079152,119.067425 C326.180606,119.32868 327,120.31865 327,121.5 C327,122.880712 325.880712,124 324.5,124 C323.119288,124 322,122.880712 322,121.5 C322,120.272892 322.8841,119.252276 324.050076,119.040377 C324.180545,118.447198 324.535675,117.832528 324.977135,117.484879 L327.897188,115.185345 C327.795198,115.062645 327.710057,114.926095 327.646751,114.778381 L322.434104,102.615539 C322.297273,102.296266 321.847007,102 321.506402,102 L319,102 L319,101 L321.506402,101 C322.246648,101 323.058686,101.534306 323.353249,102.221619 L328.565896,114.384461 C328.694566,114.684693 329.081864,114.896126 329.399811,114.843135 L339.43579,113.170471 C339.780829,113.112965 340.171391,112.752884 340.256175,112.413745 L341.773682,106.343719 C341.828085,106.126108 341.728753,106 341.50004,106 L324.5,106 L324.5,105 L341.50004,105 C342.377232,105 342.956526,105.735451 342.743825,106.586255 L341.226318,112.656281 C341.04491,113.381914 340.337679,114.03395 339.600189,114.156865 L331.275254,115.544355 Z M324.5,123 C325.328427,123 326,122.328427 326,121.5 C326,120.671573 325.328427,120 324.5,120 C323.671573,120 323,120.671573 323,121.5 C323,122.328427 323.671573,123 324.5,123 Z M339.5,123 C340.328427,123 341,122.328427 341,121.5 C341,120.671573 340.328427,120 339.5,120 C338.671573,120 338,120.671573 338,121.5 C338,122.328427 338.671573,123 339.5,123 Z" id="cart"></path>
        </g>
    </g>
</svg>