<?xml version="1.0" encoding="UTF-8"?>
<svg width="24px" height="21px" viewBox="0 0 24 21" version="1.1" xmlns="http://www.w3.org/2000/svg" xmlns:xlink="http://www.w3.org/1999/xlink">
    <!-- Generator: Sketch 46.2 (44496) - http://www.bohemiancoding.com/sketch -->
    <title>cart-2</title>
    <desc>Created with Sketch.</desc>
    <defs></defs>
    <g id="icons" stroke="none" stroke-width="1" fill="none" fill-rule="evenodd">
        <g id="Artboard" transform="translate(-369.000000, -102.000000)" fill-rule="nonzero" fill="#FFFFFF">
            <path d="M378.94071,121.043701 C378.692483,122.162978 377.69399,123 376.5,123 C375.119288,123 374,121.880712 374,120.5 C374,119.359723 374.763407,118.39775 375.807007,118.097295 L372.89955,104.566958 C372.716823,103.716612 371.832108,103 370.962979,103 L369.858274,103 L369.858274,102 L370.962979,102 C372.303947,102 373.595594,103.046222 373.877232,104.35687 L374.015431,105 L391.50004,105 C392.374002,105 392.960623,105.732081 392.770251,106.588756 L391.205936,113.628175 C391.039973,114.375008 390.338885,115.027818 389.579872,115.135349 L376.588845,116.975809 L376.8131,118.019417 C377.895294,118.15463 378.762566,118.981545 378.958455,120.043701 L386.041545,120.043701 C386.255999,118.880879 387.275129,118 388.5,118 C389.880712,118 391,119.119288 391,120.5 C391,121.880712 389.880712,123 388.5,123 C387.30601,123 386.307517,122.162978 386.05929,121.043701 L378.94071,121.043701 Z M376.378227,115.995662 L389.439602,114.145236 C389.784802,114.09633 390.153876,113.752671 390.229749,113.411244 L391.794064,106.371825 C391.845711,106.139414 391.733998,106 391.50004,106 L374.230315,106 L376.378227,115.995662 Z M376.5,122 C377.328427,122 378,121.328427 378,120.5 C378,119.671573 377.328427,119 376.5,119 C375.671573,119 375,119.671573 375,120.5 C375,121.328427 375.671573,122 376.5,122 Z M388.5,122 C389.328427,122 390,121.328427 390,120.5 C390,119.671573 389.328427,119 388.5,119 C387.671573,119 387,119.671573 387,120.5 C387,121.328427 387.671573,122 388.5,122 Z" id="cart-2"></path>
        </g>
    </g>
</svg>