<?xml version="1.0" encoding="UTF-8"?>
<svg width="23px" height="23px" viewBox="0 0 23 23" version="1.1" xmlns="http://www.w3.org/2000/svg" xmlns:xlink="http://www.w3.org/1999/xlink">
    <!-- Generator: Sketch 46.2 (44496) - http://www.bohemiancoding.com/sketch -->
    <title>label</title>
    <desc>Created with Sketch.</desc>
    <defs></defs>
    <g id="icons" stroke="none" stroke-width="1" fill="none" fill-rule="evenodd">
        <g id="Artboard" transform="translate(-829.000000, -101.000000)" fill-rule="nonzero" fill="#FFFFFF">
            <path d="M849.083613,105.837524 C848.70819,105.311931 848.102049,105 847.456146,105 L833,105 C831.895431,105 831,105.895431 831,107 L831,115 C831,116.104569 831.895431,117 833,117 L847.456146,117 C848.102049,117 848.70819,116.688069 849.083613,116.162476 L852.771096,111 L849.083613,105.837524 Z M833,104 L847.456146,104 C848.425,104 849.334212,104.467897 849.897347,105.256285 L854,111 L849.897347,116.743715 C849.334212,117.532103 848.425,118 847.456146,118 L833,118 C831.343146,118 830,116.656854 830,115 L830,107 C830,105.343146 831.343146,104 833,104 Z M847,112 C846.447715,112 846,111.552285 846,111 C846,110.447715 846.447715,110 847,110 C847.552285,110 848,110.447715 848,111 C848,111.552285 847.552285,112 847,112 Z M847,113 C848.104569,113 849,112.104569 849,111 C849,109.895431 848.104569,109 847,109 C845.895431,109 845,109.895431 845,111 C845,112.104569 845.895431,113 847,113 Z" id="label" transform="translate(842.000000, 111.000000) rotate(-45.000000) translate(-842.000000, -111.000000) "></path>
        </g>
    </g>
</svg>