<?xml version="1.0" encoding="UTF-8"?>
<svg width="22px" height="22px" viewBox="0 0 22 22" version="1.1" xmlns="http://www.w3.org/2000/svg" xmlns:xlink="http://www.w3.org/1999/xlink">
    <!-- Generator: Sketch 46.2 (44496) - http://www.bohemiancoding.com/sketch -->
    <title>offer</title>
    <desc>Created with Sketch.</desc>
    <defs></defs>
    <g id="icons" stroke="none" stroke-width="1" fill="none" fill-rule="evenodd">
        <g id="Artboard" transform="translate(-473.000000, -101.000000)" fill-rule="nonzero" fill="#FFFFFF">
            <path d="M483.268745,122.74398 L482.967849,122.868578 C482.271748,123.156828 481.32694,122.968715 480.794359,122.436244 L480.564049,122.205982 C480.268023,121.910018 479.631262,121.646347 479.212865,121.646304 L478.887192,121.64627 C478.13377,121.646191 477.332869,121.110835 477.044596,120.415087 L476.919935,120.114216 C476.759703,119.727497 476.272315,119.240219 475.885784,119.080065 L475.584913,118.955404 C474.888872,118.66701 474.353809,117.865914 474.35373,117.112808 L474.353696,116.787135 C474.353653,116.368534 474.089838,115.731833 473.794018,115.435951 L473.563756,115.205641 C473.031062,114.672836 472.843293,113.72796 473.131422,113.032151 L473.25602,112.731255 C473.416171,112.344502 473.416093,111.655309 473.25602,111.268745 L473.131422,110.967849 C472.843172,110.271748 473.031285,109.32694 473.563756,108.794359 L473.794018,108.564049 C474.089982,108.268023 474.353653,107.631262 474.353696,107.212865 L474.35373,106.887192 C474.353809,106.13377 474.889165,105.332869 475.584913,105.044596 L475.885784,104.919935 C476.272503,104.759703 476.759781,104.272315 476.919935,103.885784 L477.044596,103.584913 C477.33299,102.888872 478.134086,102.353809 478.887192,102.35373 L479.212865,102.353696 C479.631466,102.353653 480.268167,102.089838 480.564049,101.794018 L480.794359,101.563756 C481.327164,101.031062 482.27204,100.843293 482.967849,101.131422 L483.268745,101.25602 C483.655498,101.416171 484.344691,101.416093 484.731255,101.25602 L485.032151,101.131422 C485.728252,100.843172 486.67306,101.031285 487.205641,101.563756 L487.435951,101.794018 C487.731977,102.089982 488.368738,102.353653 488.787135,102.353696 L489.112808,102.35373 C489.86623,102.353809 490.667131,102.889165 490.955404,103.584913 L491.080065,103.885784 C491.240297,104.272503 491.727685,104.759781 492.114216,104.919935 L492.415087,105.044596 C493.111128,105.33299 493.646191,106.134086 493.64627,106.887192 L493.646304,107.212865 C493.646347,107.631466 493.910162,108.268167 494.205982,108.564049 L494.436244,108.794359 C494.968938,109.327164 495.156707,110.27204 494.868578,110.967849 L494.74398,111.268745 C494.583829,111.655498 494.583907,112.344691 494.74398,112.731255 L494.868578,113.032151 C495.156828,113.728252 494.968715,114.67306 494.436244,115.205641 L494.205982,115.435951 C493.910018,115.731977 493.646347,116.368738 493.646304,116.787135 L493.64627,117.112808 C493.646191,117.86623 493.110835,118.667131 492.415087,118.955404 L492.114216,119.080065 C491.727497,119.240297 491.240219,119.727685 491.080065,120.114216 L490.955404,120.415087 C490.66701,121.111128 489.865914,121.646191 489.112808,121.64627 L488.787135,121.646304 C488.368534,121.646347 487.731833,121.910162 487.435951,122.205982 L487.205641,122.436244 C486.672836,122.968938 485.72796,123.156707 485.032151,122.868578 L484.731255,122.74398 C484.344502,122.583829 483.655309,122.583907 483.268745,122.74398 Z M485.414738,121.944659 C485.736993,122.078102 486.251828,121.975792 486.498608,121.729064 L486.728918,121.498802 C487.212276,121.015545 488.103245,120.646375 488.78703,120.646304 L489.112704,120.64627 C489.461495,120.646233 489.897988,120.354693 490.031565,120.032307 L490.156226,119.731437 C490.417856,119.099992 491.099729,118.417965 491.731437,118.156226 L492.032307,118.031565 C492.354534,117.898054 492.646233,117.461667 492.64627,117.112704 L492.646304,116.78703 C492.646375,116.103531 493.015343,115.212478 493.498802,114.728918 L493.729064,114.498608 C493.97567,114.25195 494.078168,113.737153 493.944659,113.414738 L493.82006,113.113842 C493.558562,112.482343 493.558453,111.51792 493.82006,110.886158 L493.944659,110.585262 C494.078102,110.263007 493.975792,109.748172 493.729064,109.501392 L493.498802,109.271082 C493.015545,108.787724 492.646375,107.896755 492.646304,107.21297 L492.64627,106.887296 C492.646233,106.538505 492.354693,106.102012 492.032307,105.968435 L491.731437,105.843774 C491.099992,105.582144 490.417965,104.900271 490.156226,104.268563 L490.031565,103.967693 C489.898054,103.645466 489.461667,103.353767 489.112704,103.35373 L488.78703,103.353696 C488.103531,103.353625 487.212478,102.984657 486.728918,102.501198 L486.498608,102.270936 C486.25195,102.02433 485.737153,101.921832 485.414738,102.055341 L485.113842,102.17994 C484.482343,102.441438 483.51792,102.441547 482.886158,102.17994 L482.585262,102.055341 C482.263007,101.921898 481.748172,102.024208 481.501392,102.270936 L481.271082,102.501198 C480.787724,102.984455 479.896755,103.353625 479.21297,103.353696 L478.887296,103.35373 C478.538505,103.353767 478.102012,103.645307 477.968435,103.967693 L477.843774,104.268563 C477.582144,104.900008 476.900271,105.582035 476.268563,105.843774 L475.967693,105.968435 C475.645466,106.101946 475.353767,106.538333 475.35373,106.887296 L475.353696,107.21297 C475.353625,107.896469 474.984657,108.787522 474.501198,109.271082 L474.270936,109.501392 C474.02433,109.74805 473.921832,110.262847 474.055341,110.585262 L474.17994,110.886158 C474.441438,111.517657 474.441547,112.48208 474.17994,113.113842 L474.055341,113.414738 C473.921898,113.736993 474.024208,114.251828 474.270936,114.498608 L474.501198,114.728918 C474.984455,115.212276 475.353625,116.103245 475.353696,116.78703 L475.35373,117.112704 C475.353767,117.461495 475.645307,117.897988 475.967693,118.031565 L476.268563,118.156226 C476.900008,118.417856 477.582035,119.099729 477.843774,119.731437 L477.968435,120.032307 C478.101946,120.354534 478.538333,120.646233 478.887296,120.64627 L479.21297,120.646304 C479.896469,120.646375 480.787522,121.015343 481.271082,121.498802 L481.501392,121.729064 C481.74805,121.97567 482.262847,122.078168 482.585262,121.944659 L482.886158,121.82006 C483.517657,121.558562 484.48208,121.558453 485.113842,121.82006 L485.414738,121.944659 Z M479.353571,117.353536 L478.646429,116.646464 L488.645453,106.646464 L489.352594,107.353536 L479.353571,117.353536 Z M481,111 C479.895431,111 479,110.104569 479,109 C479,107.895431 479.895431,107 481,107 C482.104569,107 483,107.895431 483,109 C483,110.104569 482.104569,111 481,111 Z M481,110 C481.552285,110 482,109.552285 482,109 C482,108.447715 481.552285,108 481,108 C480.447715,108 480,108.447715 480,109 C480,109.552285 480.447715,110 481,110 Z M487,117 C485.895431,117 485,116.104569 485,115 C485,113.895431 485.895431,113 487,113 C488.104569,113 489,113.895431 489,115 C489,116.104569 488.104569,117 487,117 Z M487,116 C487.552285,116 488,115.552285 488,115 C488,114.447715 487.552285,114 487,114 C486.447715,114 486,114.447715 486,115 C486,115.552285 486.447715,116 487,116 Z" id="offer"></path>
        </g>
    </g>
</svg>