<?xml version="1.0" encoding="UTF-8"?>
<svg width="24px" height="18px" viewBox="0 0 24 18" version="1.1" xmlns="http://www.w3.org/2000/svg" xmlns:xlink="http://www.w3.org/1999/xlink">
    <!-- Generator: Sketch 46.2 (44496) - http://www.bohemiancoding.com/sketch -->
    <title>safe-payment</title>
    <desc>Created with Sketch.</desc>
    <defs></defs>
    <g id="icons" stroke="none" stroke-width="1" fill="none" fill-rule="evenodd">
        <g id="Artboard" transform="translate(-727.000000, -104.000000)" fill-rule="nonzero" fill="#FFFFFF">
            <path d="M745.003304,117 L745.003304,116 C745.003304,114.895431 745.889569,114 747.000004,114 C748.102751,114 748.996703,114.895911 748.996703,116.001185 L748.996703,117 L750.00297,117 C750.553614,117 751,117.443717 751,117.999807 L751,121.000193 C751,121.552371 750.546964,122 750.00297,122 L743.99703,122 C743.446386,122 743,121.556283 743,121.000193 L743,117.999807 C743,117.447629 743.453036,117 743.99703,117 L745.003304,117 Z M746.003304,117 L747.996703,117 L747.996703,116.001185 C747.996703,115.447715 747.549984,115 747.000004,115 C746.445477,115 746.003304,115.444085 746.003304,116 L746.003304,117 Z M750,111 L728,111 L728,118.00594 C728,118.552614 728.449761,119 729.005859,119 L741,119 L741,120 L729.005859,120 C727.898054,120 727,119.105486 727,118.00594 L727,105.99406 C727,104.892771 727.897026,104 729.004947,104 L748.995053,104 C750.102355,104 751,104.897026 751,106.004947 L751,114.995053 L750,114.995053 L750,111 Z M750,107 L750,106.004947 C750,105.449572 749.550332,105 748.995053,105 L729.004947,105 C728.448357,105 728,105.446018 728,105.99406 L728,107 L750,107 Z M728,108 L728,110 L750,110 L750,108 L728,108 Z M744,121 L749.999996,121 L750,118 L743.99703,118 C743.999011,117.999959 744.000001,118.999959 744,121 Z" id="safe-payment"></path>
        </g>
    </g>
</svg>