<?xml version="1.0" encoding="UTF-8"?>
<svg width="20px" height="22px" viewBox="0 0 20 22" version="1.1" xmlns="http://www.w3.org/2000/svg" xmlns:xlink="http://www.w3.org/1999/xlink">
    <!-- Generator: Sketch 46.2 (44496) - http://www.bohemiancoding.com/sketch -->
    <title>verified</title>
    <desc>Created with Sketch.</desc>
    <defs></defs>
    <g id="icons" stroke="none" stroke-width="1" fill="none" fill-rule="evenodd">
        <g id="Artboard" transform="translate(-780.000000, -101.000000)" fill-rule="nonzero" fill="#FFFFFF">
            <path d="M791.053817,102.798481 L790,102.16619 L788.946183,102.798481 C786.893272,104.030227 783.40673,105.996445 781.013009,105.99999 C781.159985,111.58358 782.545124,115.776347 784.798402,118.630334 C786.509113,120.797108 788.658228,122 790,122 C791.341772,122 793.490887,120.797108 795.201598,118.630334 C797.454876,115.776347 798.840015,111.58358 798.987153,105.99999 C796.596981,105.996471 793.100744,104.026637 791.053817,102.798481 Z M780,105 L780.999807,105 C783.209053,105 786.527333,103.0836 788.431687,101.940988 L790,101 L791.568313,101.940988 C793.463581,103.078149 796.790992,105 799.000193,105 L800,105 C800,119 792.630569,123 790,123 C787.369431,123 780,119 780,105 Z M787.466922,111.86024 L786.738644,112.545522 L789.626956,115.615051 L794.403861,108.378228 L793.569284,107.827338 L789.488853,114.00903 L787.466922,111.86024 Z" id="verified"></path>
        </g>
    </g>
</svg>