<?xml version="1.0" encoding="UTF-8"?>
<svg width="25px" height="23px" viewBox="0 0 25 23" version="1.1" xmlns="http://www.w3.org/2000/svg" xmlns:xlink="http://www.w3.org/1999/xlink">
    <!-- Generator: Sketch 46.2 (44496) - http://www.bohemiancoding.com/sketch -->
    <title>wallet</title>
    <desc>Created with Sketch.</desc>
    <defs></defs>
    <g id="icons" stroke="none" stroke-width="1" fill="none" fill-rule="evenodd">
        <g id="Artboard" transform="translate(-624.000000, -101.000000)" fill-rule="nonzero" fill="#FFFFFF">
            <path d="M643.037288,109 L645,109 L645,103.504787 C645,102.703389 644.386811,102.172572 643.601758,102.29033 L627.546582,104.698606 C626.701101,104.825429 626,105.642323 626,106.504882 L626,107.495118 C626,108.327702 626.667279,109 627.491155,109 L643.037288,109 Z M646,109 L646.49714,109 C647.877448,109 648.995053,110.121666 648.995053,111.505859 L648.995053,121.494141 C648.995053,122.876027 647.87163,124 646.494189,124 L627.495918,124 C626.116645,124 624.995053,122.881258 624.995053,121.507476 L624.995053,107.250363 L625,107.250363 L625,106.504882 C625,105.148043 626.062529,103.910027 627.398242,103.70967 L643.453418,101.301394 C644.844279,101.092764 646,102.093233 646,103.504787 L646,109 Z M625.995053,109.498735 L625.995053,121.507476 C625.995053,122.328403 626.668361,123 627.495918,123 L646.494189,123 C647.319236,123 647.995053,122.323851 647.995053,121.494141 L647.995053,111.505859 C647.995053,110.67314 647.32435,110 646.49714,110 L643.037288,110 L627.491155,110 C626.929277,110 626.411389,109.813468 625.995053,109.498735 Z M644.5,119 C643.119288,119 642,117.880712 642,116.5 C642,115.119288 643.119288,114 644.5,114 C645.880712,114 647,115.119288 647,116.5 C647,117.880712 645.880712,119 644.5,119 Z M644.5,118 C645.328427,118 646,117.328427 646,116.5 C646,115.671573 645.328427,115 644.5,115 C643.671573,115 643,115.671573 643,116.5 C643,117.328427 643.671573,118 644.5,118 Z" id="wallet"></path>
        </g>
    </g>
</svg>