<?xml version="1.0" encoding="UTF-8"?>
<svg width="21px" height="15px" viewBox="0 0 21 15" version="1.1" xmlns="http://www.w3.org/2000/svg" xmlns:xlink="http://www.w3.org/1999/xlink">
    <!-- Generator: Sketch 46.2 (44496) - http://www.bohemiancoding.com/sketch -->
    <title>activity</title>
    <desc>Created with Sketch.</desc>
    <defs></defs>
    <g id="icons" stroke="none" stroke-width="1" fill="none" fill-rule="evenodd">
        <g id="Artboard" transform="translate(-882.000000, -206.000000)" fill-rule="nonzero" fill="#FFFFFF">
            <path d="M900.400605,207.931821 L901.655879,211.070005 L902.584356,210.698614 L901.329082,207.56043 C900.730956,206.065116 899.552316,206.173804 899.237629,207.74724 L897.022024,218.825264 C897.009589,218.887441 896.996358,218.944795 896.982606,218.997059 C896.960736,218.946003 896.938645,218.88958 896.916666,218.828039 L893.26531,208.604244 C892.733244,207.114459 891.51657,207.121199 891.025238,208.623385 L888.3539,216.790661 C888.156407,217.394473 888.115275,217.396621 887.854744,216.809982 L886.388772,213.509054 C885.785066,212.14969 884.415529,212.014141 883.552748,213.232605 L882.591941,214.589508 L883.408059,215.167393 L884.368867,213.81049 C884.783559,213.22484 885.18606,213.264677 885.474846,213.914937 L886.940818,217.215864 C887.573419,218.64029 888.822391,218.575068 889.304352,217.101534 L891.97569,208.934257 C892.169057,208.343062 892.110285,208.343388 892.323568,208.94058 L895.974924,219.164376 C896.517635,220.683966 897.685049,220.60916 898.002605,219.02138 L900.21821,207.943356 C900.238391,207.84245 900.260997,207.754302 900.284785,207.680046 C900.322427,207.749895 900.361524,207.834117 900.400605,207.931821 Z" id="activity"></path>
        </g>
    </g>
</svg>