<?xml version="1.0" encoding="UTF-8"?>
<svg width="19px" height="17px" viewBox="0 0 19 17" version="1.1" xmlns="http://www.w3.org/2000/svg" xmlns:xlink="http://www.w3.org/1999/xlink">
    <!-- Generator: Sketch 46.2 (44496) - http://www.bohemiancoding.com/sketch -->
    <title>analytics</title>
    <desc>Created with Sketch.</desc>
    <defs></defs>
    <g id="icons" stroke="none" stroke-width="1" fill="none" fill-rule="evenodd">
        <g id="Artboard" transform="translate(-16.000000, -304.000000)" fill-rule="nonzero" fill="#FFFFFF">
            <path d="M17,320 L20,320 L20,311.677033 L17,310.477033 L17,320 Z M20.3713907,310.748556 C20.7510491,310.90042 21,311.268128 21,311.677033 L21,320 C21,320.552285 20.5522847,321 20,321 L17,321 C16.4477153,321 16,320.552285 16,320 L16,310.477033 C16,309.924748 16.4477153,309.477033 17,309.477033 C17.1272194,309.477033 17.2532704,309.501308 17.3713907,309.548556 L20.3713907,310.748556 Z M24.3713907,304.548556 L27.3713907,305.748556 C27.7510491,305.90042 28,306.268128 28,306.677033 L28,320 C28,320.552285 27.5522847,321 27,321 L24,321 C23.4477153,321 23,320.552285 23,320 L23,305.477033 C23,304.924748 23.4477153,304.477033 24,304.477033 C24.1272194,304.477033 24.2532704,304.501308 24.3713907,304.548556 Z M24,320 L27,320 L27,306.677033 L24,305.477033 L24,320 Z M34.3713907,312.748556 C34.7510491,312.90042 35,313.268128 35,313.677033 L35,320 C35,320.552285 34.5522847,321 34,321 L31,321 C30.4477153,321 30,320.552285 30,320 L30,312.477033 C30,311.924748 30.4477153,311.477033 31,311.477033 C31.1272194,311.477033 31.2532704,311.501308 31.3713907,311.548556 L34.3713907,312.748556 Z M31,320 L34,320 L34,313.677033 L31,312.477033 L31,320 Z" id="analytics"></path>
        </g>
    </g>
</svg>