<?xml version="1.0" encoding="UTF-8"?>
<svg width="23px" height="19px" viewBox="0 0 23 19" version="1.1" xmlns="http://www.w3.org/2000/svg" xmlns:xlink="http://www.w3.org/1999/xlink">
    <!-- Generator: Sketch 46.2 (44496) - http://www.bohemiancoding.com/sketch -->
    <title>announce</title>
    <desc>Created with Sketch.</desc>
    <defs></defs>
    <g id="icons" stroke="none" stroke-width="1" fill="none" fill-rule="evenodd">
        <g id="Artboard" transform="translate(-217.000000, -202.000000)" fill-rule="nonzero" fill="#FFFFFF">
            <path d="M233,204.56619 L228,207.56619 L228,214.43381 L233,217.43381 L233,204.56619 Z M234,203.96619 L234,218.03381 L234.087054,218.086042 C235.309769,218.819671 236,218.429413 236,217.00077 L236,204.99923 C236,203.568652 235.312501,203.17869 234.087054,203.913958 L234,203.96619 Z M220.285714,215 L218.992017,215 C217.891856,215 217,214.113294 217,213.001899 L217,208.998101 C217,207.89458 217.900176,207 218.992017,207 L227,207 L233.572558,203.056465 C235.465482,201.920711 237,202.792468 237,204.99923 L237,217.00077 C237,219.209484 235.459415,220.075649 233.572558,218.943535 L227,215 L224.285714,215 L225.726102,220.041357 C225.877372,220.570801 225.556647,221 224.990631,221 L223.009369,221 C222.45191,221 221.874891,220.562119 221.726102,220.041357 L220.285714,215 Z M222,214 L227,214 L227,208 L222,208 L222,214 Z M221,214 L221,208 L218.992017,208 C218.449625,208 218,208.449701 218,208.998101 L218,213.001899 C218,213.558362 218.441495,214 218.992017,214 L221,214 Z M222.687626,219.766636 C222.714356,219.860191 222.900594,220 223.009369,220 L224.67427,220 L223.245699,215 L221.32573,215 L222.687626,219.766636 Z M237,208 C238.656854,208 240,209.343146 240,211 C240,212.656854 238.656854,214 237,214 L237,213 C238.104569,213 239,212.104569 239,211 C239,209.895431 238.104569,209 237,209 L237,208 Z" id="announce"></path>
        </g>
    </g>
</svg>