<?xml version="1.0" encoding="UTF-8"?>
<svg width="14px" height="17px" viewBox="0 0 14 17" version="1.1" xmlns="http://www.w3.org/2000/svg" xmlns:xlink="http://www.w3.org/1999/xlink">
    <!-- Generator: Sketch 46.2 (44496) - http://www.bohemiancoding.com/sketch -->
    <title>attach</title>
    <desc>Created with Sketch.</desc>
    <defs></defs>
    <g id="icons" stroke="none" stroke-width="1" fill="none" fill-rule="evenodd">
        <g id="Artboard" transform="translate(-630.000000, -254.000000)" fill-rule="nonzero" fill="#FFFFFF">
            <path d="M641.519931,260.028769 L641.519931,266.486559 C641.519931,268.701202 639.724608,270.496524 637.509966,270.496524 C635.295323,270.496524 633.5,268.701202 633.5,266.486559 L633.5,258 C633.5,256.619288 634.619288,255.5 636,255.5 C637.380712,255.5 638.5,256.619288 638.5,258 L638.5,266.5 C638.5,267.052285 638.052285,267.5 637.5,267.5 C636.947715,267.5 636.5,267.052285 636.5,266.5 L636.5,259.992347 L635.5,259.992347 L635.5,266.5 C635.5,267.604569 636.395431,268.5 637.5,268.5 C638.604569,268.5 639.5,267.604569 639.5,266.5 L639.5,258 C639.5,256.067003 637.932997,254.5 636,254.5 C634.067003,254.5 632.5,256.067003 632.5,258 L632.5,266.486559 C632.5,269.253486 634.743038,271.496524 637.509966,271.496524 C640.276893,271.496524 642.519931,269.253486 642.519931,266.486559 L642.519931,260.028769 L641.519931,260.028769 Z" id="attach" transform="translate(637.509966, 262.998262) rotate(45.000000) translate(-637.509966, -262.998262) "></path>
        </g>
    </g>
</svg>