<?xml version="1.0" encoding="UTF-8"?>
<svg width="20px" height="22px" viewBox="0 0 20 22" version="1.1" xmlns="http://www.w3.org/2000/svg" xmlns:xlink="http://www.w3.org/1999/xlink">
    <!-- Generator: Sketch 46.2 (44496) - http://www.bohemiancoding.com/sketch -->
    <title>calendar</title>
    <desc>Created with Sketch.</desc>
    <defs></defs>
    <g id="icons" stroke="none" stroke-width="1" fill="none" fill-rule="evenodd">
        <g id="Artboard" transform="translate(-780.000000, -101.000000)" fill-rule="nonzero" fill="#FFFFFF">
            <path d="M793,104 L787,104 L787,106 L786,106 L786,104 L783.99923,104 C782.344003,104 781,105.34355 781,106.99923 L781,119.00077 C781,120.655997 782.34355,122 783.99923,122 L793,122 L793,119.5 C793,117.570937 794.567003,116 796.5,116 L799,116 L799,106.99923 C799,105.344003 797.65645,104 796.00077,104 L794,104 L794,106 L793,106 L793,104 Z M794,103 L796.00077,103 C798.209484,103 800,104.792468 800,106.99923 L800,116.999341 C800,120.313413 797.323464,123 793.999341,123 L783.99923,123 C781.790516,123 780,121.207532 780,119.00077 L780,106.99923 C780,104.790516 781.792468,103 783.99923,103 L786,103 L786,101.009766 L787,101.009766 L787,103 L793,103 L793,101.009766 L794,101.009766 L794,103 Z M794,120.75 L794,122 C796.767583,121.999645 798.999645,119.764998 799,117 L797.75,117 L796.5,117 C795.120819,117 794,118.121689 794,119.5 L794,120.75 Z M781,109 L781,108 L799,108 L799,109 L781,109 Z" id="calendar"></path>
        </g>
    </g>
</svg>