<?xml version="1.0" encoding="UTF-8"?>
<svg width="20px" height="20px" viewBox="0 0 20 20" version="1.1" xmlns="http://www.w3.org/2000/svg" xmlns:xlink="http://www.w3.org/1999/xlink">
    <!-- Generator: Sketch 46.2 (44496) - http://www.bohemiancoding.com/sketch -->
    <title>call</title>
    <desc>Created with Sketch.</desc>
    <defs></defs>
    <g id="icons" stroke="none" stroke-width="1" fill="none" fill-rule="evenodd">
        <g id="Artboard" transform="translate(-66.000000, -152.000000)" fill-rule="nonzero" fill="#FFFFFF">
            <path d="M69.6917528,160.955063 C69.6917528,160.684386 69.4688244,160.409227 69.1971184,160.341301 L65.5643922,159.433119 C65.2912131,159.364824 65.0009364,159.515925 64.9090906,159.791462 L64.5461018,160.880428 C64.1971447,161.9273 64.7197752,163.179626 65.7216924,163.640903 C65.7216924,163.640903 70.0344304,166.068004 75.2947973,166.068004 C80.5551641,166.068004 85.2059769,163.606679 85.2059769,163.606679 C86.2101727,163.147884 86.7386052,161.91907 86.3923913,160.880428 L86.0294026,159.791462 C85.9406686,159.52526 85.645807,159.365193 85.374101,159.433119 L81.7413748,160.341301 C81.4681958,160.409596 81.2467404,160.694996 81.2467404,160.955063 L81.2467404,162.775957 C81.2467404,162.775957 78.3856909,163.931456 75.4692466,163.931456 C72.5528022,163.931456 69.6917528,162.775957 69.6917528,162.775957 L69.6917528,160.955063 Z M71.7452667,162.387677 C73.0173359,162.727983 74.2914765,162.931456 75.4692466,162.931456 C76.6470167,162.931456 77.9211573,162.727983 79.1932264,162.387677 C79.5700616,162.286866 79.9235038,162.180065 80.2467404,162.072591 L80.2467404,160.955063 C80.2467404,160.228442 80.7879387,159.548883 81.4988392,159.371158 L85.1315654,158.462977 C85.9096301,158.268461 86.7239206,158.712738 86.9780859,159.475234 L87.3410746,160.564201 C87.8496814,162.090021 87.0882633,163.84613 85.6737354,164.490536 C85.509092,164.577669 85.2140003,164.722165 84.8038728,164.904788 C84.1288783,165.205352 83.3702937,165.505103 82.5432691,165.784677 C80.1723761,166.586152 77.7171599,167.068004 75.2947973,167.068004 C72.8701371,167.068004 70.47414,166.591466 68.2056108,165.798436 C67.4130586,165.521376 66.6917058,165.22417 66.0540989,164.925963 C65.665675,164.744298 65.387136,164.600106 65.3034912,164.549258 C63.8396244,163.875302 63.0867322,162.09626 63.5974185,160.564201 L63.9604073,159.475234 C64.2175116,158.703921 65.0267515,158.267933 65.8069278,158.462977 L69.439654,159.371158 C70.1506903,159.548917 70.6917528,160.219188 70.6917528,160.955063 L70.6917528,162.072591 C71.0149894,162.180065 71.3684316,162.286866 71.7452667,162.387677 Z" id="call" transform="translate(75.468459, 162.742305) rotate(45.000000) translate(-75.468459, -162.742305) "></path>
        </g>
    </g>
</svg>