<?xml version="1.0" encoding="UTF-8"?>
<svg width="20px" height="17px" viewBox="0 0 20 17" version="1.1" xmlns="http://www.w3.org/2000/svg" xmlns:xlink="http://www.w3.org/1999/xlink">
    <!-- Generator: Sketch 48.2 (47327) - http://www.bohemiancoding.com/sketch -->
    <title>circles-on-the-water</title>
    <desc>Created with Sketch.</desc>
    <defs></defs>
    <g id="Artboard" stroke="none" stroke-width="1" fill="none" fill-rule="evenodd" transform="translate(-168.000000, -303.000000)">
        <path d="M173.044757,308.787251 C173.085695,309.136235 173.154224,309.465434 173.248312,309.774125 C170.681244,310.684155 169,312.288782 169,314 C169,316.625455 172.957576,319 178,319 C183.042424,319 187,316.625455 187,314 C187,312.288782 185.318756,310.684155 182.751688,309.774125 C182.845776,309.465434 182.914305,309.136235 182.955243,308.787251 C185.968915,309.820804 188,311.768086 188,314 C188,317.313708 183.522847,320 178,320 C172.477153,320 168,317.313708 168,314 C168,311.768086 170.031085,309.820804 173.044757,308.787251 Z M174.332485,311.625511 C174.616291,311.912082 174.939927,312.155873 175.297965,312.354958 C173.900039,312.749711 173,313.409673 173,314 C173,314.916142 175.167715,316 178,316 C180.832285,316 183,314.916142 183,314 C183,313.409673 182.099961,312.749711 180.702035,312.354958 C181.060073,312.155873 181.383709,311.912082 181.667515,311.625511 C183.086384,312.174193 184,313.03375 184,314 C184,315.656854 181.313708,317 178,317 C174.686292,317 172,315.656854 172,314 C172,313.03375 172.913616,312.174193 174.332485,311.625511 Z M178,315 C176.895431,315 176,314.552285 176,314 C176,313.447715 176.895431,313 178,313 C179.104569,313 180,313.447715 180,314 C180,314.552285 179.104569,315 178,315 Z M178,311 C176.343146,311 175,310.209139 175,308 C175,305.790861 177.343146,303 178,303 C178.656854,303 181,305.790861 181,308 C181,310.209139 179.656854,311 178,311 Z M177.942551,304.195911 C177.67244,304.452276 177.36354,304.821351 177.078367,305.237162 C176.413426,306.206714 176,307.235732 176,308 C176,309.433579 176.648942,310 178,310 C179.351058,310 180,309.433579 180,308 C180,307.235732 179.586574,306.206714 178.921633,305.237162 C178.63646,304.821351 178.32756,304.452276 178.057449,304.195911 C178.037789,304.177251 178.018614,304.159465 178,304.142591 C177.981386,304.159465 177.962211,304.177251 177.942551,304.195911 Z" id="circles-on-the-water" fill="#FFFFFF" fill-rule="nonzero"></path>
    </g>
</svg>