<?xml version="1.0" encoding="UTF-8"?>
<svg width="24px" height="15px" viewBox="0 0 24 15" version="1.1" xmlns="http://www.w3.org/2000/svg" xmlns:xlink="http://www.w3.org/1999/xlink">
    <!-- Generator: Sketch 46.2 (44496) - http://www.bohemiancoding.com/sketch -->
    <title>cloud</title>
    <desc>Created with Sketch.</desc>
    <defs></defs>
    <g id="icons" stroke="none" stroke-width="1" fill="none" fill-rule="evenodd">
        <g id="Artboard" transform="translate(-676.000000, -256.000000)" fill-rule="nonzero" fill="#FFFFFF">
            <path d="M699,266 C699,264.394187 698.045336,262.963676 696.598832,262.332049 L696.014369,262.076838 L695.999282,261.439264 C695.967228,260.084625 694.858175,259 693.5,259 C693.165518,259 692.841852,259.065177 692.541183,259.190185 L691.894439,259.45908 L691.420706,258.943174 C690.290623,257.712489 688.703703,257 687,257 C683.999085,257 681.470318,259.216872 681.05833,262.15914 L680.948838,262.941096 L680.162811,263.015963 C678.377137,263.186046 677,264.692281 677,266.5 C677,268.341906 678.441904,269.992052 680.001831,269.972537 L695.000865,270 C697.209607,269.999532 699,268.208851 699,266 Z M695,271 L680,270.972536 C677.816264,271 676,268.816277 676,266.5 C676,264.160443 677.78538,262.237884 680.067992,262.020469 C680.544391,258.618201 683.466439,256 687,256 C689.04088,256 690.877766,256.873399 692.157277,258.266813 C692.570751,258.094905 693.024292,258 693.5,258 C695.404787,258 696.954185,259.5216 696.999003,261.415608 C698.76544,262.186937 700,263.949295 700,266 C700,268.761424 697.761424,271 695,271 Z" id="cloud"></path>
        </g>
    </g>
</svg>