<?xml version="1.0" encoding="UTF-8"?>
<svg width="21px" height="21px" viewBox="0 0 21 21" version="1.1" xmlns="http://www.w3.org/2000/svg" xmlns:xlink="http://www.w3.org/1999/xlink">
    <!-- Generator: Sketch 46.2 (44496) - http://www.bohemiancoding.com/sketch -->
    <title>denied</title>
    <desc>Created with Sketch.</desc>
    <defs></defs>
    <g id="icons" stroke="none" stroke-width="1" fill="none" fill-rule="evenodd">
        <g id="Artboard" transform="translate(-218.000000, -252.000000)" fill-rule="nonzero" fill="#FFFFFF">
            <path d="M228.5,272 C233.746705,272 238,267.746705 238,262.5 C238,257.253295 233.746705,253 228.5,253 C223.253295,253 219,257.253295 219,262.5 C219,267.746705 223.253295,272 228.5,272 Z M228.5,273 C222.70101,273 218,268.29899 218,262.5 C218,256.70101 222.70101,252 228.5,252 C234.29899,252 239,256.70101 239,262.5 C239,268.29899 234.29899,273 228.5,273 Z M222,264 L222,261 L235,261 L235,264 L222,264 Z M221,260 L221,265 L236,265 L236,260 L221,260 Z" id="denied"></path>
        </g>
    </g>
</svg>