<?xml version="1.0" encoding="UTF-8"?>
<svg width="18px" height="24px" viewBox="0 0 18 24" version="1.1" xmlns="http://www.w3.org/2000/svg" xmlns:xlink="http://www.w3.org/1999/xlink">
    <!-- Generator: Sketch 46.2 (44496) - http://www.bohemiancoding.com/sketch -->
    <title>doc</title>
    <desc>Created with Sketch.</desc>
    <defs></defs>
    <g id="icons" stroke="none" stroke-width="1" fill="none" fill-rule="evenodd">
        <g id="Artboard" transform="translate(-884.000000, -150.000000)" fill-rule="nonzero" fill="#FFFFFF">
            <path d="M901,167 L901,152.99109 C901,151.893126 900.10698,151 899.00746,151 L886.99254,151 C885.899895,151 885,151.896744 885,152.99109 L885,171.00891 C885,172.106874 885.89302,173 886.99254,173 L895,173 L895,170.5 C895,168.570937 896.567003,167 898.5,167 L901,167 Z M901,168 L898.5,168 C897.120819,168 896,169.121689 896,170.5 L896,173 L896.006261,173 C898.757104,173 901,170.759808 901,168.005696 L901,168 Z M884,152.99109 C884,151.339157 885.352926,150 886.99254,150 L899.00746,150 C900.660194,150 902,151.341771 902,152.99109 L902,168.005696 C902,171.316259 899.305218,174 896.006261,174 L886.99254,174 C885.339806,174 884,172.658229 884,171.00891 L884,152.99109 Z M887,156 L887,155 L899,155 L899,156 L887,156 Z M887,160 L887,159 L899,159 L899,160 L887,160 Z M887,164 L887,163 L894,163 L894,164 L887,164 Z" id="doc"></path>
        </g>
    </g>
</svg>