<?xml version="1.0" encoding="UTF-8"?>
<svg width="21px" height="21px" viewBox="0 0 21 21" version="1.1" xmlns="http://www.w3.org/2000/svg" xmlns:xlink="http://www.w3.org/1999/xlink">
    <!-- Generator: Sketch 46.2 (44496) - http://www.bohemiancoding.com/sketch -->
    <title>download</title>
    <desc>Created with Sketch.</desc>
    <defs></defs>
    <g id="icons" stroke="none" stroke-width="1" fill="none" fill-rule="evenodd">
        <g id="Artboard" transform="translate(-933.000000, -152.000000)" fill-rule="nonzero" fill="#FFFFFF">
            <path d="M944,165.911936 L946.674352,163.616545 L947.325648,164.375368 L943.500219,167.658727 L939.674604,164.379628 L940.325396,163.620372 L943,165.91289 L943,157 L944,157 L944,165.911936 Z M943.5,173 C937.70101,173 933,168.29899 933,162.5 C933,156.70101 937.70101,152 943.5,152 C949.29899,152 954,156.70101 954,162.5 C954,168.29899 949.29899,173 943.5,173 Z M943.5,172 C948.746705,172 953,167.746705 953,162.5 C953,157.253295 948.746705,153 943.5,153 C938.253295,153 934,157.253295 934,162.5 C934,167.746705 938.253295,172 943.5,172 Z" id="download"></path>
        </g>
    </g>
</svg>