<?xml version="1.0" encoding="UTF-8"?>
<svg width="24px" height="17px" viewBox="0 0 24 17" version="1.1" xmlns="http://www.w3.org/2000/svg" xmlns:xlink="http://www.w3.org/1999/xlink">
    <!-- Generator: Sketch 48.2 (47327) - http://www.bohemiancoding.com/sketch -->
    <title>famous</title>
    <desc>Created with Sketch.</desc>
    <defs>
        <path d="M65.6401844,305.830248 L70,309.463427 L75.2407434,303.349227 C75.6001655,302.929901 76.2314655,302.881339 76.6507914,303.240762 C76.6896702,303.274086 76.7259319,303.310348 76.7592566,303.349227 L82,309.463427 L86.3598156,305.830248 C86.7840925,305.476684 87.4146572,305.534008 87.7682213,305.958285 C87.9179838,306.138 88,306.364532 88,306.598469 L88.000005,315.651595 C88.000005,316.267481 87.7162485,316.84902 87.2307963,317.228034 C85.3220254,318.718296 81.5784267,319.463427 76,319.463427 C70.4216026,319.463427 66.6780138,318.718304 64.7692338,317.228057 L64.7692244,317.228069 C64.2837627,316.849054 64,316.267507 64,315.651613 L64,306.598469 C64,306.046184 64.4477153,305.598469 65,305.598469 C65.2339365,305.598469 65.4604694,305.680485 65.6401844,305.830248 Z" id="path-1"></path>
    </defs>
    <g id="Artboard" stroke="none" stroke-width="1" fill="none" fill-rule="evenodd" transform="translate(-64.000000, -303.000000)">
        <g id="famous">
            <use fill-opacity="0" fill="#D8D8D8" fill-rule="evenodd" xlink:href="#path-1"></use>
            <path stroke="#FFFFFF" stroke-width="1" d="M65.3200922,306.214358 C65.2302347,306.139477 65.1169683,306.098469 65,306.098469 C64.7238576,306.098469 64.5,306.322327 64.5,306.598469 L64.5,315.651613 C64.5,316.113536 64.7128229,316.549691 65.0769291,316.833946 C66.8736853,318.236732 70.5246886,318.963427 76,318.963427 C81.4753394,318.963427 85.1263518,318.236725 86.923098,316.833925 C87.2871874,316.549664 87.500005,316.11351 87.500005,315.651595 L87.5,306.598469 C87.5,306.481501 87.4589919,306.368234 87.3841106,306.278377 C87.2073286,306.066238 86.8920462,306.037576 86.6799078,306.214358 L81.9412794,310.163215 L76.3796283,303.674622 C76.362966,303.655183 76.3448351,303.637052 76.3253957,303.62039 C76.1157328,303.440679 75.8000828,303.46496 75.6203717,303.674622 L70.0587206,310.163215 L65.3200922,306.214358 Z"></path>
        </g>
    </g>
</svg>