<?xml version="1.0" encoding="UTF-8"?>
<svg width="20px" height="20px" viewBox="0 0 20 20" version="1.1" xmlns="http://www.w3.org/2000/svg" xmlns:xlink="http://www.w3.org/1999/xlink">
    <!-- Generator: Sketch 46.2 (44496) - http://www.bohemiancoding.com/sketch -->
    <title>favourite</title>
    <desc>Created with Sketch.</desc>
    <defs></defs>
    <g id="icons" stroke="none" stroke-width="1" fill="none" fill-rule="evenodd">
        <g id="Artboard" transform="translate(-729.000000, -151.000000)" fill-rule="nonzero" fill="#FFFFFF">
            <path d="M744.302154,169.331721 L742.892536,163.69325 L747.177518,159.408269 C747.313917,159.271869 747.413559,159.148443 747.477738,159.045624 C747.357334,159.017378 747.195982,159 746.998335,159 L741.307,159 L739.11714,153.160375 C739.078248,153.056662 739.038768,152.965406 739.000035,152.88708 C738.961244,152.965437 738.921738,153.056701 738.88286,153.160375 L736.693,159 L731.001665,159 C730.803897,159 730.642208,159.017188 730.521216,159.045186 C730.585976,159.148241 730.685988,159.271774 730.822482,159.408269 L735.107464,163.69325 L733.697846,169.331721 C733.675048,169.422914 733.657705,169.50689 733.645302,169.582918 C733.713622,169.542463 733.787841,169.494067 733.867022,169.437509 L739,165.771096 L744.132978,169.437509 C744.212172,169.494076 744.286403,169.542499 744.354739,169.582997 C744.342312,169.506922 744.324954,169.422921 744.302154,169.331721 Z M739,167 L734.44826,170.251243 C733.096123,171.217055 732.325786,170.696857 732.727704,169.089186 L734,164 L730.115376,160.115376 C728.947086,158.947086 729.33902,158 731.001665,158 L736,158 L737.946531,152.809252 C738.528346,151.257745 739.46875,151.25 740.053469,152.809252 L742,158 L746.998335,158 C748.656109,158 749.049282,158.950718 747.884624,160.115376 L744,164 L745.272296,169.089186 C745.674196,170.696784 744.90625,171.21875 743.55174,170.251243 L739,167 Z" id="favourite"></path>
        </g>
    </g>
</svg>