<?xml version="1.0" encoding="UTF-8"?>
<svg width="21px" height="19px" viewBox="0 0 21 19" version="1.1" xmlns="http://www.w3.org/2000/svg" xmlns:xlink="http://www.w3.org/1999/xlink">
    <!-- Generator: Sketch 46.2 (44496) - http://www.bohemiancoding.com/sketch -->
    <title>feedback</title>
    <desc>Created with Sketch.</desc>
    <defs></defs>
    <g id="icons" stroke="none" stroke-width="1" fill="none" fill-rule="evenodd">
        <g id="Artboard" transform="translate(-320.000000, -254.000000)" fill-rule="nonzero" fill="#FFFFFF">
            <path d="M335.118262,268.694857 L335.340911,268 L337.000631,268 C338.657181,268 340,266.656932 340,264.99998 L340,258.00002 C340,256.345324 338.655726,255 337.000631,255 L323.999369,255 C322.342819,255 321,256.343068 321,258.00002 L321,264.99998 C321,266.654676 322.344274,268 323.999369,268 L332.433511,268 L332.704697,268.570984 C333.32204,269.870805 334.011451,270.871132 334.707805,271.44727 C334.674885,270.536349 334.824201,269.612574 335.118262,268.694857 Z M336,273 C334.073852,273 332.630233,270.745115 331.8014,269 L323.999369,269 C321.790579,269 320,267.205549 320,264.99998 L320,258.00002 C320,255.79087 321.790448,254 323.999369,254 L337.000631,254 C339.209421,254 341,255.794451 341,258.00002 L341,264.99998 C341,267.20913 339.209552,269 337.000631,269 L336.070568,269 C335.714963,270.109788 335.501181,271.554894 336,273 Z M330.5,258.341102 C330.367545,258.09791 330.13419,257.850786 329.799933,257.59973 C329.298548,257.223147 328.675334,257 328,257 C326.343146,257 325,258.343146 325,260 C325,262.656854 330.094251,265.997596 330.5,265.997596 C330.905749,265.997596 336,262.656854 336,260 C336,258.343146 334.656854,257 333,257 C332.324666,257 331.650262,257.241399 331.200067,257.59973 C330.899936,257.838618 330.666581,258.085742 330.5,258.341102 Z M330.977709,264.600805 C330.799921,264.718758 330.636728,264.820695 330.5,264.900092 C330.363272,264.820695 330.200079,264.718758 330.022291,264.600805 C329.456665,264.225543 328.830311,263.748454 328.259086,263.244946 C326.849662,262.002604 326,260.796716 326,260 C326,258.895431 326.895431,258 328,258 C328.678621,258 329.229414,258.38113 329.667267,258.894777 C329.959168,259.237208 330.236746,259.654689 330.5,260.147218 C330.766595,259.644325 331.044173,259.226844 331.332733,258.894777 C331.765574,258.396676 332.321379,258 333,258 C334.104569,258 335,258.895431 335,260 C335,260.796716 334.150338,262.002604 332.740914,263.244946 C332.169689,263.748454 331.543335,264.225543 330.977709,264.600805 Z" id="feedback"></path>
        </g>
    </g>
</svg>