<?xml version="1.0" encoding="UTF-8"?>
<svg width="18px" height="17px" viewBox="0 0 18 17" version="1.1" xmlns="http://www.w3.org/2000/svg" xmlns:xlink="http://www.w3.org/1999/xlink">
    <!-- Generator: Sketch 46.2 (44496) - http://www.bohemiancoding.com/sketch -->
    <title>filters</title>
    <desc>Created with Sketch.</desc>
    <defs></defs>
    <g id="icons" stroke="none" stroke-width="1" fill="none" fill-rule="evenodd">
        <g id="Artboard" transform="translate(-628.000000, -154.000000)" fill-rule="nonzero" fill="#FFFFFF">
            <path d="M641.949991,168 L646,168 L646,169 L641.949991,169 C641.718356,170.14112 640.709479,171 639.5,171 C638.119288,171 637,169.880712 637,168.5 C637,167.119288 638.119288,166 639.5,166 C640.709479,166 641.718356,166.85888 641.949991,168 Z M635.949991,162 L646,162 L646,163 L635.949991,163 C635.718356,164.14112 634.709479,165 633.5,165 C632.119288,165 631,163.880712 631,162.5 C631,161.119288 632.119288,160 633.5,160 C634.709479,160 635.718356,160.85888 635.949991,162 Z M643.949991,156 L646,156 L646,157 L643.949991,157 C643.718356,158.14112 642.709479,159 641.5,159 C640.119288,159 639,157.880712 639,156.5 C639,155.119288 640.119288,154 641.5,154 C642.709479,154 643.718356,154.85888 643.949991,156 Z M628,157 L628,156 L639,156 L639,157 L628,157 Z M641.5,158 C642.328427,158 643,157.328427 643,156.5 C643,155.671573 642.328427,155 641.5,155 C640.671573,155 640,155.671573 640,156.5 C640,157.328427 640.671573,158 641.5,158 Z M628,163 L628,162 L631,162 L631,163 L628,163 Z M633.5,164 C634.328427,164 635,163.328427 635,162.5 C635,161.671573 634.328427,161 633.5,161 C632.671573,161 632,161.671573 632,162.5 C632,163.328427 632.671573,164 633.5,164 Z M628,169 L628,168 L637,168 L637,169 L628,169 Z M639.5,170 C640.328427,170 641,169.328427 641,168.5 C641,167.671573 640.328427,167 639.5,167 C638.671573,167 638,167.671573 638,168.5 C638,169.328427 638.671573,170 639.5,170 Z" id="filters"></path>
        </g>
    </g>
</svg>