<?xml version="1.0" encoding="UTF-8"?>
<svg width="13px" height="18px" viewBox="0 0 13 18" version="1.1" xmlns="http://www.w3.org/2000/svg" xmlns:xlink="http://www.w3.org/1999/xlink">
    <!-- Generator: Sketch 46.2 (44496) - http://www.bohemiancoding.com/sketch -->
    <title>flag</title>
    <desc>Created with Sketch.</desc>
    <defs></defs>
    <g id="icons" stroke="none" stroke-width="1" fill="none" fill-rule="evenodd">
        <g id="Artboard" transform="translate(-325.000000, -153.000000)" fill-rule="nonzero" fill="#FFFFFF">
            <path d="M326,155.4 L328.279284,154.03243 C329.229609,153.462235 330.71512,153.53634 331.603905,154.202929 L332.396095,154.797071 C333.281907,155.46143 334.80946,155.59527 335.78941,155.105295 L338,154 L338,163 L335.78941,164.105295 C334.801146,164.599427 333.28488,164.46366 332.396095,163.797071 L331.603905,163.202929 C330.718093,162.53857 329.240608,162.455635 328.279284,163.03243 L326,164.4 L326,171 L325,171 L325,154 L326,154 L326,155.4 Z M336.236624,155.999722 C334.915133,156.660467 332.982463,156.486847 331.796095,155.597071 L331.003905,155.002929 C330.441645,154.581234 329.396814,154.528102 328.793779,154.889923 L326,156.56619 L326,163.23381 L327.764788,162.174937 C329.071358,161.390995 330.989644,161.492233 332.203905,162.402929 L332.996095,162.997071 C333.580917,163.435687 334.69166,163.536136 335.342197,163.210868 L337,162.381966 L337,155.618034 L336.236624,155.999722 Z" id="flag"></path>
        </g>
    </g>
</svg>