<?xml version="1.0" encoding="UTF-8"?>
<svg width="21px" height="21px" viewBox="0 0 21 21" version="1.1" xmlns="http://www.w3.org/2000/svg" xmlns:xlink="http://www.w3.org/1999/xlink">
    <!-- Generator: Sketch 46.2 (44496) - http://www.bohemiancoding.com/sketch -->
    <title>help</title>
    <desc>Created with Sketch.</desc>
    <defs></defs>
    <g id="icons" stroke="none" stroke-width="1" fill="none" fill-rule="evenodd">
        <g id="Artboard" transform="translate(-66.000000, -201.000000)" fill-rule="nonzero" fill="#FFFFFF">
            <path d="M70.1452918,218.561815 C71.8285561,220.077515 74.056549,221 76.5,221 C78.943451,221 81.1714439,220.077515 82.8547082,218.561815 L80.0195281,215.726635 C79.0657812,216.521688 77.8387484,217 76.5,217 C75.1612516,217 73.9342188,216.521688 72.9804719,215.726635 L70.1452918,218.561815 Z M69.438185,217.854708 L72.2733651,215.019528 C71.4783117,214.065781 71,212.838748 71,211.5 C71,210.175183 71.4684085,208.959769 72.2486473,208.010336 L69.4123791,205.174067 C67.912021,206.853908 67,209.070447 67,211.5 C67,213.943451 67.9224853,216.171444 69.438185,217.854708 Z M83.5876209,205.174067 L80.7513527,208.010336 C81.5315915,208.959769 82,210.175183 82,211.5 C82,212.838748 81.5216883,214.065781 80.7266349,215.019528 L83.561815,217.854708 C85.0775147,216.171444 86,213.943451 86,211.5 C86,209.070447 85.087979,206.853908 83.5876209,205.174067 Z M82.8833732,204.464102 C81.1967779,202.933007 78.9573467,202 76.5,202 C74.0426533,202 71.8032221,202.933007 70.1166268,204.464102 L72.950801,207.298276 C73.9087061,206.488313 75.1473272,206 76.5,206 C77.8526728,206 79.0912939,206.488313 80.049199,207.298276 L82.8833732,204.464102 Z M76.5,222 C70.7010101,222 66,217.29899 66,211.5 C66,205.70101 70.7010101,201 76.5,201 C82.2989899,201 87,205.70101 87,211.5 C87,217.29899 82.2989899,222 76.5,222 Z M76.5,216 C78.9852814,216 81,213.985281 81,211.5 C81,209.014719 78.9852814,207 76.5,207 C74.0147186,207 72,209.014719 72,211.5 C72,213.985281 74.0147186,216 76.5,216 Z" id="help"></path>
        </g>
    </g>
</svg>