<?xml version="1.0" encoding="UTF-8"?>
<svg width="24px" height="21px" viewBox="0 0 24 21" version="1.1" xmlns="http://www.w3.org/2000/svg" xmlns:xlink="http://www.w3.org/1999/xlink">
    <!-- Generator: Sketch 46.2 (44496) - http://www.bohemiancoding.com/sketch -->
    <title>history</title>
    <desc>Created with Sketch.</desc>
    <defs></defs>
    <g id="icons" stroke="none" stroke-width="1" fill="none" fill-rule="evenodd">
        <g id="Artboard" transform="translate(-880.000000, -251.000000)" fill-rule="nonzero" fill="#FFFFFF">
            <path d="M883.03192,262.324813 C883.010772,262.052654 883,261.777585 883,261.5 C883,255.70101 887.70101,251 893.5,251 C899.29899,251 904,255.70101 904,261.5 C904,267.29899 899.29899,272 893.5,272 C890.035769,272 886.963373,270.322354 885.050936,267.735187 L885.855085,267.140759 C887.636475,269.550645 890.446539,271 893.5,271 C898.746705,271 903,266.746705 903,261.5 C903,256.253295 898.746705,252 893.5,252 C888.253295,252 884,256.253295 884,261.5 C884,261.755763 884.010084,262.010147 884.030125,262.262769 L885.646447,260.646447 L886.353553,261.353553 L883.5,264.207107 L880.646447,261.353553 L881.353553,260.646447 L883.03192,262.324813 Z M894,256 L894,261.775467 L898.332182,265.626295 L897.667818,266.373705 L893,262.224533 L893,256 L894,256 Z" id="history"></path>
        </g>
    </g>
</svg>