<?xml version="1.0" encoding="UTF-8"?>
<svg width="20px" height="18px" viewBox="0 0 20 18" version="1.1" xmlns="http://www.w3.org/2000/svg" xmlns:xlink="http://www.w3.org/1999/xlink">
    <!-- Generator: Sketch 46.2 (44496) - http://www.bohemiancoding.com/sketch -->
    <title>home</title>
    <desc>Created with Sketch.</desc>
    <defs></defs>
    <g id="icons" stroke="none" stroke-width="1" fill="none" fill-rule="evenodd">
        <g id="Artboard" transform="translate(-474.000000, -253.000000)" fill-rule="nonzero" fill="#FFFFFF">
            <path d="M475.906366,261 L478,261 L478,270 L482.000781,270 L482.004687,265 L486,265 L486,270 L490,270 L490,261 L492.093634,261 L490,259.290537 L490,256 L489,256 L489,258.474031 L484,254.391505 L475.906366,261 Z M488,255 L491,255 L491,258.816042 L492.726094,260.225407 C493.15389,260.574704 493.217525,261.204663 492.868228,261.63246 C492.67831,261.865058 492.393919,262 492.093634,262 L491,262 L491,271 L485,271 L485,266 L483.003906,266 L483,271 L477,271 L477,262 L475.906366,262 C475.354081,262 474.906366,261.552285 474.906366,261 C474.906366,260.699715 475.041307,260.415325 475.273906,260.225407 L484,253.100505 L487,255.550021 L488,256.379967 L488,255 Z" id="home"></path>
        </g>
    </g>
</svg>