<?xml version="1.0" encoding="UTF-8"?>
<svg width="18px" height="22px" viewBox="0 0 18 22" version="1.1" xmlns="http://www.w3.org/2000/svg" xmlns:xlink="http://www.w3.org/1999/xlink">
    <!-- Generator: Sketch 46.2 (44496) - http://www.bohemiancoding.com/sketch -->
    <title>image</title>
    <desc>Created with Sketch.</desc>
    <defs></defs>
    <g id="icons" stroke="none" stroke-width="1" fill="none" fill-rule="evenodd">
        <g id="Artboard" transform="translate(-526.000000, -151.000000)" fill-rule="nonzero" fill="#FFFFFF">
            <path d="M527,154.001387 L527,169.998613 C527,171.105022 527.892481,172 528.99254,172 L541.00746,172 C542.099337,172 543,171.099402 543,169.998613 L543,154.001387 C543,152.894978 542.107519,152 541.00746,152 L528.99254,152 C527.900663,152 527,152.900598 527,154.001387 Z M526,154.001387 C526,152.343767 527.352926,151 528.99254,151 L541.00746,151 C542.660194,151 544,152.343081 544,154.001387 L544,169.998613 C544,171.656233 542.647074,173 541.00746,173 L528.99254,173 C527.339806,173 526,171.656919 526,169.998613 L526,154.001387 Z M539.646041,169 L530.516539,169 L532.337313,164.751527 L534.391033,166.805247 L536.906642,160.096955 L539.646041,169 Z M534,165 L533.04442,164.04442 C532.653896,163.653896 532.020731,163.653896 531.630206,164.04442 C531.540249,164.134378 531.468282,164.240674 531.418168,164.357608 L529.597394,168.606081 C529.379838,169.11371 529.61499,169.701589 530.12262,169.919145 C530.247097,169.972492 530.381112,170 530.516539,170 L539.646041,170 C540.198325,170 540.646041,169.552285 540.646041,169 C540.646041,168.900315 540.631136,168.801191 540.60182,168.705914 L537.862421,159.802869 C537.700002,159.275007 537.140419,158.978757 536.612556,159.141176 C536.316345,159.232318 536.079132,159.455648 535.970313,159.745832 L534,165 Z M531.5,158 C530.671573,158 530,157.328427 530,156.5 C530,155.671573 530.671573,155 531.5,155 C532.328427,155 533,155.671573 533,156.5 C533,157.328427 532.328427,158 531.5,158 Z M531.5,159 C532.880712,159 534,157.880712 534,156.5 C534,155.119288 532.880712,154 531.5,154 C530.119288,154 529,155.119288 529,156.5 C529,157.880712 530.119288,159 531.5,159 Z" id="image"></path>
        </g>
    </g>
</svg>