<?xml version="1.0" encoding="UTF-8"?>
<svg width="16px" height="22px" viewBox="0 0 16 22" version="1.1" xmlns="http://www.w3.org/2000/svg" xmlns:xlink="http://www.w3.org/1999/xlink">
    <!-- Generator: Sketch 46.2 (44496) - http://www.bohemiancoding.com/sketch -->
    <title>location</title>
    <desc>Created with Sketch.</desc>
    <defs></defs>
    <g id="icons" stroke="none" stroke-width="1" fill="none" fill-rule="evenodd">
        <g id="Artboard" transform="translate(-324.000000, -201.000000)" fill-rule="nonzero" fill="#FFFFFF">
            <path d="M332.070182,221.826171 C332.333412,221.596485 332.6688,221.242449 333.048437,220.79057 C333.847682,219.839236 334.779234,218.532763 335.652195,217.128817 C337.6742,213.876909 339,210.755957 339,209 C339,205.134007 335.865993,202 332,202 C328.134007,202 325,205.134007 325,209 C325,210.755957 326.3258,213.876909 328.347805,217.128817 C329.220766,218.532763 330.152318,219.839236 330.951563,220.79057 C331.3312,221.242449 331.666588,221.596485 331.929818,221.826171 C331.954251,221.84749 331.977679,221.867394 332,221.885849 C332.022321,221.867394 332.045749,221.84749 332.070182,221.826171 Z M332,223 C330.662891,223 324,213.418278 324,209 C324,204.581722 327.581722,201 332,201 C336.418278,201 340,204.581722 340,209 C340,213.418278 333.337109,223 332,223 Z M332,212 C330.343146,212 329,210.656854 329,209 C329,207.343146 330.343146,206 332,206 C333.656854,206 335,207.343146 335,209 C335,210.656854 333.656854,212 332,212 Z M332,213 C334.209139,213 336,211.209139 336,209 C336,206.790861 334.209139,205 332,205 C329.790861,205 328,206.790861 328,209 C328,211.209139 329.790861,213 332,213 Z" id="location"></path>
        </g>
    </g>
</svg>