<?xml version="1.0" encoding="UTF-8"?>
<svg width="14px" height="24px" viewBox="0 0 14 24" version="1.1" xmlns="http://www.w3.org/2000/svg" xmlns:xlink="http://www.w3.org/1999/xlink">
    <!-- Generator: Sketch 46.2 (44496) - http://www.bohemiancoding.com/sketch -->
    <title>mobile</title>
    <desc>Created with Sketch.</desc>
    <defs></defs>
    <g id="icons" stroke="none" stroke-width="1" fill="none" fill-rule="evenodd">
        <g id="Artboard" transform="translate(-936.000000, -100.000000)" fill-rule="nonzero" fill="#FFFFFF">
            <path d="M949,119 L949,105 L937,105 L937,119 L949,119 Z M949,120 L937,120 L937,121.00891 C937,122.106065 937.897058,123 939.003351,123 L946.996649,123 C948.105351,123 949,122.108538 949,121.00891 L949,120 Z M949,104 L949,102.99109 C949,101.893935 948.102942,101 946.996649,101 L939.003351,101 C937.894649,101 937,101.891462 937,102.99109 L937,104 L949,104 Z M936,102.99109 C936,101.339157 937.342379,100 939.003351,100 L946.996649,100 C948.655354,100 950,101.341771 950,102.99109 L950,121.00891 C950,122.660843 948.657621,124 946.996649,124 L939.003351,124 C937.344646,124 936,122.658229 936,121.00891 L936,102.99109 Z" id="mobile"></path>
        </g>
    </g>
</svg>