<?xml version="1.0" encoding="UTF-8"?>
<svg width="18px" height="16px" viewBox="0 0 18 16" version="1.1" xmlns="http://www.w3.org/2000/svg" xmlns:xlink="http://www.w3.org/1999/xlink">
    <!-- Generator: Sketch 46.2 (44496) - http://www.bohemiancoding.com/sketch -->
    <title>new-tab</title>
    <desc>Created with Sketch.</desc>
    <defs></defs>
    <g id="icons" stroke="none" stroke-width="1" fill="none" fill-rule="evenodd">
        <g id="Artboard" transform="translate(-527.000000, -254.000000)" fill-rule="nonzero" fill="#FFFFFF">
            <path d="M542.167893,255.125 L537.051777,255.125 L537.051777,254.125 L544.051777,254.125 L544.051777,261.125 L543.051777,261.125 L543.051777,255.65533 L533.853553,264.853553 L533.146447,264.146447 L542.167893,255.125 Z M533.00313,255 L533.00313,256 L529.99687,256 C528.897625,256 528,256.897222 528,257.999422 L528,267.000578 C528,268.103945 528.895753,269 529.999422,269 L539.000578,269 C540.103902,269 541,268.104032 541,267 L541,264 L542,264 L542,267 C542,268.656854 540.655649,270 539.000578,270 L529.999422,270 C528.342887,270 527,268.655649 527,267.000578 L527,257.999422 C527,256.342887 528.347391,255 529.99687,255 L533.00313,255 Z" id="new-tab"></path>
        </g>
    </g>
</svg>