<?xml version="1.0" encoding="UTF-8"?>
<svg width="18px" height="18px" viewBox="0 0 18 18" version="1.1" xmlns="http://www.w3.org/2000/svg" xmlns:xlink="http://www.w3.org/1999/xlink">
    <!-- Generator: Sketch 46.2 (44496) - http://www.bohemiancoding.com/sketch -->
    <title>note-smile</title>
    <desc>Created with Sketch.</desc>
    <defs></defs>
    <g id="icons" stroke="none" stroke-width="1" fill="none" fill-rule="evenodd">
        <g id="Artboard" transform="translate(-832.000000, -252.000000)" fill-rule="nonzero" fill="#FFFFFF">
            <path d="M844.592839,263.485298 C843.681099,264.70537 842.225316,265.495191 840.585061,265.495191 C837.823637,265.495191 835.585061,263.256615 835.585061,260.495191 C835.585061,257.733767 837.823637,255.495191 840.585061,255.495191 C843.346485,255.495191 845.585061,257.733767 845.585061,260.495191 C845.585061,261.582264 845.238146,262.58831 844.648987,263.408659 C844.795411,263.227415 845.005475,263.09625 845.252957,263.052612 L848.192839,262.534231 C848.188569,262.453652 848.179403,262.373003 848.165246,262.292713 L846.818195,254.653205 C846.626388,253.565417 845.589071,252.83908 844.501283,253.030886 L834.653205,254.767368 C833.565417,254.959174 832.83908,255.996491 833.030886,257.08428 L834.767368,266.932357 C834.959174,268.020146 835.996491,268.746483 837.08428,268.554676 L844.723787,267.207625 C844.804078,267.193468 844.882998,267.174497 844.960178,267.15095 L844.441797,264.211068 C844.395467,263.948316 844.456275,263.691453 844.592839,263.485298 Z M849.182516,262.359725 L849.192188,262.358019 L849.183501,262.370425 C849.246912,263.072928 849.060762,263.778517 848.653087,264.360739 L846.833947,266.958739 C846.426272,267.54096 845.826902,267.957209 845.145077,268.137893 L845.13639,268.150299 L845.134685,268.140627 C845.056618,268.161015 844.977481,268.178319 844.897436,268.192433 L837.257928,269.539484 C835.626245,269.827194 834.07027,268.737688 833.78256,267.106005 L832.046078,257.257928 C831.758369,255.626245 832.847874,254.07027 834.479557,253.78256 L844.327635,252.046078 C845.959318,251.758369 847.515293,252.847874 847.803002,254.479557 L849.150054,262.119065 C849.164168,262.19911 849.174975,262.279393 849.182516,262.359725 Z M847.954727,263.591643 L845.426605,264.03742 L845.872381,266.565542 C845.923023,266.508474 845.970599,266.448281 846.014795,266.385162 L847.833935,263.787162 C847.878131,263.724043 847.918422,263.65875 847.954727,263.591643 Z M844.592839,263.485298 C844.611791,263.459937 844.630508,263.43439 844.648987,263.408659 C844.629071,263.433311 844.610333,263.458889 844.592839,263.485298 Z M840.585061,264.495191 C842.7942,264.495191 844.585061,262.70433 844.585061,260.495191 C844.585061,258.286052 842.7942,256.495191 840.585061,256.495191 C838.375922,256.495191 836.585061,258.286052 836.585061,260.495191 C836.585061,262.70433 838.375922,264.495191 840.585061,264.495191 Z M838.736991,260.564595 C838.211005,260.564595 837.78461,260.1382 837.78461,259.612214 C837.78461,259.086229 838.211005,258.659833 838.736991,258.659833 C839.262976,258.659833 839.689372,259.086229 839.689372,259.612214 C839.689372,260.1382 839.262976,260.564595 838.736991,260.564595 Z M842.019683,259.985768 C841.493698,259.985768 841.067302,259.559373 841.067302,259.033387 C841.067302,258.507402 841.493698,258.081006 842.019683,258.081006 C842.545669,258.081006 842.972064,258.507402 842.972064,259.033387 C842.972064,259.559373 842.545669,259.985768 842.019683,259.985768 Z M843.949572,261.076251 C843.548545,262.34387 842.478056,263.299622 841.144698,263.534729 C839.814681,263.769246 838.485037,263.240551 837.673919,262.191347 L838.465069,261.579725 C839.051079,262.337746 840.010603,262.719273 840.97105,262.549921 C841.933904,262.380144 842.706421,261.690427 842.996146,260.774623 L843.949572,261.076251 Z" id="note-smile"></path>
        </g>
    </g>
</svg>