<?xml version="1.0" encoding="UTF-8"?>
<svg width="17px" height="17px" viewBox="0 0 17 17" version="1.1" xmlns="http://www.w3.org/2000/svg" xmlns:xlink="http://www.w3.org/1999/xlink">
    <!-- Generator: Sketch 46.2 (44496) - http://www.bohemiancoding.com/sketch -->
    <title>pop-out</title>
    <desc>Created with Sketch.</desc>
    <defs></defs>
    <g id="icons" stroke="none" stroke-width="1" fill="none" fill-rule="evenodd">
        <g id="Artboard" transform="translate(-578.000000, -253.000000)" fill-rule="nonzero" fill="#FFFFFF">
            <path d="M584,255.997152 L584,262.002848 C584,263.105994 584.894057,264 585.997152,264 L592.002848,264 C593.105994,264 594,263.105943 594,262.002848 L594,255.997152 C594,254.894006 593.105943,254 592.002848,254 L585.997152,254 C584.894006,254 584,254.894057 584,255.997152 Z M583,255.997152 C583,254.341871 584.341623,253 585.997152,253 L592.002848,253 C593.658129,253 595,254.341623 595,255.997152 L595,262.002848 C595,263.658129 593.658377,265 592.002848,265 L585.997152,265 C584.341871,265 583,263.658377 583,262.002848 L583,255.997152 Z M580.99687,259 C579.897625,259 579,259.897222 579,260.999422 L579,267.000578 C579,268.103945 579.895753,269 580.999422,269 L587.000578,269 C588.103902,269 589,268.104032 589,267 L590,267 C590,268.656854 588.655649,270 587.000578,270 L580.999422,270 C579.342887,270 578,268.655649 578,267.000578 L578,260.999422 C578,259.342887 579.347391,258 580.99687,258 L580.99687,259 Z" id="pop-out"></path>
        </g>
    </g>
</svg>