<?xml version="1.0" encoding="UTF-8"?>
<svg width="18px" height="17px" viewBox="0 0 18 17" version="1.1" xmlns="http://www.w3.org/2000/svg" xmlns:xlink="http://www.w3.org/1999/xlink">
    <!-- Generator: Sketch 46.2 (44496) - http://www.bohemiancoding.com/sketch -->
    <title>print</title>
    <desc>Created with Sketch.</desc>
    <defs></defs>
    <g id="icons" stroke="none" stroke-width="1" fill="none" fill-rule="evenodd">
        <g id="Artboard" transform="translate(-731.000000, -254.000000)" fill-rule="nonzero" fill="#FFFFFF">
            <path d="M734,264.999891 L746,264.999891 L746,266.999945 L747.000055,267 C747.552335,267 748.000027,266.5523 748,266 L748,261 C748,260.447715 747.552285,260 747,260 L733,260 C732.447715,260 732,260.447715 732,261.000011 L731.999945,266.000027 C731.99996,266.552308 732.447673,266.999988 732.999973,266.999945 L734,266.999918 L734,264.999891 Z M734,267.999918 L733,267.999945 C731.895431,268.00003 730.999976,267.104624 730.999945,266.000055 L731,261 C731,259.895431 731.895431,259 733,259 L735,259 L735,254 L745,254 L745,259 L747,259 C748.104569,259 749,259.895431 749,261 L749,266 C749.000055,267.104569 748.104624,268 747.000055,268 L746,267.999945 L746,271 L734,271 L734,267.999918 Z M736,259 L744,259 L744,255 L736,255 L736,259 Z M735,266 L735,270 L745,270 L745,266 L735,266 Z M745.991165,262 L743.991165,262 L743.991165,263 L745.991165,263 L745.991165,262 Z" id="print"></path>
        </g>
    </g>
</svg>