<?xml version="1.0" encoding="UTF-8"?>
<svg width="16px" height="20px" viewBox="0 0 16 20" version="1.1" xmlns="http://www.w3.org/2000/svg" xmlns:xlink="http://www.w3.org/1999/xlink">
    <!-- Generator: Sketch 46.2 (44496) - http://www.bohemiancoding.com/sketch -->
    <title>private</title>
    <desc>Created with Sketch.</desc>
    <defs></defs>
    <g id="icons" stroke="none" stroke-width="1" fill="none" fill-rule="evenodd">
        <g id="Artboard" transform="translate(-731.000000, -102.000000)" fill-rule="nonzero" fill="#FFFFFF">
            <path d="M732,112.992017 L732,120.007983 C732,120.550827 732.44834,121 732.99406,121 L745.00594,121 C745.554168,121 746,120.554893 746,120.007983 L746,112.992017 C746,112.449173 745.55166,112 745.00594,112 L732.99406,112 C732.445832,112 732,112.445107 732,112.992017 Z M741.82838,104.171924 C741.104506,103.447858 740.104506,103 739,103 C736.794366,103 735,104.792974 735,107 L735,109 L735,111 L743,111 L743,107.001099 C743,105.896265 742.552253,104.89599 741.82838,104.171924 Z M734,111 L734,107 C734,104.238576 736.244195,102 739,102 C741.761424,102 744,104.239273 744,107.001099 L744,111 L745.00594,111 C746.107229,111 747,111.900176 747,112.992017 L747,120.007983 C747,121.108144 746.105486,122 745.00594,122 L732.99406,122 C731.892771,122 731,121.099824 731,120.007983 L731,112.992017 C731,111.891856 731.894514,111 732.99406,111 L734,111 Z" id="private"></path>
        </g>
    </g>
</svg>