<?xml version="1.0" encoding="UTF-8"?>
<svg width="21px" height="21px" viewBox="0 0 21 21" version="1.1" xmlns="http://www.w3.org/2000/svg" xmlns:xlink="http://www.w3.org/1999/xlink">
    <!-- Generator: Sketch 46.2 (44496) - http://www.bohemiancoding.com/sketch -->
    <title>question</title>
    <desc>Created with Sketch.</desc>
    <defs></defs>
    <g id="icons" stroke="none" stroke-width="1" fill="none" fill-rule="evenodd">
        <g id="Artboard" transform="translate(-14.000000, -201.000000)" fill-rule="nonzero" fill="#FFFFFF">
            <path d="M24.5,221 C29.7467051,221 34,216.746705 34,211.5 C34,206.253295 29.7467051,202 24.5,202 C19.2532949,202 15,206.253295 15,211.5 C15,216.746705 19.2532949,221 24.5,221 Z M24.5,222 C18.7010101,222 14,217.29899 14,211.5 C14,205.70101 18.7010101,201 24.5,201 C30.2989899,201 35,205.70101 35,211.5 C35,217.29899 30.2989899,222 24.5,222 Z M27.5,209.5 C27.5,207.843146 26.1568542,206.5 24.5,206.5 C22.8431458,206.5 21.5,207.843146 21.5,209.5 L22.5,209.5 C22.5,208.395431 23.3954305,207.5 24.5,207.5 C25.6045695,207.5 26.5,208.395431 26.5,209.5 C26.5,210.604569 25.6045695,211.5 24.5,211.5 L24,211.5 L24,215 L25,215 L25,212.458521 C26.4188567,212.220482 27.5,210.986498 27.5,209.5 Z M24,216.027099 L24,217.01513 L25,217.01513 L25,216.027099 L24,216.027099 Z" id="question"></path>
        </g>
    </g>
</svg>