<?xml version="1.0" encoding="UTF-8"?>
<svg width="21px" height="21px" viewBox="0 0 21 21" version="1.1" xmlns="http://www.w3.org/2000/svg" xmlns:xlink="http://www.w3.org/1999/xlink">
    <!-- Generator: Sketch 46.2 (44496) - http://www.bohemiancoding.com/sketch -->
    <title>recent</title>
    <desc>Created with Sketch.</desc>
    <defs></defs>
    <g id="icons" stroke="none" stroke-width="1" fill="none" fill-rule="evenodd">
        <g id="Artboard" transform="translate(-831.000000, -101.000000)" fill-rule="nonzero" fill="#FFFFFF">
            <path d="M841.5,122 C835.70101,122 831,117.29899 831,111.5 C831,105.70101 835.70101,101 841.5,101 C847.29899,101 852,105.70101 852,111.5 C852,117.29899 847.29899,122 841.5,122 Z M841.5,121 C846.746705,121 851,116.746705 851,111.5 C851,106.253295 846.746705,102 841.5,102 C836.253295,102 832,106.253295 832,111.5 C832,116.746705 836.253295,121 841.5,121 Z M842,106 L842,111.040811 L846.995917,111.000017 L847.004083,111.999983 L841,112.04901 L841,106 L842,106 Z" id="recent"></path>
        </g>
    </g>
</svg>