<?xml version="1.0" encoding="UTF-8"?>
<svg width="20px" height="19px" viewBox="0 0 20 19" version="1.1" xmlns="http://www.w3.org/2000/svg" xmlns:xlink="http://www.w3.org/1999/xlink">
    <!-- Generator: Sketch 46.2 (44496) - http://www.bohemiancoding.com/sketch -->
    <title>reload</title>
    <desc>Created with Sketch.</desc>
    <defs></defs>
    <g id="icons" stroke="none" stroke-width="1" fill="none" fill-rule="evenodd">
        <g id="Artboard" transform="translate(-882.000000, -102.000000)" fill-rule="nonzero" fill="#FFFFFF">
            <path d="M885.623203,118.054386 C885.385896,117.805481 885.161965,117.54371 884.952563,117.270227 C883.727763,115.670614 883,113.670296 883,111.5 C883,106.253295 887.253295,102 892.5,102 C897.746705,102 902,106.253295 902,111.5 C902,116.746705 897.746705,121 892.5,121 L892.5,120 C897.19442,120 901,116.19442 901,111.5 C901,106.80558 897.19442,103 892.5,103 C887.80558,103 884,106.80558 884,111.5 C884,113.393808 884.619838,115.190784 885.746545,116.662286 C886.060388,117.072171 886.410787,117.452794 886.792895,117.799219 L885.802111,114.419049 L886.761737,114.137767 L888.292083,119.358717 L882.76825,118.74171 L882.879258,117.74789 L885.623203,118.054386 Z" id="reload"></path>
        </g>
    </g>
</svg>