<?xml version="1.0" encoding="UTF-8"?>
<svg width="15px" height="22px" viewBox="0 0 15 22" version="1.1" xmlns="http://www.w3.org/2000/svg" xmlns:xlink="http://www.w3.org/1999/xlink">
    <!-- Generator: Sketch 46.2 (44496) - http://www.bohemiancoding.com/sketch -->
    <title>sand-clock</title>
    <desc>Created with Sketch.</desc>
    <defs></defs>
    <g id="icons" stroke="none" stroke-width="1" fill="none" fill-rule="evenodd">
        <g id="Artboard" transform="translate(-427.000000, -251.000000)" fill-rule="nonzero" fill="#FFFFFF">
            <path d="M430.226187,257.28307 C430.76054,259.687657 431.927067,261 434,261 L434,263 C431.927067,263 430.76054,264.312343 430.226187,266.71693 C429.987174,267.79249 429.911644,268.939105 429.941555,270 L439.058445,270 C439.088356,268.939105 439.012826,267.79249 438.773813,266.71693 C438.23946,264.312343 437.072933,263 435,263 L435,261 C437.072933,261 438.23946,259.687657 438.773813,257.28307 C439.012826,256.20751 439.088356,255.060895 439.058445,254 L429.941555,254 C429.911644,255.060895 429.987174,256.20751 430.226187,257.28307 Z M428.942345,270 C428.897031,268.106874 429.121431,264.055725 431.712791,262.565355 C432.460326,262.182185 433.140825,262 434,262 C433.140825,262 432.407041,261.742258 431.712791,261.434645 C429.121431,259.944275 428.897031,255.893126 428.942345,254 L428.493096,254 C427.668482,254 427,253.334203 427,252.5 C427,251.671573 427.663886,251 428.493096,251 L440.506904,251 C441.331518,251 442,251.665797 442,252.5 C442,253.328427 441.336114,254 440.506904,254 L440.057655,254 C440.102969,255.893126 439.878569,259.944275 437.287209,261.434645 C436.591129,261.794792 435.859175,262 435,262 C435.859175,262 436.540314,262.136527 437.287209,262.565355 C439.878569,264.055725 440.102969,268.106874 440.057655,270 L440.506904,270 C441.331518,270 442,270.665797 442,271.5 C442,272.328427 441.336114,273 440.506904,273 L428.493096,273 C427.668482,273 427,272.334203 427,271.5 C427,270.671573 427.663886,270 428.493096,270 L428.942345,270 Z M428,252.5 C428,252.780359 428.219213,253 428.493096,253 L440.506904,253 C440.780727,253 441,252.779244 441,252.5 C441,252.219641 440.780787,252 440.506904,252 L428.493096,252 C428.219273,252 428,252.220756 428,252.5 Z M428,271.5 C428,271.780359 428.219213,272 428.493096,272 L440.506904,272 C440.780727,272 441,271.779244 441,271.5 C441,271.219641 440.780787,271 440.506904,271 L428.493096,271 C428.219273,271 428,271.220756 428,271.5 Z" id="sand-clock"></path>
        </g>
    </g>
</svg>