<?xml version="1.0" encoding="UTF-8"?>
<svg width="24px" height="24px" viewBox="0 0 24 24" version="1.1" xmlns="http://www.w3.org/2000/svg" xmlns:xlink="http://www.w3.org/1999/xlink">
    <!-- Generator: Sketch 46.2 (44496) - http://www.bohemiancoding.com/sketch -->
    <title>settings</title>
    <desc>Created with Sketch.</desc>
    <defs></defs>
    <g id="icons" stroke="none" stroke-width="1" fill="none" fill-rule="evenodd">
        <g id="Artboard" transform="translate(-676.000000, -150.000000)" fill-rule="nonzero" fill="#FFFFFF">
            <path d="M686.497106,153.100129 L685.856397,153.256611 C684.964598,153.474416 684.115241,153.827622 683.334111,154.302219 L682.770381,154.64473 L681.158442,153.493345 C681.110711,153.45925 680.972201,153.47145 680.922307,153.521343 L679.521343,154.922307 C679.467962,154.975689 679.456685,155.107118 679.493345,155.158442 L680.64473,156.770381 L680.302219,157.334111 C679.827622,158.115241 679.474416,158.964598 679.256611,159.856397 L679.100129,160.497106 L677.146776,160.822664 C677.089209,160.832259 677,160.938737 677,161.009369 L677,162.990631 C677,163.066196 677.084855,163.167015 677.146776,163.177336 L679.100129,163.502894 L679.256611,164.143603 C679.474416,165.035402 679.827622,165.884759 680.302219,166.665889 L680.64473,167.229619 L679.493345,168.841558 C679.45925,168.889289 679.47145,169.027799 679.521343,169.077693 L680.922307,170.478657 C680.975689,170.532038 681.107118,170.543315 681.158442,170.506655 L682.770381,169.35527 L683.334111,169.697781 C684.115241,170.172378 684.964598,170.525584 685.856397,170.743389 L686.497106,170.899871 L686.822664,172.853224 C686.832259,172.910791 686.938737,173 687.009369,173 L688.990631,173 C689.066196,173 689.167015,172.915145 689.177336,172.853224 L689.502894,170.899871 L690.143603,170.743389 C691.035402,170.525584 691.884759,170.172378 692.665889,169.697781 L693.229619,169.35527 L694.841558,170.506655 C694.889289,170.54075 695.027799,170.52855 695.077693,170.478657 L696.478657,169.077693 C696.532038,169.024311 696.543315,168.892882 696.506655,168.841558 L695.35527,167.229619 L695.697781,166.665889 C696.172378,165.884759 696.525584,165.035402 696.743389,164.143603 L696.899871,163.502894 L698.853224,163.177336 C698.910791,163.167741 699,163.061263 699,162.990631 L699,161.009369 C699,160.933804 698.915145,160.832985 698.853224,160.822664 L696.899871,160.497106 L696.743389,159.856397 C696.525584,158.964598 696.172378,158.115241 695.697781,157.334111 L695.35527,156.770381 L696.506655,155.158442 C696.54075,155.110711 696.52855,154.972201 696.478657,154.922307 L695.077693,153.521343 C695.024311,153.467962 694.892882,153.456685 694.841558,153.493345 L693.229619,154.64473 L692.665889,154.302219 C691.884759,153.827622 691.035402,153.474416 690.143603,153.256611 L689.502894,153.100129 L689.177336,151.146776 C689.167741,151.089209 689.061263,151 688.990631,151 L687.009369,151 C686.933804,151 686.832985,151.084855 686.822664,151.146776 L686.497106,153.100129 Z M685.83627,150.982377 C685.926696,150.439825 686.443353,150 687.009369,150 L688.990631,150 C689.54809,150 690.073434,150.440603 690.16373,150.982377 L690.380861,152.285164 C691.383379,152.530011 692.326643,152.925993 693.185139,153.447597 L694.260319,152.679611 C694.708083,152.35978 695.384566,152.414003 695.784799,152.814237 L697.185763,154.215201 C697.579946,154.609384 697.639762,155.292558 697.320389,155.739681 L696.552403,156.814861 C697.074007,157.673357 697.469989,158.616621 697.714836,159.619139 L699.017623,159.83627 C699.560175,159.926696 700,160.443353 700,161.009369 L700,162.990631 C700,163.54809 699.559397,164.073434 699.017623,164.16373 L697.714836,164.380861 C697.469989,165.383379 697.074007,166.326643 696.552403,167.185139 L697.320389,168.260319 C697.64022,168.708083 697.585997,169.384566 697.185763,169.784799 L695.784799,171.185763 C695.390616,171.579946 694.707442,171.639762 694.260319,171.320389 L693.185139,170.552403 C692.326643,171.074007 691.383379,171.469989 690.380861,171.714836 L690.16373,173.017623 C690.073304,173.560175 689.556647,174 688.990631,174 L687.009369,174 C686.45191,174 685.926566,173.559397 685.83627,173.017623 L685.619139,171.714836 C684.616621,171.469989 683.673357,171.074007 682.814861,170.552403 L681.739681,171.320389 C681.291917,171.64022 680.615434,171.585997 680.215201,171.185763 L678.814237,169.784799 C678.420054,169.390616 678.360238,168.707442 678.679611,168.260319 L679.447597,167.185139 C678.925993,166.326643 678.530011,165.383379 678.285164,164.380861 L676.982377,164.16373 C676.439825,164.073304 676,163.556647 676,162.990631 L676,161.009369 C676,160.45191 676.440603,159.926566 676.982377,159.83627 L678.285164,159.619139 C678.530011,158.616621 678.925993,157.673357 679.447597,156.814861 L678.679611,155.739681 C678.35978,155.291917 678.414003,154.615434 678.814237,154.215201 L680.215201,152.814237 C680.609384,152.420054 681.292558,152.360238 681.739681,152.679611 L682.814861,153.447597 C683.673357,152.925993 684.616621,152.530011 685.619139,152.285164 L685.83627,150.982377 Z M688,166 C685.790861,166 684,164.209139 684,162 C684,159.790861 685.790861,158 688,158 C690.209139,158 692,159.790861 692,162 C692,164.209139 690.209139,166 688,166 Z M688,167 C690.761424,167 693,164.761424 693,162 C693,159.238576 690.761424,157 688,157 C685.238576,157 683,159.238576 683,162 C683,164.761424 685.238576,167 688,167 Z" id="settings"></path>
        </g>
    </g>
</svg>