<?xml version="1.0" encoding="UTF-8"?>
<svg width="17px" height="24px" viewBox="0 0 17 24" version="1.1" xmlns="http://www.w3.org/2000/svg" xmlns:xlink="http://www.w3.org/1999/xlink">
    <!-- Generator: Sketch 46.2 (44496) - http://www.bohemiancoding.com/sketch -->
    <title>share</title>
    <desc>Created with Sketch.</desc>
    <defs></defs>
    <g id="icons" stroke="none" stroke-width="1" fill="none" fill-rule="evenodd">
        <g id="Artboard" transform="translate(-579.000000, -200.000000)" fill-rule="nonzero" fill="#FFFFFF">
            <path d="M585,208 L585,209 L582,209 C580.898171,209 580,209.900309 580,211.009478 L580,220.990522 C580,222.107512 580.891917,223 582.000126,223 L592.999874,223 C594.109385,223 595,222.104705 595,220.990522 L595,211.009478 C595,209.892479 594.10813,209 593,209 L590,209 L590,208 L593,208 C594.656854,208 596,209.336631 596,211.009478 L596,220.990522 C596,222.652611 594.666039,224 592.999874,224 L582.000126,224 C580.343202,224 579,222.663369 579,220.990522 L579,211.009478 C579,209.347389 580.346517,208 582,208 L585,208 Z M588,202.707107 L588,216 L587,216 L587,202.706858 L583.352188,206.353605 L582.645184,205.646395 L587.500052,200.792945 L592.353553,205.646447 L591.646447,206.353553 L588,202.707107 Z M585,208 L585,209 L582,209 C580.898171,209 580,209.900309 580,211.009478 L580,220.990522 C580,222.107512 580.891917,223 582.000126,223 L592.999874,223 C594.109385,223 595,222.104705 595,220.990522 L595,211.009478 C595,209.892479 594.10813,209 593,209 L590,209 L590,208 L593,208 C594.656854,208 596,209.336631 596,211.009478 L596,220.990522 C596,222.652611 594.666039,224 592.999874,224 L582.000126,224 C580.343202,224 579,222.663369 579,220.990522 L579,211.009478 C579,209.347389 580.346517,208 582,208 L585,208 Z" id="share"></path>
        </g>
    </g>
</svg>