<?xml version="1.0" encoding="UTF-8"?>
<svg width="21px" height="21px" viewBox="0 0 21 21" version="1.1" xmlns="http://www.w3.org/2000/svg" xmlns:xlink="http://www.w3.org/1999/xlink">
    <!-- Generator: Sketch 46.2 (44496) - http://www.bohemiancoding.com/sketch -->
    <title>smile</title>
    <desc>Created with Sketch.</desc>
    <defs></defs>
    <g id="icons" stroke="none" stroke-width="1" fill="none" fill-rule="evenodd">
        <g id="Artboard" transform="translate(-780.000000, -201.000000)" fill-rule="nonzero" fill="#FFFFFF">
            <path d="M790.5,221 C795.746705,221 800,216.746705 800,211.5 C800,206.253295 795.746705,202 790.5,202 C785.253295,202 781,206.253295 781,211.5 C781,216.746705 785.253295,221 790.5,221 Z M790.5,222 C784.70101,222 780,217.29899 780,211.5 C780,205.70101 784.70101,201 790.5,201 C796.29899,201 801,205.70101 801,211.5 C801,217.29899 796.29899,222 790.5,222 Z M787,210 C786.447715,210 786,209.552285 786,209 C786,208.447715 786.447715,208 787,208 C787.552285,208 788,208.447715 788,209 C788,209.552285 787.552285,210 787,210 Z M787,211 C788.104569,211 789,210.104569 789,209 C789,207.895431 788.104569,207 787,207 C785.895431,207 785,207.895431 785,209 C785,210.104569 785.895431,211 787,211 Z M794,210 C793.447715,210 793,209.552285 793,209 C793,208.447715 793.447715,208 794,208 C794.552285,208 795,208.447715 795,209 C795,209.552285 794.552285,210 794,210 Z M794,211 C795.104569,211 796,210.104569 796,209 C796,207.895431 795.104569,207 794,207 C792.895431,207 792,207.895431 792,209 C792,210.104569 792.895431,211 794,211 Z M796.709651,213.96533 L795.823087,213.502724 C794.796062,215.470971 792.760106,216.731303 790.5,216.731303 C788.245548,216.731303 786.21387,215.477305 785.184247,213.516733 L784.298909,213.981682 C785.499657,216.268102 787.870277,217.731303 790.5,217.731303 C793.136326,217.731303 795.511924,216.26072 796.709651,213.96533 Z" id="smile"></path>
        </g>
    </g>
</svg>