<?xml version="1.0" encoding="UTF-8"?>
<svg width="19px" height="21px" viewBox="0 0 19 21" version="1.1" xmlns="http://www.w3.org/2000/svg" xmlns:xlink="http://www.w3.org/1999/xlink">
    <!-- Generator: Sketch 46.2 (44496) - http://www.bohemiancoding.com/sketch -->
    <title>trash</title>
    <desc>Created with Sketch.</desc>
    <defs></defs>
    <g id="icons" stroke="none" stroke-width="1" fill="none" fill-rule="evenodd">
        <g id="Artboard" transform="translate(-169.000000, -252.000000)" fill-rule="nonzero" fill="#FFFFFF">
            <path d="M175,254 L175,253.5 C175,252.671573 175.671189,252 176.501676,252 L180.498324,252 C181.327677,252 182,252.665797 182,253.5 L182,254 L186.509102,254 C187.332502,254 188,254.665797 188,255.5 C188,256.328427 187.32378,257 186.509102,257 L186,257 L186,270.999894 C186,272.104522 185.106603,273 184.008116,273 L172.991884,273 C171.891797,273 171,272.109942 171,270.999894 L171,257 L170.490898,257 C169.667498,257 169,256.334203 169,255.5 C169,254.671573 169.67622,254 170.490898,254 L175,254 Z M172,270.999894 C172,271.556287 172.442717,272 172.991884,272 L184.008116,272 C184.554071,272 185,271.552479 185,270.999894 L185,257 L172,257 L172,270.999894 Z M170,255.5 C170,255.780688 170.218562,256 170.490898,256 L186.509102,256 C186.774047,256 187,255.773583 187,255.5 C187,255.219312 186.781438,255 186.509102,255 L170.490898,255 C170.225953,255 170,255.226417 170,255.5 Z M181,254 L181,253.5 C181,253.220925 180.778239,253 180.498324,253 L176.501676,253 C176.223733,253 176,253.2236 176,253.5 L176,254 L181,254 Z M183,270 L182,270 L182,259 L183,259 L183,270 Z M179,270 L178,270 L178,259 L179,259 L179,270 Z M175,270 L174,270 L174,259 L175,259 L175,270 Z" id="trash"></path>
        </g>
    </g>
</svg>