<?xml version="1.0" encoding="UTF-8"?>
<svg width="21px" height="21px" viewBox="0 0 21 21" version="1.1" xmlns="http://www.w3.org/2000/svg" xmlns:xlink="http://www.w3.org/1999/xlink">
    <!-- Generator: Sketch 46.2 (44496) - http://www.bohemiancoding.com/sketch -->
    <title>upload</title>
    <desc>Created with Sketch.</desc>
    <defs></defs>
    <g id="icons" stroke="none" stroke-width="1" fill="none" fill-rule="evenodd">
        <g id="Artboard" transform="translate(-372.000000, -252.000000)" fill-rule="nonzero" fill="#FFFFFF">
            <path d="M382.057572,258 L382.500219,257.620588 L382.94227,258 L383,258 L383,258.049549 L386.325648,260.903947 L385.674352,261.662771 L383,259.367379 L383,268 L382,268 L382,259.366426 L379.325396,261.658943 L378.674604,260.899687 L382,258.049348 L382,258 L382.057572,258 Z M382.5,273 C376.70101,273 372,268.29899 372,262.5 C372,256.70101 376.70101,252 382.5,252 C388.29899,252 393,256.70101 393,262.5 C393,268.29899 388.29899,273 382.5,273 Z M382.5,272 C387.746705,272 392,267.746705 392,262.5 C392,257.253295 387.746705,253 382.5,253 C377.253295,253 373,257.253295 373,262.5 C373,267.746705 377.253295,272 382.5,272 Z" id="upload"></path>
        </g>
    </g>
</svg>