<?xml version="1.0" encoding="UTF-8"?>
<svg width="6px" height="22px" viewBox="0 0 6 22" version="1.1" xmlns="http://www.w3.org/2000/svg" xmlns:xlink="http://www.w3.org/1999/xlink">
    <!-- Generator: Sketch 46.2 (44496) - http://www.bohemiancoding.com/sketch -->
    <title>v-dots</title>
    <desc>Created with Sketch.</desc>
    <defs></defs>
    <g id="icons" stroke="none" stroke-width="1" fill="none" fill-rule="evenodd">
        <g id="Artboard" transform="translate(-277.000000, -151.000000)" fill-rule="nonzero" fill="#FFFFFF">
            <path d="M280,156 C281.104569,156 282,155.104569 282,154 C282,152.895431 281.104569,152 280,152 C278.895431,152 278,152.895431 278,154 C278,155.104569 278.895431,156 280,156 Z M280,157 C278.343146,157 277,155.656854 277,154 C277,152.343146 278.343146,151 280,151 C281.656854,151 283,152.343146 283,154 C283,155.656854 281.656854,157 280,157 Z M280,165 C278.343146,165 277,163.656854 277,162 C277,160.343146 278.343146,159 280,159 C281.656854,159 283,160.343146 283,162 C283,163.656854 281.656854,165 280,165 Z M280,164 C281.104569,164 282,163.104569 282,162 C282,160.895431 281.104569,160 280,160 C278.895431,160 278,160.895431 278,162 C278,163.104569 278.895431,164 280,164 Z M280,173 C278.343146,173 277,171.656854 277,170 C277,168.343146 278.343146,167 280,167 C281.656854,167 283,168.343146 283,170 C283,171.656854 281.656854,173 280,173 Z M280,172 C281.104569,172 282,171.104569 282,170 C282,168.895431 281.104569,168 280,168 C278.895431,168 278,168.895431 278,170 C278,171.104569 278.895431,172 280,172 Z" id="v-dots"></path>
        </g>
    </g>
</svg>