<?xml version="1.0" encoding="UTF-8"?>
<svg width="22px" height="17px" viewBox="0 0 22 17" version="1.1" xmlns="http://www.w3.org/2000/svg" xmlns:xlink="http://www.w3.org/1999/xlink">
    <!-- Generator: Sketch 46.2 (44496) - http://www.bohemiancoding.com/sketch -->
    <title>wireless</title>
    <desc>Created with Sketch.</desc>
    <defs></defs>
    <g id="icons" stroke="none" stroke-width="1" fill="none" fill-rule="evenodd">
        <g id="Artboard" transform="translate(-372.000000, -204.000000)" fill-rule="nonzero" fill="#FFFFFF">
            <path d="M383,220 C383.552285,220 384,219.552285 384,219 C384,218.447715 383.552285,218 383,218 C382.447715,218 382,218.447715 382,219 C382,219.552285 382.447715,220 383,220 Z M383,221 C381.895431,221 381,220.104569 381,219 C381,217.895431 381.895431,217 383,217 C384.104569,217 385,217.895431 385,219 C385,220.104569 384.104569,221 383,221 Z M387.44213,214.75635 L386.634955,215.346664 C385.792217,214.194333 384.454531,213.5 383,213.5 C381.553892,213.5 380.22307,214.186248 379.379195,215.327422 L378.575153,214.73285 C379.605628,213.339336 381.233329,212.5 383,212.5 C384.776975,212.5 386.413039,213.349208 387.44213,214.75635 Z M390.908669,212.734911 L390.076745,213.2898 C388.509474,210.940051 385.877354,209.5 383,209.5 C380.118337,209.5 377.482779,210.944399 375.916512,213.299926 L375.083796,212.746225 C376.833523,210.114791 379.779991,208.5 383,208.5 C386.215191,208.5 389.157823,210.109934 390.908669,212.734911 Z M393.572191,209.604023 L392.789485,210.226414 C390.431711,207.261325 386.861279,205.5 383,205.5 C379.145958,205.5 375.581507,207.25468 373.223334,210.21032 L372.441648,209.586648 C374.987595,206.39566 378.838432,204.5 383,204.5 C387.169387,204.5 391.026676,206.402834 393.572191,209.604023 Z" id="wireless"></path>
        </g>
    </g>
</svg>