<?xml version="1.0" encoding="UTF-8"?>
<svg width="22px" height="14px" viewBox="0 0 22 14" version="1.1" xmlns="http://www.w3.org/2000/svg" xmlns:xlink="http://www.w3.org/1999/xlink">
    <!-- Generator: Sketch 47.1 (45422) - http://www.bohemiancoding.com/sketch -->
    <title>bullet-list</title>
    <desc>Created with Sketch.</desc>
    <defs></defs>
    <g id="Stage" stroke="none" stroke-width="1" fill="none" fill-rule="evenodd">
        <g id="Artboard" transform="translate(-473.000000, -105.000000)" fill-rule="nonzero" fill="#FFFFFF">
            <path d="M479,107 C478.447715,107 478,106.552285 478,106 C478,105.447715 478.447715,105 479,105 L493.998934,105 C494.551218,105 494.998934,105.447715 494.998934,106 C494.998934,106.552285 494.551218,107 493.998934,107 L479,107 Z M479,113 C478.447715,113 478,112.552285 478,112 C478,111.447715 478.447715,111 479,111 L493.998934,111 C494.551218,111 494.998934,111.447715 494.998934,112 C494.998934,112.552285 494.551218,113 493.998934,113 L479,113 Z M479,119 C478.447715,119 478,118.552285 478,118 C478,117.447715 478.447715,117 479,117 L493.998934,117 C494.551218,117 494.998934,117.447715 494.998934,118 C494.998934,118.552285 494.551218,119 493.998934,119 L479,119 Z M474,107 C473.447715,107 473,106.552285 473,106 C473,105.447715 473.447715,105 474,105 L474.998934,105 C475.551218,105 475.998934,105.447715 475.998934,106 C475.998934,106.552285 475.551218,107 474.998934,107 L474,107 Z M474,113 C473.447715,113 473,112.552285 473,112 C473,111.447715 473.447715,111 474,111 L474.998934,111 C475.551218,111 475.998934,111.447715 475.998934,112 C475.998934,112.552285 475.551218,113 474.998934,113 L474,113 Z M474,119 C473.447715,119 473,118.552285 473,118 C473,117.447715 473.447715,117 474,117 L474.998934,117 C475.551218,117 475.998934,117.447715 475.998934,118 C475.998934,118.552285 475.551218,119 474.998934,119 L474,119 Z" id="bullet-list"></path>
        </g>
    </g>
</svg>