<?xml version="1.0" encoding="UTF-8"?>
<svg width="24px" height="20px" viewBox="0 0 24 20" version="1.1" xmlns="http://www.w3.org/2000/svg" xmlns:xlink="http://www.w3.org/1999/xlink">
    <!-- Generator: Sketch 47.1 (45422) - http://www.bohemiancoding.com/sketch -->
    <title>comment</title>
    <desc>Created with Sketch.</desc>
    <defs></defs>
    <g id="Stage" stroke="none" stroke-width="1" fill="none" fill-rule="evenodd">
        <g id="Artboard" transform="translate(-625.000000, -102.000000)" fill-rule="nonzero" fill="#FFFFFF">
            <path d="M629,121.798622 L629,118 L628,118 C626.343146,118 625,116.656854 625,115 L625,105 C625,103.343146 626.343146,102 628,102 L646,102 C647.656854,102 649,103.343146 649,105 L649,115 C649,116.656854 647.656854,118 646,118 L635.11379,118 L629,121.798622 Z M634.543065,116 L646,116 C646.552285,116 647,115.552285 647,115 L647,105 C647,104.447715 646.552285,104 646,104 L628,104 C627.447715,104 627,104.447715 627,105 L627,115 C627,115.552285 627.447715,116 628,116 L631,116 L631,118.201378 L634.543065,116 Z M629,109 L629,107 L644.998934,107 L644.998934,109 L629,109 Z M629,113 L629,111 L639.998934,111 L639.998934,113 L629,113 Z" id="comment"></path>
        </g>
    </g>
</svg>