<?xml version="1.0" encoding="UTF-8"?>
<svg width="24px" height="14px" viewBox="0 0 24 14" version="1.1" xmlns="http://www.w3.org/2000/svg" xmlns:xlink="http://www.w3.org/1999/xlink">
    <!-- Generator: Sketch 47.1 (45422) - http://www.bohemiancoding.com/sketch -->
    <title>keyboard</title>
    <desc>Created with Sketch.</desc>
    <defs></defs>
    <g id="Stage" stroke="none" stroke-width="1" fill="none" fill-rule="evenodd">
        <g id="Artboard" transform="translate(-115.000000, -106.000000)" fill-rule="nonzero" fill="#FFFFFF">
            <path d="M117,108 L117,118 L137,118 L137,108 L117,108 Z M117,106 L137,106 C138.104569,106 139,106.895431 139,108 L139,118 C139,119.104569 138.104569,120 137,120 L117,120 C115.895431,120 115,119.104569 115,118 L115,108 C115,106.895431 115.895431,106 117,106 Z M118,111 L120,111 L120,109 L118,109 L118,111 Z M121,111 L123,111 L123,109 L121,109 L121,111 Z M124,111 L126,111 L126,109 L124,109 L124,111 Z M127,111 L129,111 L129,109 L127,109 L127,111 Z M130,111 L132,111 L132,109 L130,109 L130,111 Z M122,114 L124,114 L124,112 L122,112 L122,114 Z M125,114 L127,114 L127,112 L125,112 L125,114 Z M128,114 L130,114 L130,112 L128,112 L128,114 Z M131,114 L133,114 L133,112 L131,112 L131,114 Z M134,114 L136,114 L136,112 L134,112 L134,114 Z M118,114 L121,114 L121,112 L118,112 L118,114 Z M133,111 L135,111 L135,109 L133,109 L133,111 Z M118,117 L120,117 L120,115 L118,115 L118,117 Z M121,117 L133,117 L133,115 L121,115 L121,117 Z M134,117 L136,117 L136,115 L134,115 L134,117 Z" id="keyboard"></path>
        </g>
    </g>
</svg>