<?xml version="1.0" encoding="UTF-8"?>
<svg width="24px" height="14px" viewBox="0 0 24 14" version="1.1" xmlns="http://www.w3.org/2000/svg" xmlns:xlink="http://www.w3.org/1999/xlink">
    <!-- Generator: Sketch 47.1 (45422) - http://www.bohemiancoding.com/sketch -->
    <title>link</title>
    <desc>Created with Sketch.</desc>
    <defs></defs>
    <g id="Stage" stroke="none" stroke-width="1" fill="none" fill-rule="evenodd">
        <g id="Artboard" transform="translate(-574.000000, -105.000000)" fill-rule="nonzero" fill="#FFFFFF">
            <path d="M594.389989,111.340521 L595.31839,109.569061 C596.953055,110.425769 598,112.120399 598,114 C598,116.761424 595.761424,119 593,119 L584,119 C581.238576,119 579,116.761424 579,114 C579,111.238576 581.238576,109 584,109 L589.016966,109 L589.016966,111 L584,111 C582.343146,111 581,112.343146 581,114 C581,115.656854 582.343146,117 584,117 L593,117 C594.656854,117 596,115.656854 596,114 C596,112.871546 595.37213,111.855249 594.389989,111.340521 Z M577.610011,112.659479 L576.68161,114.430939 C575.046945,113.574231 574,111.879601 574,110 C574,107.238576 576.238576,105 579,105 L588,105 C590.761424,105 593,107.238576 593,110 C593,112.761424 590.761424,115 588,115 L582.983034,115 L582.983034,113 L588,113 C589.656854,113 591,111.656854 591,110 C591,108.343146 589.656854,107 588,107 L579,107 C577.343146,107 576,108.343146 576,110 C576,111.128454 576.62787,112.144751 577.610011,112.659479 Z" id="link"></path>
        </g>
    </g>
</svg>