<?xml version="1.0" encoding="UTF-8"?>
<svg width="22px" height="20px" viewBox="0 0 22 20" version="1.1" xmlns="http://www.w3.org/2000/svg" xmlns:xlink="http://www.w3.org/1999/xlink">
    <!-- Generator: Sketch 48.2 (47327) - http://www.bohemiancoding.com/sketch -->
    <title>redo</title>
    <desc>Created with Sketch.</desc>
    <defs></defs>
    <g id="Artboard" stroke="none" stroke-width="1" fill="none" fill-rule="evenodd" transform="translate(-65.000000, -152.000000)">
        <path d="M73,163 C73,162.447715 73.4477153,162 74,162 C78.6444071,162 82.1419433,163.261373 84.4120145,165.7614 C83.1154239,160.793392 79.6642351,158.263459 73.9537262,157.998929 C73.4200059,157.974205 73,157.534293 73,157 L73,155.203768 L67.5185923,160 L73,164.796232 L73,163 Z M75,167 C75,167.859159 73.9880783,168.318337 73.3414954,167.752577 L65.3414954,160.752577 C64.8861682,160.354165 64.8861682,159.645835 65.3414954,159.247423 L73.3414954,152.247423 C73.9880783,151.681663 75,152.140841 75,153 L75,156.066322 C82.943994,156.791872 87.0131786,161.884286 87.0000614,171.001439 C86.998366,172.179837 85.3157339,172.385756 85.0299217,171.242543 C83.8824739,166.652895 80.6201642,164.2687 75,164.021466 L75,167 Z" id="redo" fill="#FFFFFF" fill-rule="nonzero" transform="translate(76.000047, 161.999338) scale(-1, 1) translate(-76.000047, -161.999338) "></path>
    </g>
</svg>