<?xml version="1.0" encoding="UTF-8"?>
<svg width="24px" height="21px" viewBox="0 0 24 21" version="1.1" xmlns="http://www.w3.org/2000/svg" xmlns:xlink="http://www.w3.org/1999/xlink">
    <!-- Generator: Sketch 48.2 (47327) - http://www.bohemiancoding.com/sketch -->
    <title>share</title>
    <desc>Created with Sketch.</desc>
    <defs></defs>
    <g id="Artboard" stroke="none" stroke-width="1" fill="none" fill-rule="evenodd" transform="translate(-217.000000, -301.000000)">
        <path d="M225,306 L225,307 L220,307 C218.895431,307 218,307.895431 218,309 L218,319 C218,320.104569 218.895431,321 220,321 L236,321 C237.104569,321 238,320.104569 238,319 L238,314 L239,314 L239,319 C239,320.656854 237.656854,322 236,322 L220,322 C218.343146,322 217,320.656854 217,319 L217,309 C217,307.343146 218.343146,306 220,306 L225,306 Z M233,312 C232.674432,312 232.352524,312.011426 232,312.036783 C228.122326,312.325452 224.788993,314.313191 222,318 C223.003301,311.333333 226.669968,307 233,305 L233,301 L241,308 L233,316 L233,312 Z M234,311 L234,313.585786 L239.537076,308.04871 L234,303.203768 L234,305.732772 L233.301274,305.953538 C228.600914,307.438636 225.49229,310.250024 223.922456,314.454137 C226.564195,312.161185 229.598776,311 233,311 L234,311 Z" id="share" fill="#FFFFFF" fill-rule="nonzero"></path>
    </g>
</svg>