<?xml version="1.0" encoding="UTF-8"?>
<svg width="24px" height="17px" viewBox="0 0 24 17" version="1.1" xmlns="http://www.w3.org/2000/svg" xmlns:xlink="http://www.w3.org/1999/xlink">
    <!-- Generator: Sketch 47.1 (45422) - http://www.bohemiancoding.com/sketch -->
    <title>center</title>
    <desc>Created with Sketch.</desc>
    <defs></defs>
    <g id="Stage" stroke="none" stroke-width="1" fill="none" fill-rule="evenodd">
        <g id="Artboard" transform="translate(-727.000000, -104.000000)" fill-rule="nonzero" fill="#FFFFFF">
            <path d="M728,106 C727.447715,106 727,105.552285 727,105 C727,104.447715 727.447715,104 728,104 L749.998934,104 C750.551218,104 750.998934,104.447715 750.998934,105 C750.998934,105.552285 750.551218,106 749.998934,106 L728,106 Z M731,111 C730.447715,111 730,110.552285 730,110 C730,109.447715 730.447715,109 731,109 L747.998934,109 C748.551218,109 748.998934,109.447715 748.998934,110 C748.998934,110.552285 748.551218,111 747.998934,111 L731,111 Z M728,116 C727.447715,116 727,115.552285 727,115 C727,114.447715 727.447715,114 728,114 L749.998934,114 C750.551218,114 750.998934,114.447715 750.998934,115 C750.998934,115.552285 750.551218,116 749.998934,116 L728,116 Z M731,121 C730.447715,121 730,120.552285 730,120 C730,119.447715 730.447715,119 731,119 L747.998934,119 C748.551218,119 748.998934,119.447715 748.998934,120 C748.998934,120.552285 748.551218,121 747.998934,121 L731,121 Z" id="center"></path>
        </g>
    </g>
</svg>