<?xml version="1.0" encoding="UTF-8"?>
<svg width="24px" height="17px" viewBox="0 0 24 17" version="1.1" xmlns="http://www.w3.org/2000/svg" xmlns:xlink="http://www.w3.org/1999/xlink">
    <!-- Generator: Sketch 47.1 (45422) - http://www.bohemiancoding.com/sketch -->
    <title>left</title>
    <desc>Created with Sketch.</desc>
    <defs></defs>
    <g id="Stage" stroke="none" stroke-width="1" fill="none" fill-rule="evenodd">
        <g id="Artboard" transform="translate(-676.000000, -104.000000)" fill-rule="nonzero" fill="#FFFFFF">
            <path d="M677,106 C676.447715,106 676,105.552285 676,105 C676,104.447715 676.447715,104 677,104 L698.998934,104 C699.551218,104 699.998934,104.447715 699.998934,105 C699.998934,105.552285 699.551218,106 698.998934,106 L677,106 Z M677,111 C676.447715,111 676,110.552285 676,110 C676,109.447715 676.447715,109 677,109 L693.998934,109 C694.551218,109 694.998934,109.447715 694.998934,110 C694.998934,110.552285 694.551218,111 693.998934,111 L677,111 Z M677,116 C676.447715,116 676,115.552285 676,115 C676,114.447715 676.447715,114 677,114 L698.998934,114 C699.551218,114 699.998934,114.447715 699.998934,115 C699.998934,115.552285 699.551218,116 698.998934,116 L677,116 Z M677,121 C676.447715,121 676,120.552285 676,120 C676,119.447715 676.447715,119 677,119 L693.998934,119 C694.551218,119 694.998934,119.447715 694.998934,120 C694.998934,120.552285 694.551218,121 693.998934,121 L677,121 Z" id="left"></path>
        </g>
    </g>
</svg>