<?xml version="1.0" encoding="UTF-8"?>
<svg width="24px" height="17px" viewBox="0 0 24 17" version="1.1" xmlns="http://www.w3.org/2000/svg" xmlns:xlink="http://www.w3.org/1999/xlink">
    <!-- Generator: Sketch 47.1 (45422) - http://www.bohemiancoding.com/sketch -->
    <title>right</title>
    <desc>Created with Sketch.</desc>
    <defs></defs>
    <g id="Stage" stroke="none" stroke-width="1" fill="none" fill-rule="evenodd">
        <g id="Artboard" transform="translate(-778.000000, -104.000000)" fill-rule="nonzero" fill="#FFFFFF">
            <path d="M779,106 C778.447715,106 778,105.552285 778,105 C778,104.447715 778.447715,104 779,104 L800.998934,104 C801.551218,104 801.998934,104.447715 801.998934,105 C801.998934,105.552285 801.551218,106 800.998934,106 L779,106 Z M784,111 C783.447715,111 783,110.552285 783,110 C783,109.447715 783.447715,109 784,109 L800.998934,109 C801.551218,109 801.998934,109.447715 801.998934,110 C801.998934,110.552285 801.551218,111 800.998934,111 L784,111 Z M779,116 C778.447715,116 778,115.552285 778,115 C778,114.447715 778.447715,114 779,114 L800.998934,114 C801.551218,114 801.998934,114.447715 801.998934,115 C801.998934,115.552285 801.551218,116 800.998934,116 L779,116 Z M784,121 C783.447715,121 783,120.552285 783,120 C783,119.447715 783.447715,119 784,119 L800.998934,119 C801.551218,119 801.998934,119.447715 801.998934,120 C801.998934,120.552285 801.551218,121 800.998934,121 L784,121 Z" id="right"></path>
        </g>
    </g>
</svg>