<?xml version="1.0" encoding="UTF-8"?>
<svg width="24px" height="17px" viewBox="0 0 24 17" version="1.1" xmlns="http://www.w3.org/2000/svg" xmlns:xlink="http://www.w3.org/1999/xlink">
    <!-- Generator: Sketch 47.1 (45422) - http://www.bohemiancoding.com/sketch -->
    <title>wide</title>
    <desc>Created with Sketch.</desc>
    <defs></defs>
    <g id="Stage" stroke="none" stroke-width="1" fill="none" fill-rule="evenodd">
        <g id="Artboard" transform="translate(-829.000000, -104.000000)" fill-rule="nonzero" fill="#FFFFFF">
            <path d="M830,106 C829.447715,106 829,105.552285 829,105 C829,104.447715 829.447715,104 830,104 L851.998934,104 C852.551218,104 852.998934,104.447715 852.998934,105 C852.998934,105.552285 852.551218,106 851.998934,106 L830,106 Z M830,111 C829.447715,111 829,110.552285 829,110 C829,109.447715 829.447715,109 830,109 L851.998934,109 C852.551218,109 852.998934,109.447715 852.998934,110 C852.998934,110.552285 852.551218,111 851.998934,111 L830,111 Z M830,116 C829.447715,116 829,115.552285 829,115 C829,114.447715 829.447715,114 830,114 L851.998934,114 C852.551218,114 852.998934,114.447715 852.998934,115 C852.998934,115.552285 852.551218,116 851.998934,116 L830,116 Z M830,121 C829.447715,121 829,120.552285 829,120 C829,119.447715 829.447715,119 830,119 L851.998934,119 C852.551218,119 852.998934,119.447715 852.998934,120 C852.998934,120.552285 852.551218,121 851.998934,121 L830,121 Z" id="wide"></path>
        </g>
    </g>
</svg>