<?xml version="1.0" encoding="UTF-8"?>
<svg width="21px" height="24px" viewBox="0 0 21 24" version="1.1" xmlns="http://www.w3.org/2000/svg" xmlns:xlink="http://www.w3.org/1999/xlink">
    <!-- Generator: Sketch 46.2 (44496) - http://www.bohemiancoding.com/sketch -->
    <title>android</title>
    <desc>Created with Sketch.</desc>
    <defs></defs>
    <g id="icons" stroke="none" stroke-width="1" fill="none" fill-rule="evenodd">
        <g id="Artboard" transform="translate(-933.000000, -100.000000)" fill="#FFFFFF">
            <path d="M953.314167,109.241897 C953.314037,108.423827 952.650955,107.76081 951.83295,107.76094 C951.01501,107.760354 950.351993,108.424543 950.352188,109.242679 L950.35323,115.445799 C950.353165,116.264716 951.015922,116.92656 951.834448,116.926821 C952.652388,116.926691 953.315079,116.264716 953.315275,115.445147 L953.314167,109.241897 Z M936.537306,108.042643 L936.539586,117.655638 C936.53887,118.530062 937.246122,119.235816 938.12009,119.236012 L939.196279,119.236468 L939.197517,122.518587 C939.197322,123.335615 939.861576,124 940.677692,124 C941.496219,124 942.159301,123.335094 942.159496,122.517545 L942.158715,119.236077 L944.158515,119.235686 L944.159362,122.517675 C944.159166,123.334312 944.823812,123.999739 945.640058,123.998436 C946.458519,123.998958 947.121992,123.334051 947.121862,122.516372 L947.12095,119.23523 L948.200918,119.234448 C949.072736,119.234774 949.781943,118.527977 949.782138,117.653553 L949.78051,108.040427 L936.537306,108.042643 Z M946.194472,105.109068 C945.885994,105.109394 945.634911,104.859289 945.634976,104.549703 C945.636019,104.243244 945.885668,103.990272 946.194733,103.989164 C946.501517,103.990076 946.753186,104.242983 946.752926,104.550093 C946.753642,104.858963 946.50282,105.109133 946.194472,105.109068 L946.194472,105.109068 Z M940.118913,105.110176 C939.811607,105.109459 939.561307,104.859679 939.561242,104.551136 C939.561372,104.243765 939.811086,103.991054 940.119369,103.991119 C940.42876,103.990858 940.678995,104.243765 940.679386,104.551006 C940.679517,104.859354 940.428695,105.10998 940.118913,105.110176 L940.118913,105.110176 Z M946.426401,102.192693 L947.460309,100.304623 C947.515424,100.205988 947.479267,100.080316 947.379199,100.024614 C947.278414,99.9711922 947.153785,100.00748 947.100493,100.106832 L946.056227,102.014577 C945.177308,101.62362 944.194151,101.404135 943.153663,101.405307 C942.115912,101.40446 941.133016,101.622969 940.25794,102.01171 L939.212566,100.108981 C939.158102,100.008587 939.033147,99.9722997 938.934382,100.026959 C938.833728,100.081098 938.797049,100.206965 938.852751,100.305404 L939.887115,102.192041 C937.854805,103.240217 936.481734,105.236043 936.482842,107.527448 L949.825918,107.52608 C949.826309,105.235 948.455714,103.243344 946.426401,102.192693 L946.426401,102.192693 Z M934.481152,107.76296 C933.663147,107.762569 933.000195,108.426889 933,109.244177 L933.001108,115.447167 C933.001303,116.267257 933.664515,116.928971 934.482586,116.928841 C935.301112,116.928906 935.964194,116.266801 935.963347,115.447232 L935.963478,109.24333 C935.963152,108.426237 935.299223,107.762373 934.481152,107.76296 L934.481152,107.76296 Z" id="android"></path>
        </g>
    </g>
</svg>