<?xml version="1.0" encoding="UTF-8"?>
<svg width="21px" height="24px" viewBox="0 0 21 24" version="1.1" xmlns="http://www.w3.org/2000/svg" xmlns:xlink="http://www.w3.org/1999/xlink">
    <!-- Generator: Sketch 46.2 (44496) - http://www.bohemiancoding.com/sketch -->
    <title>apple</title>
    <desc>Created with Sketch.</desc>
    <defs></defs>
    <g id="icons" stroke="none" stroke-width="1" fill="none" fill-rule="evenodd">
        <g id="Artboard" transform="translate(-882.000000, -100.000000)" fill-rule="nonzero" fill="#FFFFFF">
            <path d="M901.791994,118.703287 C901.429042,119.54178 900.999426,120.313608 900.501663,121.023216 C899.823165,121.990595 899.267626,122.660204 898.839491,123.032045 C898.175807,123.642397 897.464718,123.95498 896.703259,123.972757 C896.156609,123.972757 895.49737,123.817206 894.729986,123.50166 C893.960083,123.187595 893.252549,123.032045 892.605605,123.032045 C891.927107,123.032045 891.199426,123.187595 890.421079,123.50166 C889.641547,123.817206 889.013566,123.981646 888.533432,123.997941 C887.803232,124.029052 887.075402,123.70758 886.348906,123.032045 C885.885216,122.627612 885.305233,121.9343 884.61044,120.952107 C883.864981,119.90325 883.25211,118.686991 882.771977,117.300366 C882.25777,115.802634 882,114.352307 882,112.948201 C882,111.339805 882.347545,109.952588 883.043672,108.790105 C883.590767,107.856355 884.318597,107.119785 885.229532,106.57906 C886.140467,106.038336 887.124734,105.762789 888.184702,105.74516 C888.764684,105.74516 889.525254,105.924562 890.470411,106.277144 C891.412901,106.630911 892.018068,106.810313 892.283393,106.810313 C892.481757,106.810313 893.154033,106.600541 894.293703,106.182332 C895.371448,105.794492 896.28105,105.633904 897.026213,105.697161 C899.045411,105.860119 900.562402,106.656095 901.57126,108.090126 C899.765389,109.184315 898.872083,110.716861 898.88986,112.682876 C898.906156,114.214237 899.461694,115.488569 900.553513,116.50039 C901.048313,116.970006 901.600889,117.332958 902.215685,117.590728 C902.082356,117.977383 901.94162,118.347742 901.791994,118.703287 L901.791994,118.703287 Z M897.161023,100.480134 C897.161023,101.680408 896.722518,102.801101 895.84847,103.838403 C894.793687,105.07155 893.517874,105.784121 892.13436,105.67168 C892.116731,105.527685 892.106509,105.376134 892.106509,105.216879 C892.106509,104.064618 892.608124,102.83147 893.498912,101.823204 C893.943639,101.312701 894.509252,100.888225 895.195157,100.549613 C895.879581,100.216053 896.526968,100.031584 897.135839,100 C897.153616,100.160454 897.161023,100.320924 897.161023,100.480119 L897.161023,100.480134 Z" id="apple"></path>
        </g>
    </g>
</svg>