<?xml version="1.0" encoding="UTF-8"?>
<svg width="18px" height="18px" viewBox="0 0 18 18" version="1.1" xmlns="http://www.w3.org/2000/svg" xmlns:xlink="http://www.w3.org/1999/xlink">
    <!-- Generator: Sketch 46.2 (44496) - http://www.bohemiancoding.com/sketch -->
    <title>google</title>
    <desc>Created with Sketch.</desc>
    <defs></defs>
    <g id="icons" stroke="none" stroke-width="1" fill="none" fill-rule="evenodd">
        <g id="Artboard" transform="translate(-373.000000, -103.000000)" fill="#FFFFFF">
            <path d="M381.991,113.71 L381.991,110.362 L390.415,110.362 C390.541,110.929 390.64,111.46 390.64,112.207 C390.64,117.346 387.193,121 382,121 C377.032,121 373,116.968 373,112 C373,107.032 377.032,103 382,103 C384.43,103 386.464,103.891 388.021,105.349 L385.465,107.833 C384.817,107.221 383.683,106.501 382,106.501 C379.021,106.501 376.591,108.976 376.591,112.009 C376.591,115.042 379.021,117.517 382,117.517 C385.447,117.517 386.716,115.132 386.95,113.719 L381.991,113.719 L381.991,113.71 Z" id="google"></path>
        </g>
    </g>
</svg>