<?xml version="1.0" encoding="UTF-8"?>
<svg width="24px" height="24px" viewBox="0 0 24 24" version="1.1" xmlns="http://www.w3.org/2000/svg" xmlns:xlink="http://www.w3.org/1999/xlink">
    <!-- Generator: Sketch 46.2 (44496) - http://www.bohemiancoding.com/sketch -->
    <title>pinterest</title>
    <desc>Created with Sketch.</desc>
    <defs></defs>
    <g id="icons" stroke="none" stroke-width="1" fill="none" fill-rule="evenodd">
        <g id="Artboard" transform="translate(-574.000000, -100.000000)" fill="#FFFFFF">
            <path d="M574,112 C574,117.083249 577.16318,121.42548 581.626605,123.174145 C581.522724,122.225364 581.4275,120.769297 581.668158,119.732218 C581.886308,118.795556 583.075747,113.76771 583.075747,113.76771 C583.075747,113.76771 582.717357,113.049199 582.717357,111.986149 C582.717357,110.317126 583.683451,109.072284 584.888472,109.072284 C585.911701,109.072284 586.406868,109.839273 586.406868,110.762083 C586.406868,111.790506 585.750685,113.33141 585.413072,114.758044 C585.12913,115.950945 586.012119,116.925696 587.189439,116.925696 C589.322464,116.925696 590.962055,114.67667 590.962055,111.430385 C590.962055,108.558072 588.896552,106.547973 585.949791,106.547973 C582.535565,106.547973 580.530659,109.108642 580.530659,111.755879 C580.530659,112.787765 580.92887,113.894099 581.424037,114.494878 C581.522724,114.61261 581.536575,114.718222 581.507142,114.839417 C581.41538,115.218583 581.214543,116.032319 581.174722,116.20026 C581.12105,116.420141 580.999856,116.465157 580.773049,116.359544 C579.273698,115.661809 578.337037,113.471649 578.337037,111.710864 C578.337037,107.926129 581.086423,104.449574 586.264897,104.449574 C590.428798,104.449574 593.662963,107.41538 593.662963,111.380176 C593.662963,115.516376 591.055548,118.844034 587.437022,118.844034 C586.219882,118.844034 585.077189,118.212091 584.685904,117.465878 C584.685904,117.465878 584.085125,119.758188 583.93796,120.319146 C583.667869,121.36142 582.935507,122.66859 582.447266,123.465012 C583.569182,123.813014 584.763815,124 586,124 C592.627615,124 598,118.627615 598,112 C598,105.372385 592.627615,100 586,100 C579.372385,100 574,105.372385 574,112 Z" id="pinterest"></path>
        </g>
    </g>
</svg>