<?xml version="1.0" encoding="UTF-8"?>
<svg width="14px" height="24px" viewBox="0 0 14 24" version="1.1" xmlns="http://www.w3.org/2000/svg" xmlns:xlink="http://www.w3.org/1999/xlink">
    <!-- Generator: Sketch 46.2 (44496) - http://www.bohemiancoding.com/sketch -->
    <title>tumblr</title>
    <desc>Created with Sketch.</desc>
    <defs></defs>
    <g id="icons" stroke="none" stroke-width="1" fill="none" fill-rule="evenodd">
        <g id="Artboard" transform="translate(-528.000000, -100.000000)" fill-rule="nonzero" fill="#FFFFFF">
            <path d="M540.845743,119.170369 C540.399463,119.383213 539.545984,119.568399 538.909557,119.584332 C536.988101,119.635739 536.615173,118.234668 536.599691,117.219 L536.599691,109.747673 L541.41949,109.747673 L541.41949,106.113697 L536.616376,106.113697 L536.616376,100 L533.101597,100 C533.043727,100 532.942716,100.050656 532.928436,100.179174 C532.722808,102.050275 531.847383,105.334322 528.206191,106.647459 L528.206191,109.747523 L530.635255,109.747523 L530.635255,117.588922 C530.635255,120.27397 532.615785,124.088473 537.844135,123.998435 C539.608213,123.968222 541.567398,123.229883 542,122.592404 L540.845743,119.170369" id="tumblr"></path>
        </g>
    </g>
</svg>