<?xml version="1.0" encoding="UTF-8"?>
<svg width="24px" height="21px" viewBox="0 0 24 21" version="1.1" xmlns="http://www.w3.org/2000/svg" xmlns:xlink="http://www.w3.org/1999/xlink">
    <!-- Generator: Sketch 46.2 (44496) - http://www.bohemiancoding.com/sketch -->
    <title>vimeo</title>
    <desc>Created with Sketch.</desc>
    <defs></defs>
    <g id="icons" stroke="none" stroke-width="1" fill="none" fill-rule="evenodd">
        <g id="Artboard" transform="translate(-625.000000, -102.000000)" fill="#FFFFFF">
            <path d="M648.988395,106.812055 C648.881594,109.15279 647.249824,112.358011 644.093803,116.426037 C640.830742,120.675504 638.070004,122.799998 635.81159,122.799998 C634.413101,122.799998 633.228693,121.50639 632.261967,118.918213 C631.615883,116.545798 630.970519,114.173622 630.324674,111.801207 C629.60635,109.21447 628.836185,107.919422 628.012739,107.919422 C627.833218,107.919422 627.204894,108.297904 626.129207,109.051989 L625,107.59446 C626.184408,106.551653 627.352975,105.509086 628.502583,104.46508 C630.082273,103.097311 631.26812,102.378026 632.058446,102.305306 C633.926378,102.125544 635.075985,103.404753 635.507508,106.14317 C635.973831,109.097589 636.296393,110.935281 636.477834,111.654566 C637.016158,114.105702 637.608481,115.32971 638.255766,115.32971 C638.758089,115.32971 639.512654,114.534825 640.51874,112.945054 C641.523867,111.354804 642.06219,110.144956 642.134911,109.313831 C642.277952,107.941502 641.739388,107.253658 640.51874,107.253658 C639.944177,107.253658 639.351853,107.386138 638.742489,107.64798 C639.921856,103.776995 642.175471,101.897063 645.501892,102.004344 C647.967908,102.076824 649.130476,103.679314 648.988395,106.812055" id="vimeo"></path>
        </g>
    </g>
</svg>