<?xml version="1.0" encoding="UTF-8"?>
<svg width="24px" height="8px" viewBox="0 0 24 8" version="1.1" xmlns="http://www.w3.org/2000/svg" xmlns:xlink="http://www.w3.org/1999/xlink">
    <!-- Generator: Sketch 46.2 (44496) - http://www.bohemiancoding.com/sketch -->
    <title>visa</title>
    <desc>Created with Sketch.</desc>
    <defs></defs>
    <g id="icons" stroke="none" stroke-width="1" fill="none" fill-rule="evenodd">
        <g id="Artboard" transform="translate(-13.000000, -158.000000)" fill="#FFFFFF">
            <path d="M23.387,165.7678 L21.4404,165.7678 L22.657,158.291 L24.6038,158.291 L23.387,165.7678 Z M17.9468,163.4334 L19.8028,158.291 L21.8978,158.291 L18.8008,165.7678 L16.7726,165.7678 C16.7726,165.7678 15.2568512,159.536392 15.030365,159.2724 C14.6075745,158.783798 13.0454,158.4174 13.0454,158.4174 L13.0812,158.291 L16.149,158.291 C16.9934,158.291 17.0724,158.9644 17.0724,158.9644 L17.7274,162.326 L17.9468,163.4334 Z M35.1138,165.7678 L34.8856,164.6574 L32.411,164.6574 L32.005,165.7678 L29.9762,165.7678 L32.8792,158.8482 C32.8792,158.8482 33.055,158.291 33.7778,158.291 L35.3428,158.291 L36.9012,165.7678 L35.1138,165.7678 Z M32.9718,163.123 L34.5702,163.123 L33.9948,160.3248 L32.9718,163.123 Z M30.1284,160.089 C29.2954,159.63 27.3996,159.5214 27.3996,160.3666 C27.3996,161.2118 30.1162,161.3928 30.1162,163.3368 C30.1162,165.2084 28.112,165.8966 26.7838,165.8966 C25.4554,165.8966 24.5864,165.4742 24.5864,165.4742 L24.876,163.7956 C25.6728,164.4354 28.0876,164.6166 28.0876,163.6024 C28.0876,162.5882 25.3954,162.5642 25.3954,160.6324 C25.3954,158.5796 27.6892,158.1572 28.6552,158.1572 C29.5488,158.1572 30.406,158.4832 30.406,158.4832 L30.1284,160.089 Z" id="visa"></path>
        </g>
    </g>
</svg>