<?xml version="1.0" encoding="UTF-8"?>
<svg width="24px" height="14px" viewBox="0 0 24 14" version="1.1" xmlns="http://www.w3.org/2000/svg" xmlns:xlink="http://www.w3.org/1999/xlink">
    <!-- Generator: Sketch 46.2 (44496) - http://www.bohemiancoding.com/sketch -->
    <title>vk</title>
    <desc>Created with Sketch.</desc>
    <defs></defs>
    <g id="icons" stroke="none" stroke-width="1" fill="none" fill-rule="evenodd">
        <g id="Artboard" transform="translate(-676.000000, -105.000000)" fill="#FFFFFF">
            <path d="M687.742513,118.634461 L689.177018,118.634461 C689.177018,118.634461 689.610226,118.586712 689.831732,118.348389 C690.035321,118.129334 690.028814,117.718268 690.028814,117.718268 C690.028814,117.718268 690.000755,115.793425 690.893962,115.509972 C691.77483,115.230576 692.905683,117.370248 694.104231,118.193056 C695.010622,118.815486 695.699394,118.679253 695.699394,118.679253 L698.904508,118.634461 C698.904508,118.634461 700.581055,118.531019 699.786051,117.212802 C699.720977,117.105134 699.322926,116.237704 697.4029,114.455517 C695.393038,112.59017 695.662462,112.891962 698.083306,109.665382 C699.557616,107.700396 700.146917,106.500834 699.962766,105.987086 C699.787319,105.497593 698.702862,105.626896 698.702862,105.626896 L695.094204,105.649207 C695.094204,105.649207 694.82647,105.612783 694.628205,105.731437 C694.43425,105.847472 694.309764,106.118586 694.309764,106.118586 C694.309764,106.118586 693.738379,107.63904 692.976927,108.932326 C691.370017,111.660877 690.727389,111.805308 690.464726,111.635608 C689.85362,111.240684 690.006333,110.049404 690.006333,109.202848 C690.006333,106.558471 690.407427,105.455928 689.225274,105.170532 C688.833055,105.075878 688.544109,105.013255 687.540868,105.003029 C686.25316,104.98993 685.163548,105.007001 684.546442,105.3093 C684.135883,105.510354 683.819132,105.958267 684.012157,105.984043 C684.250735,106.01582 684.790766,106.129826 685.077092,106.519426 C685.447001,107.022695 685.43407,108.15245 685.43407,108.15245 C685.43407,108.15245 685.646618,111.265277 684.937816,111.651834 C684.45145,111.917033 683.784144,111.375649 682.351499,108.900127 C681.617597,107.63211 681.063284,106.230311 681.063284,106.230311 C681.063284,106.230311 680.956545,105.968409 680.765886,105.828203 C680.534662,105.658334 680.211573,105.604501 680.211573,105.604501 L676.78225,105.626896 C676.78225,105.626896 676.267571,105.641263 676.078433,105.865135 C675.91017,106.064414 676.064997,106.476072 676.064997,106.476072 C676.064997,106.476072 678.749603,112.757165 681.789664,115.922474 C684.577458,118.824951 687.742513,118.634461 687.742513,118.634461" id="vk"></path>
        </g>
    </g>
</svg>