<?xml version="1.0" encoding="UTF-8"?>
<svg width="24px" height="17px" viewBox="0 0 24 17" version="1.1" xmlns="http://www.w3.org/2000/svg" xmlns:xlink="http://www.w3.org/1999/xlink">
    <!-- Generator: Sketch 46.2 (44496) - http://www.bohemiancoding.com/sketch -->
    <title>youtube</title>
    <desc>Created with Sketch.</desc>
    <defs></defs>
    <g id="icons" stroke="none" stroke-width="1" fill="none" fill-rule="evenodd">
        <g id="Artboard" transform="translate(-13.000000, -104.000000)" fill="#FFFFFF">
            <path d="M22.5222752,115.567761 L22.5211709,108.824406 L29.0060698,112.207832 L22.5222752,115.567761 Z M36.7603407,107.656208 C36.7603407,107.656208 36.5258505,106.002348 35.8062147,105.274042 C34.8935827,104.318154 33.8706133,104.313407 33.401492,104.257463 C30.0430427,104.014679 25.0051926,104.014679 25.0051926,104.014679 L24.9947604,104.014679 C24.9947604,104.014679 19.9570278,104.014679 16.598461,104.257463 C16.1293162,104.313407 15.1067228,104.318154 14.1937618,105.274042 C13.474173,106.002348 13.2400117,107.656208 13.2400117,107.656208 C13.2400117,107.656208 13,109.598388 13,111.540545 L13,113.361322 C13,115.303455 13.2400117,117.245612 13.2400117,117.245612 C13.2400117,117.245612 13.474173,118.899496 14.1937618,119.627802 C15.1067228,120.583713 16.3059592,120.553474 16.840094,120.653661 C18.7601175,120.837776 25,120.894753 25,120.894753 C25,120.894753 30.0430427,120.887164 33.401492,120.644403 C33.8706133,120.588436 34.8935827,120.583713 35.8062147,119.627802 C36.5258505,118.899496 36.7603407,117.245612 36.7603407,117.245612 C36.7603407,117.245612 37,115.303455 37,113.361322 L37,111.540545 C37,109.598388 36.7603407,107.656208 36.7603407,107.656208 L36.7603407,107.656208 Z" id="youtube"></path>
        </g>
    </g>
</svg>