<?xml version="1.0" encoding="UTF-8"?>
<svg width="57px" height="54px" viewBox="0 0 57 54" version="1.1" xmlns="http://www.w3.org/2000/svg" xmlns:xlink="http://www.w3.org/1999/xlink">
    <!-- Generator: Sketch 47.1 (45422) - http://www.bohemiancoding.com/sketch -->
    <title>deadlines</title>
    <desc>Created with Sketch.</desc>
    <defs></defs>
    <g id="Stage" stroke="none" stroke-width="1" fill="none" fill-rule="evenodd">
        <g id="Artboard" transform="translate(-935.000000, -215.000000)" fill-rule="nonzero" fill="#FFFFFF">
            <path d="M983,247.041074 C982.670267,247.013871 982.336753,247 982,247 C981.663247,247 981.329733,247.013871 981,247.041074 L981,229 L937,229 L937,259 L970,259 C970,259.681424 970.056798,260.349583 970.165917,261 L937,261 C935.895431,261 935,260.104569 935,259 L935,228 L935,223 C935,221.895431 935.895431,221 937,221 L945,221 C945,223.209139 946.790861,225 949,225 C951.209139,225 953,223.209139 953,221 L965,221 C965,223.209139 966.790861,225 969,225 C971.209139,225 973,223.209139 973,221 L981,221 C982.104569,221 983,221.895431 983,223 L983,228 L983,247.041074 Z M949,215 C950.104569,215 951,215.895431 951,217 L951,221 C951,222.104569 950.104569,223 949,223 C947.895431,223 947,222.104569 947,221 L947,217 L947,217 C947,215.895431 947.895431,215 949,215 Z M969,215 C970.104569,215 971,215.895431 971,217 L971,221 C971,222.104569 970.104569,223 969,223 C967.895431,223 967,222.104569 967,221 L967,217 L967,217 C967,215.895431 967.895431,215 969,215 Z M982,269 C976.477153,269 972,264.522847 972,259 C972,253.477153 976.477153,249 982,249 C987.522847,249 992,253.477153 992,259 C992,264.522847 987.522847,269 982,269 Z M982.999999,255.028595 C982.999999,254.460518 982.552284,254 982,254 C981.447715,254 981,254.460518 981,255.028595 L981,260.164546 L984.277991,263.683072 C984.660108,264.093229 985.293129,264.107101 985.691883,263.714058 C986.090637,263.321014 986.104124,262.669892 985.722007,262.259735 L982.999999,259.337989 L982.999999,255.028595 Z M969,234 L973,234 C974.104569,234 975,234.895431 975,236 C975,237.104569 974.104569,238 973,238 L969,238 C967.895431,238 967,237.104569 967,236 C967,234.895431 967.895431,234 969,234 Z M957,234 L961,234 C962.104569,234 963,234.895431 963,236 C963,237.104569 962.104569,238 961,238 L957,238 C955.895431,238 955,237.104569 955,236 C955,234.895431 955.895431,234 957,234 Z M945,242 L949,242 C950.104569,242 951,242.895431 951,244 C951,245.104569 950.104569,246 949,246 L945,246 C943.895431,246 943,245.104569 943,244 C943,242.895431 943.895431,242 945,242 Z M969,242 L973,242 C974.104569,242 975,242.895431 975,244 C975,245.104569 974.104569,246 973,246 L969,246 C967.895431,246 967,245.104569 967,244 C967,242.895431 967.895431,242 969,242 Z M957,242 L961,242 C962.104569,242 963,242.895431 963,244 C963,245.104569 962.104569,246 961,246 L957,246 C955.895431,246 955,245.104569 955,244 C955,242.895431 955.895431,242 957,242 Z M945,250 L949,250 C950.104569,250 951,250.895431 951,252 C951,253.104569 950.104569,254 949,254 L945,254 C943.895431,254 943,253.104569 943,252 C943,250.895431 943.895431,250 945,250 Z M957,250 L961,250 C962.104569,250 963,250.895431 963,252 C963,253.104569 962.104569,254 961,254 L957,254 C955.895431,254 955,253.104569 955,252 C955,250.895431 955.895431,250 957,250 Z" id="deadlines"></path>
        </g>
    </g>
</svg>