<?xml version="1.0" encoding="UTF-8"?>
<svg width="54px" height="54px" viewBox="0 0 54 54" version="1.1" xmlns="http://www.w3.org/2000/svg" xmlns:xlink="http://www.w3.org/1999/xlink">
    <!-- Generator: Sketch 47.1 (45422) - http://www.bohemiancoding.com/sketch -->
    <title>drone</title>
    <desc>Created with Sketch.</desc>
    <defs></defs>
    <g id="Stage" stroke="none" stroke-width="1" fill="none" fill-rule="evenodd">
        <g id="Artboard" transform="translate(-37.000000, -311.000000)" fill-rule="nonzero" fill="#FFFFFF">
            <path d="M60.1630546,332.748841 C61.9328431,330.658159 63,327.953703 63,325 C63,318.372583 57.627417,313 51,313 C44.372583,313 39,318.372583 39,325 C39,331.627417 44.372583,337 51,337 C53.9537033,337 56.6581587,335.932843 58.748841,334.163055 L50.2928932,325.707107 C49.9023689,325.316582 49.9023689,324.683418 50.2928932,324.292893 C50.6834175,323.902369 51.3165825,323.902369 51.7071068,324.292893 L60.1630546,332.748841 L60.1630546,332.748841 Z M67.8369454,343.251159 C66.0671569,345.341841 65,348.046297 65,351 C65,357.627417 70.372583,363 77,363 C83.627417,363 89,357.627417 89,351 C89,344.372583 83.627417,339 77,339 C74.0462967,339 71.3418413,340.067157 69.251159,341.836945 L77.7071068,350.292893 C78.0976311,350.683418 78.0976311,351.316582 77.7071068,351.707107 C77.3165825,352.097631 76.6834175,352.097631 76.2928932,351.707107 L67.8369454,343.251159 L67.8369454,343.251159 Z M69.251159,334.163055 C71.3418413,335.932843 74.0462967,337 77,337 C83.627417,337 89,331.627417 89,325 C89,318.372583 83.627417,313 77,313 C70.372583,313 65,318.372583 65,325 C65,327.953703 66.0671569,330.658159 67.8369454,332.748841 L76.2928932,324.292893 C76.6834175,323.902369 77.3165825,323.902369 77.7071068,324.292893 C78.0976311,324.683418 78.0976311,325.316582 77.7071068,325.707107 L69.251159,334.163055 Z M58.748841,341.836945 C56.6581587,340.067157 53.9537033,339 51,339 C44.372583,339 39,344.372583 39,351 C39,357.627417 44.372583,363 51,363 C57.627417,363 63,357.627417 63,351 C63,348.046297 61.9328431,345.341841 60.1630546,343.251159 L51.7071068,351.707107 C51.3165825,352.097631 50.6834175,352.097631 50.2928932,351.707107 C49.9023689,351.316582 49.9023689,350.683418 50.2928932,350.292893 L58.748841,341.836945 L58.748841,341.836945 Z M82.2061712,338 C87.3600793,340.065895 91,345.107873 91,351 C91,358.731986 84.7319865,365 77,365 C71.1078731,365 66.0658953,361.360079 64,356.206171 C61.9341047,361.360079 56.8921269,365 51,365 C43.2680135,365 37,358.731986 37,351 C37,345.107873 40.6399207,340.065895 45.7938288,338 C40.6399207,335.934105 37,330.892127 37,325 C37,317.268014 43.2680135,311 51,311 C56.8921269,311 61.9341047,314.639921 64,319.793829 C66.0658953,314.639921 71.1078731,311 77,311 C84.7319865,311 91,317.268014 91,325 C91,330.892127 87.3600793,335.934105 82.2061712,338 L82.2061712,338 Z M51,315 C51.5522847,315 52,315.447715 52,316 C52,316.552285 51.5522847,317 51,317 C48.2590953,317 45.7563437,318.388069 44.2887882,320.643796 C43.9876072,321.106731 43.3681691,321.237858 42.9052345,320.936677 C42.4422999,320.635496 42.3111726,320.016058 42.6123536,319.553124 C44.4451348,316.73602 47.5752593,315 51,315 Z M41,325 C41,324.447715 41.4477153,324 42,324 C42.5522847,324 43,324.447715 43,325 C43,327.420189 44.0799571,329.661678 45.9112208,331.173195 C47.3340976,332.347631 49.1155927,333 51,333 C51.5522847,333 52,333.447715 52,334 C52,334.552285 51.5522847,335 51,335 C48.6466318,335 46.4160905,334.183194 44.6380917,332.715642 C42.3512984,330.828132 41,328.023465 41,325 Z M60.212312,328.896132 C59.996981,329.40471 59.4101373,329.642433 58.9015598,329.427102 C58.3929824,329.211771 58.1552592,328.624927 58.3705903,328.11635 C58.7841494,327.139589 59,326.085764 59,325 C59,322.077661 57.420519,319.432849 54.9197315,318.024239 C54.4385313,317.753195 54.268166,317.143381 54.53921,316.662181 C54.8102539,316.180981 55.4200683,316.010615 55.9012685,316.281659 C59.0250547,318.041183 61,321.348193 61,325 C61,326.354886 60.7298586,327.67377 60.212312,328.896132 Z M57,325 C57,325.552285 56.5522847,326 56,326 C55.4477153,326 55,325.552285 55,325 C55,323.636856 54.3139402,322.391935 53.1957446,321.655872 C52.7344339,321.352209 52.6066347,320.732076 52.9102971,320.270765 C53.2139595,319.809455 53.8340928,319.681655 54.2954035,319.985318 C55.9698433,321.087535 57,322.956852 57,325 Z M51,319 C51.5522847,319 52,319.447715 52,320 C52,320.552285 51.5522847,321 51,321 C49.9661249,321 48.9964062,321.392535 48.258831,322.086908 C47.4601388,322.838817 47,323.881406 47,325 C47,325.552285 46.5522847,326 46,326 C45.4477153,326 45,325.552285 45,325 C45,323.324254 45.6918204,321.756718 46.8879088,320.630689 C47.9929133,319.590409 49.45146,319 51,319 Z M46.055246,328.399263 C45.7420389,327.944379 45.8568908,327.321718 46.3117751,327.00851 C46.7666594,326.695303 47.3893206,326.810155 47.7025277,327.26504 C48.4451942,328.343646 49.6663941,329 51,329 C51.5522847,329 52,329.447715 52,330 C52,330.552285 51.5522847,331 51,331 C49.0012472,331 47.167265,330.014296 46.055246,328.399263 Z M53.2946459,341.264746 C53.8322978,341.391035 54.1657734,341.929265 54.0394845,342.466917 C53.9131956,343.004569 53.3749653,343.338045 52.8373134,343.211756 C52.2403273,343.07153 51.6252135,343 51,343 C50.4477153,343 50,342.552285 50,342 C50,341.447715 50.4477153,341 51,341 C51.7794679,341 52.548033,341.089374 53.2946459,341.264746 Z M45.093097,342.930261 C45.5385119,342.603728 46.1642996,342.7001 46.4908328,343.145515 C46.8173661,343.59093 46.7209934,344.216718 46.2755785,344.543251 C44.2311792,346.041998 43,348.417344 43,351 C43,351.552285 42.5522847,352 42,352 C41.4477153,352 41,351.552285 41,351 C41,347.773275 42.5401499,344.801824 45.093097,342.930261 Z M42.4130954,356.127627 C42.129539,355.653692 42.2838713,355.039624 42.7578061,354.756068 C43.2317409,354.472512 43.8458089,354.626844 44.1293653,355.100779 C44.8218515,356.258197 45.7986601,357.226197 46.9623501,357.908013 C47.4388671,358.187208 47.5988278,358.799834 47.3196324,359.276351 C47.0404371,359.752868 46.4278112,359.912828 45.9512943,359.633633 C44.4975047,358.781845 43.2781668,357.573504 42.4130954,356.127627 Z M51,361 C50.4477153,361 50,360.552285 50,360 C50,359.447715 50.4477153,359 51,359 C52.941712,359 54.7736147,358.307106 56.2150175,357.066803 C57.9715241,355.555358 59,353.362276 59,351 C59,350.447715 59.4477153,350 60,350 C60.5522847,350 61,350.447715 61,351 C61,353.95102 59.7130101,356.695347 57.5195171,358.582811 C55.7185699,360.132496 53.4250263,361 51,361 Z M51,345 C51.5522847,345 52,345.447715 52,346 C52,346.552285 51.5522847,347 51,347 C50.0812962,347 49.2125575,347.309413 48.5095577,347.869628 C48.0776417,348.213818 47.4484832,348.142702 47.1042928,347.710786 C46.7601025,347.27887 46.8312183,346.649712 47.2631343,346.305522 C48.3171707,345.465569 49.6243467,345 51,345 Z M45,351 C45,350.447715 45.4477153,350 46,350 C46.5522847,350 47,350.447715 47,351 C47,352.258868 47.5841486,353.419114 48.5635526,354.172653 C49.2573777,354.706471 50.1050418,355 51,355 C51.5522847,355 52,355.447715 52,356 C52,356.552285 51.5522847,357 51,357 C49.6599869,357 48.384453,356.558309 47.3439773,355.757782 C45.8776191,354.629588 45,352.886446 45,351 Z M54.7952696,355.647339 C54.3676751,355.996884 53.7376794,355.933612 53.3881349,355.506017 C53.0385903,355.078423 53.1018623,354.448427 53.5294567,354.098882 C54.4542846,353.342866 55,352.217172 55,351 C55,350.447715 55.4477153,350 56,350 C56.5522847,350 57,350.447715 57,351 C57,352.823805 56.1799374,354.515418 54.7952696,355.647339 Z M67.8942947,346.861141 C68.1231003,346.358481 68.7160699,346.136479 69.2187292,346.365285 C69.7213886,346.59409 69.9433908,347.18706 69.7145851,347.689719 C69.2457716,348.719648 69,349.841524 69,351 C69,353.512322 70.164484,355.830081 72.1160523,357.336725 C73.5054245,358.409344 75.2064561,359 77,359 C77.5522847,359 78,359.447715 78,360 C78,360.552285 77.5522847,361 77,361 C74.76025,361 72.6303234,360.260417 70.8938613,358.919839 C68.4568669,357.038437 67,354.138727 67,351 C67,349.554227 67.3076346,348.149964 67.8942947,346.861141 Z M85.7176572,355.902482 C85.4465461,356.383644 84.836708,356.553924 84.3555456,356.282813 C83.8743833,356.011702 83.704103,355.401864 83.9752141,354.920702 C84.6438418,353.734035 85,352.394058 85,351 C85,348.449079 83.7991456,346.099646 81.7967284,344.596885 C81.355001,344.26538 81.2656479,343.638552 81.5971526,343.196824 C81.9286573,342.755097 82.5554857,342.665744 82.9972131,342.997248 C85.4977155,344.873809 87,347.81298 87,351 C87,352.740274 86.5540535,354.418063 85.7176572,355.902482 Z M77,341 C77.5522847,341 78,341.447715 78,342 C78,342.552285 77.5522847,343 77,343 C75.7597493,343 74.5617496,343.281757 73.4746285,343.816403 C72.979035,344.060135 72.3796928,343.855961 72.1359603,343.360368 C71.8922278,342.864774 72.0964015,342.265432 72.591995,342.0217 C73.952251,341.352727 75.4520057,341 77,341 Z M71,351 C71,350.447715 71.4477153,350 72,350 C72.5522847,350 73,350.447715 73,351 C73,352.480937 73.8110311,353.818145 75.0883709,354.514721 C75.5732439,354.779139 75.7519583,355.386559 75.4875407,355.871432 C75.2231232,356.356305 74.6157032,356.535019 74.1308302,356.270601 C72.2171185,355.22699 71,353.220235 71,351 Z M80.902254,355.557797 C80.4828656,355.917146 79.851574,355.868474 79.492225,355.449086 C79.1328759,355.029697 79.1815475,354.398406 79.600936,354.039057 C80.4834706,353.282865 81,352.184501 81,351 C81,348.790861 79.209139,347 77,347 C76.4477153,347 76,346.552285 76,346 C76,345.447715 76.4477153,345 77,345 C80.3137085,345 83,347.686292 83,351 C83,352.774729 82.2236603,354.425562 80.902254,355.557797 Z M77,335 C76.4477153,335 76,334.552285 76,334 C76,333.447715 76.4477153,333 77,333 C81.418278,333 85,329.418278 85,325 C85,324.447715 85.4477153,324 86,324 C86.5522847,324 87,324.447715 87,325 C87,330.522847 82.5228475,335 77,335 Z M85.7931431,320.23397 C86.0567052,320.719308 85.8769198,321.326412 85.3915813,321.589974 C84.9062428,321.853536 84.2991389,321.673751 84.0355768,321.188413 C83.6849044,320.542664 83.2462879,319.94769 82.7333984,319.420733 C81.6176827,318.274413 80.184913,317.483586 78.610715,317.16201 C78.0696051,317.051473 77.720557,316.523209 77.8310942,315.982099 C77.9416315,315.440989 78.4698959,315.091941 79.0110059,315.202478 C80.9812089,315.604949 82.7730024,316.593942 84.1666139,318.02578 C84.8070147,318.683746 85.354853,319.426877 85.7931431,320.23397 Z M73.8500503,315.506496 C74.3742581,315.332644 74.9401476,315.616663 75.1139999,316.140871 C75.2878522,316.665079 75.0038329,317.230968 74.4796251,317.40482 C71.234627,318.481016 69,321.52606 69,325 C69,325.552285 68.5522847,326 68,326 C67.4477153,326 67,325.552285 67,325 C67,320.657719 69.7928,316.852073 73.8500503,315.506496 Z M77,331 C76.4477153,331 76,330.552285 76,330 C76,329.447715 76.4477153,329 77,329 C79.209139,329 81,327.209139 81,325 C81,324.447715 81.4477153,324 82,324 C82.5522847,324 83,324.447715 83,325 C83,328.313708 80.3137085,331 77,331 Z M77,319 C77.5522847,319 78,319.447715 78,320 C78,320.552285 77.5522847,321 77,321 C75.8594868,321 74.7982557,321.478524 74.0442421,322.304864 C73.6719802,322.712834 73.0394772,322.741781 72.6315073,322.369519 C72.2235373,321.997257 72.1945903,321.364754 72.5668522,320.956784 C73.6959484,319.719383 75.2913368,319 77,319 Z" id="drone"></path>
        </g>
    </g>
</svg>