<?xml version="1.0" encoding="UTF-8"?>
<svg width="65px" height="60px" viewBox="0 0 65 60" version="1.1" xmlns="http://www.w3.org/2000/svg" xmlns:xlink="http://www.w3.org/1999/xlink">
    <!-- Generator: Sketch 47.1 (45422) - http://www.bohemiancoding.com/sketch -->
    <title>effects</title>
    <desc>Created with Sketch.</desc>
    <defs></defs>
    <g id="Stage" stroke="none" stroke-width="1" fill="none" fill-rule="evenodd">
        <g id="Artboard" transform="translate(-800.000000, -211.000000)" fill-rule="nonzero" fill="#FFFFFF">
            <path d="M837.67767,233.32233 C839.630291,235.274952 839.630291,238.440777 837.67767,240.393398 L809.393398,268.67767 C807.440777,270.630291 804.274952,270.630291 802.32233,268.67767 C800.369709,266.725048 800.369709,263.559223 802.32233,261.606602 L830.606602,233.32233 C832.559223,231.369709 835.725048,231.369709 837.67767,233.32233 Z M830.606602,244.636039 L836.263456,238.979185 C837.435029,237.807612 837.435029,235.908117 836.263456,234.736544 C835.091883,233.564971 833.192388,233.564971 832.020815,234.736544 L826.363961,240.393398 L830.606602,244.636039 Z M853.305407,229.939231 L848.245282,231.557267 L850.038928,226.556692 L846.936419,222.244227 L852.246515,222.404824 L855.389185,218.121538 L856.877359,223.221367 L861.922145,224.886615 L857.53179,227.877886 L857.506969,233.190352 L853.305407,229.939231 Z M844.552786,229.105573 C845.046765,228.858584 845.647438,229.058808 845.894427,229.552786 C846.141416,230.046765 845.941192,230.647438 845.447214,230.894427 L843.447214,231.894427 C842.953235,232.141416 842.352562,231.941192 842.105573,231.447214 C841.858584,230.953235 842.058808,230.352562 842.552786,230.105573 L844.552786,229.105573 Z M839.948683,225.316228 C839.774036,225.840171 839.207716,226.123331 838.683772,225.948683 C838.159829,225.774036 837.876669,225.207716 838.051317,224.683772 L839.051317,221.683772 C839.225964,221.159829 839.792284,220.876669 840.316228,221.051317 C840.840171,221.225964 841.123331,221.792284 840.948683,222.316228 L839.948683,225.316228 Z M823.738787,220.107649 L827.005262,216.520979 L827.820554,211.738787 L831.407224,215.005262 L836.189416,215.820554 L832.922941,219.407224 L832.107649,224.189416 L828.520979,220.922941 L823.738787,220.107649 Z M829.434554,219.049835 L830.750667,220.248454 L831.049835,218.493649 L832.248454,217.177536 L830.493649,216.878368 L829.177536,215.679749 L828.878368,217.434554 L827.679749,218.750667 L829.434554,219.049835 Z M831.623771,215.202477 L831.407224,215.005262 L831.118497,214.956038 L831.623771,215.202477 Z M827.202477,216.304432 L827.005262,216.520979 L826.956038,216.809706 L827.202477,216.304432 Z M849,245 C846.790861,245 845,243.209139 845,241 C845,238.790861 846.790861,237 849,237 C851.209139,237 853,238.790861 853,241 C853,243.209139 851.209139,245 849,245 Z M849,243 C850.104569,243 851,242.104569 851,241 C851,239.895431 850.104569,239 849,239 C847.895431,239 847,239.895431 847,241 C847,242.104569 847.895431,243 849,243 Z M863,236 C861.895431,236 861,235.104569 861,234 C861,232.895431 861.895431,232 863,232 C864.104569,232 865,232.895431 865,234 C865,235.104569 864.104569,236 863,236 Z M845,216 C843.895431,216 843,215.104569 843,214 C843,212.895431 843.895431,212 845,212 C846.104569,212 847,212.895431 847,214 C847,215.104569 846.104569,216 845,216 Z" id="effects"></path>
        </g>
    </g>
</svg>