<?xml version="1.0" encoding="UTF-8"?>
<svg width="52px" height="54px" viewBox="0 0 52 54" version="1.1" xmlns="http://www.w3.org/2000/svg" xmlns:xlink="http://www.w3.org/1999/xlink">
    <!-- Generator: Sketch 47.1 (45422) - http://www.bohemiancoding.com/sketch -->
    <title>focus-2</title>
    <desc>Created with Sketch.</desc>
    <defs></defs>
    <g id="Stage" stroke="none" stroke-width="1" fill="none" fill-rule="evenodd">
        <g id="Artboard" transform="translate(-39.000000, -215.000000)" fill-rule="nonzero" fill="#FFFFFF">
            <path d="M41,226 L41,218 C41,217.447715 41.4477153,217 42,217 L50,217 C50.5522847,217 51,216.552285 51,216 C51,215.447715 50.5522847,215 50,215 L42,215 C40.3431458,215 39,216.343146 39,218 L39,226 C39,226.552285 39.4477153,227 40,227 C40.5522847,227 41,226.552285 41,226 Z M80,217 L88,217 C88.5522847,217 89,217.447715 89,218 L89,226 C89,226.552285 89.4477153,227 90,227 C90.5522847,227 91,226.552285 91,226 L91,218 C91,216.343146 89.6568542,215 88,215 L80,215 C79.4477153,215 79,215.447715 79,216 C79,216.552285 79.4477153,217 80,217 Z M89,258 L89,266 C89,266.552285 88.5522847,267 88,267 L80,267 C79.4477153,267 79,267.447715 79,268 C79,268.552285 79.4477153,269 80,269 L88,269 C89.6568542,269 91,267.656854 91,266 L91,258 C91,257.447715 90.5522847,257 90,257 C89.4477153,257 89,257.447715 89,258 Z M76,246.873983 L76,247 C76,253.075132 71.0751322,258 65,258 C58.9248678,258 54,253.075132 54,247 L54,246.873983 C52.2747728,246.42994 51,244.863839 51,243 C51,241.136161 52.2747728,239.57006 54,239.126017 L54,237 C54,230.924868 58.9248678,226 65,226 C71.0751322,226 76,230.924868 76,237 L76,239.126017 C77.7252272,239.57006 79,241.136161 79,243 C79,244.863839 77.7252272,246.42994 76,246.873983 Z M74,239 L72.903882,239 C70.6095438,239 68.6096283,237.438513 68.0531695,235.212678 L68,235 L64.472136,236.763932 L64.472136,236.763932 C61.8297697,238.085115 58.9436365,238.837256 56,238.976382 L56,247 C56,251.970563 60.0294373,256 65,256 C69.9705627,256 74,251.970563 74,247 L74,239 Z M50,267 C50.5522847,267 51,267.447715 51,268 C51,268.552285 50.5522847,269 50,269 L42,269 C40.3431458,269 39,267.656854 39,266 L39,258 C39,257.447715 39.4477153,257 40,257 C40.5522847,257 41,257.447715 41,258 L41,266 C41,266.552285 41.4477153,267 42,267 L50,267 Z M60,242 C60,241.447715 60.4477153,241 61,241 C61.5522847,241 62,241.447715 62,242 L62,244 C62,244.552285 61.5522847,245 61,245 C60.4477153,245 60,244.552285 60,244 L60,242 Z M68,242 C68,241.447715 68.4477153,241 69,241 C69.5522847,241 70,241.447715 70,242 L70,244 C70,244.552285 69.5522847,245 69,245 C68.4477153,245 68,244.552285 68,244 L68,242 Z M61.32623,251.738941 C60.9181241,251.366828 60.888946,250.734336 61.2610589,250.32623 C61.6331718,249.918124 62.2656641,249.888946 62.67377,250.261059 C63.1937154,250.735148 63.8332166,251 64.4898525,251 C65.1708633,251 65.8137459,250.739961 66.3210127,250.270809 C66.7264725,249.895815 67.3591556,249.920512 67.73415,250.325972 C68.1091443,250.731432 68.0844472,251.364115 67.6789873,251.739109 C66.8078051,252.544832 65.6825152,253 64.4898525,253 C63.3173294,253 62.2032232,252.538588 61.32623,251.738941 Z M53,243 C53,243.740282 53.4021986,244.386626 54,244.732436 L54,241.267564 C53.4021986,241.613374 53,242.259718 53,243 Z M77,243 C77,242.259718 76.5978014,241.613374 76,241.267564 L76,244.732436 C76.5978014,244.386626 77,243.740282 77,243 Z" id="focus-2"></path>
        </g>
    </g>
</svg>