<?xml version="1.0" encoding="UTF-8"?>
<svg width="52px" height="54px" viewBox="0 0 52 54" version="1.1" xmlns="http://www.w3.org/2000/svg" xmlns:xlink="http://www.w3.org/1999/xlink">
    <!-- Generator: Sketch 47.1 (45422) - http://www.bohemiancoding.com/sketch -->
    <title>focus</title>
    <desc>Created with Sketch.</desc>
    <defs></defs>
    <g id="Stage" stroke="none" stroke-width="1" fill="none" fill-rule="evenodd">
        <g id="Artboard" transform="translate(-930.000000, -118.000000)" fill-rule="nonzero" fill="#FFFFFF">
            <path d="M932,129 L932,121 C932,120.447715 932.447715,120 933,120 L941,120 C941.552285,120 942,119.552285 942,119 C942,118.447715 941.552285,118 941,118 L933,118 C931.343146,118 930,119.343146 930,121 L930,129 C930,129.552285 930.447715,130 931,130 C931.552285,130 932,129.552285 932,129 Z M971,120 L979,120 C979.552285,120 980,120.447715 980,121 L980,129 C980,129.552285 980.447715,130 981,130 C981.552285,130 982,129.552285 982,129 L982,121 C982,119.343146 980.656854,118 979,118 L971,118 C970.447715,118 970,118.447715 970,119 C970,119.552285 970.447715,120 971,120 Z M980,161 L980,169 C980,169.552285 979.552285,170 979,170 L971,170 C970.447715,170 970,170.447715 970,171 C970,171.552285 970.447715,172 971,172 L979,172 C980.656854,172 982,170.656854 982,169 L982,161 C982,160.447715 981.552285,160 981,160 C980.447715,160 980,160.447715 980,161 Z M967,149.873983 L967,150 C967,156.075132 962.075132,161 956,161 C949.924868,161 945,156.075132 945,150 L945,149.873983 C943.274773,149.42994 942,147.863839 942,146 C942,144.136161 943.274773,142.57006 945,142.126017 L945,140 C945,133.924868 949.924868,129 956,129 C962.075132,129 967,133.924868 967,140 L967,142.126017 C968.725227,142.57006 970,144.136161 970,146 C970,147.863839 968.725227,149.42994 967,149.873983 Z M941,170 C941.552285,170 942,170.447715 942,171 C942,171.552285 941.552285,172 941,172 L933,172 C931.343146,172 930,170.656854 930,169 L930,161 C930,160.447715 930.447715,160 931,160 C931.552285,160 932,160.447715 932,161 L932,169 C932,169.552285 932.447715,170 933,170 L941,170 Z M951,145 L951,147 C951,147.552285 951.447715,148 952,148 C952.552285,148 953,147.552285 953,147 L953,145 C953,144.447715 952.552285,144 952,144 C951.447715,144 951,144.447715 951,145 Z M959,145 L959,147 C959,147.552285 959.447715,148 960,148 C960.552285,148 961,147.552285 961,147 L961,145 C961,144.447715 960.552285,144 960,144 C959.447715,144 959,144.447715 959,145 Z M952.32623,154.738941 C953.203223,155.538588 954.317329,156 955.489853,156 C956.682515,156 957.807805,155.544832 958.678987,154.739109 C959.084447,154.364115 959.109144,153.731432 958.73415,153.325972 C958.359156,152.920512 957.726473,152.895815 957.321013,153.270809 C956.813746,153.739961 956.170863,154 955.489853,154 C954.833217,154 954.193715,153.735148 953.67377,153.261059 C953.265664,152.888946 952.633172,152.918124 952.261059,153.32623 C951.888946,153.734336 951.918124,154.366828 952.32623,154.738941 Z M956,131 C951.029437,131 947,135.029437 947,140 L947,142 L947,142 C950.288144,142 953.531131,141.234435 956.472136,139.763932 L960,138 L960.05317,138.212678 C960.609628,140.438513 962.609544,142 964.903882,142 L965,142 L965,140 C965,135.029437 960.970563,131 956,131 Z M944,146 C944,146.740282 944.402199,147.386626 945,147.732436 L945,144.267564 C944.402199,144.613374 944,145.259718 944,146 Z M968,146 C968,145.259718 967.597801,144.613374 967,144.267564 L967,147.732436 C967.597801,147.386626 968,146.740282 968,146 Z" id="focus"></path>
        </g>
    </g>
</svg>