<?xml version="1.0" encoding="UTF-8"?>
<svg width="44px" height="54px" viewBox="0 0 44 54" version="1.1" xmlns="http://www.w3.org/2000/svg" xmlns:xlink="http://www.w3.org/1999/xlink">
    <!-- Generator: Sketch 47.1 (45422) - http://www.bohemiancoding.com/sketch -->
    <title>love-photo-cards</title>
    <desc>Created with Sketch.</desc>
    <defs></defs>
    <g id="Stage" stroke="none" stroke-width="1" fill="none" fill-rule="evenodd">
        <g id="Artboard" transform="translate(-300.000000, -214.000000)" fill-rule="nonzero" fill="#FFFFFF">
            <path d="M344,261 C344,262.656854 342.656854,264 341,264 L303,264 C301.343146,264 300,262.656854 300,261 L300,259 C300,260.656854 301.343146,262 303,262 L341,262 C342.656854,262 344,260.656854 344,259 L344,261 Z M344,265 C344,266.656854 342.656854,268 341,268 L303,268 C301.343146,268 300,266.656854 300,265 L300,263 C300,264.656854 301.343146,266 303,266 L341,266 C342.656854,266 344,264.656854 344,263 L344,265 Z M303,214 L341,214 C342.656854,214 344,215.343146 344,217 L344,257 C344,258.656854 342.656854,260 341,260 L303,260 C301.343146,260 300,258.656854 300,257 L300,217 C300,215.343146 301.343146,214 303,214 Z M303,216 C302.447715,216 302,216.447715 302,217 L302,257 C302,257.552285 302.447715,258 303,258 L341,258 C341.552285,258 342,257.552285 342,257 L342,217 C342,216.447715 341.552285,216 341,216 L303,216 Z M305,219 L339,219 L339,247 L305,247 L305,219 Z M317.909091,226 C315.197875,226 313,228.089338 313,230.666667 C313,233.243995 317.02961,237.368541 322,240 C326.97039,237.368541 331,233.243995 331,230.666667 C331,228.089338 328.802125,226 326.090909,226 C324.383388,226 322.879481,226.828729 322,228.086159 C321.120519,226.828729 319.616612,226 317.909091,226 Z" id="love-photo-cards"></path>
        </g>
    </g>
</svg>