<?xml version="1.0" encoding="UTF-8"?>
<svg width="44px" height="52px" viewBox="0 0 44 52" version="1.1" xmlns="http://www.w3.org/2000/svg" xmlns:xlink="http://www.w3.org/1999/xlink">
    <!-- Generator: Sketch 47.1 (45422) - http://www.bohemiancoding.com/sketch -->
    <title>love-story</title>
    <desc>Created with Sketch.</desc>
    <defs></defs>
    <g id="Stage" stroke="none" stroke-width="1" fill="none" fill-rule="evenodd">
        <g id="Artboard" transform="translate(-429.000000, -216.000000)" fill-rule="nonzero" fill="#FFFFFF">
            <path d="M433.379811,220 L463,220 C464.104569,220 465,220.895431 465,222 L465,225.297759 L472.382953,228.740486 C472.883493,228.973892 473.100048,229.568873 472.866642,230.069413 L465.470823,245.929799 C465.369543,246.146994 465.200183,246.310718 465,246.407411 L465,261 L467,261 L467,246.238364 L469,241.94935 L469,261 C469,262.104569 468.104569,263 467,263 L465,263 L465,266 C465,267.104569 464.104569,268 463,268 L431,268 C429.895431,268 429,267.104569 429,266 L429,222 C429,221.297325 429.362372,220.679287 429.910433,220.322568 L434.440015,216.475595 C434.801528,216.168562 435.260392,216 435.734692,216 L467,216 C468.104569,216 469,216.895431 469,218 L469,225.422542 C468.294616,225.093616 467.62795,224.782744 467,224.489926 L467,218 L435.734692,218 L433.379811,220 Z M465,227.614853 L465,241.117188 L465.264156,241.640593 L470.589147,230.221115 L465,227.614853 Z M438,251 L456,251 C456.552285,251 457,250.552285 457,250 C457,249.447715 456.552285,249 456,249 L438,249 C437.447715,249 437,249.447715 437,250 C437,250.552285 437.447715,251 438,251 Z M442,255 L452,255 C452.552285,255 453,254.552285 453,254 C453,253.447715 452.552285,253 452,253 L442,253 C441.447715,253 441,253.447715 441,254 C441,254.552285 441.447715,255 442,255 Z M443.363636,229 C440.953667,229 439,230.953667 439,233.363636 C439,235.773606 442.581875,240.357597 447,242.818182 C451.418125,240.357597 455,235.773606 455,233.363636 C455,230.953667 453.046333,229 450.636364,229 C449.118567,229 447.781761,229.774916 447,230.950694 C446.218239,229.774916 444.881433,229 443.363636,229 Z" id="love-story"></path>
        </g>
    </g>
</svg>