<?xml version="1.0" encoding="UTF-8"?>
<svg width="62px" height="55px" viewBox="0 0 62 55" version="1.1" xmlns="http://www.w3.org/2000/svg" xmlns:xlink="http://www.w3.org/1999/xlink">
    <!-- Generator: Sketch 47.1 (45422) - http://www.bohemiancoding.com/sketch -->
    <title>love-story-2</title>
    <desc>Created with Sketch.</desc>
    <defs></defs>
    <g id="Stage" stroke="none" stroke-width="1" fill="none" fill-rule="evenodd">
        <g id="Artboard" transform="translate(-546.000000, -215.000000)" fill="#FFFFFF">
            <path d="M546,220 C555.666667,216 562.666667,214.666667 567,216 C571.333333,217.333333 574.333333,220.333333 576,225 L576,270 C574.333333,265.333333 571.333333,262.333333 567,261 C562.666667,259.666667 555.666667,261 546,265 L546,220 Z M558.272727,235 C556.46525,235 555,236.46525 555,238.272727 C555,240.080205 557.686406,243.518198 561,245.363636 C564.313594,243.518198 567,240.080205 567,238.272727 C567,236.46525 565.53475,235 563.727273,235 C562.588925,235 561.586321,235.581187 561,236.463021 C560.413679,235.581187 559.411075,235 558.272727,235 Z M608,220 L608,265 C598.333333,261 591.333333,259.666667 587,261 C582.666667,262.333333 579.666667,265.333333 578,270 L578,225 C579.666667,220.333333 582.666667,217.333333 587,216 C591.333333,214.666667 598.333333,216 608,220 Z M587,232 C586.447715,232 586,232.447715 586,233 L586,246 C586,246.552285 586.447715,247 587,247 L599,247 C599.552285,247 600,246.552285 600,246 L600,233 C600,232.447715 599.552285,232 599,232 L587,232 Z M588,234 L598,234 L598,243 L588,243 L588,234 Z" id="love-story-2"></path>
        </g>
    </g>
</svg>