<?xml version="1.0" encoding="UTF-8"?>
<svg width="66px" height="57px" viewBox="0 0 66 57" version="1.1" xmlns="http://www.w3.org/2000/svg" xmlns:xlink="http://www.w3.org/1999/xlink">
    <!-- Generator: Sketch 47.1 (45422) - http://www.bohemiancoding.com/sketch -->
    <title>photo-documents</title>
    <desc>Created with Sketch.</desc>
    <defs></defs>
    <g id="Stage" stroke="none" stroke-width="1" fill="none" fill-rule="evenodd">
        <g id="Artboard" transform="translate(-672.000000, -215.000000)" fill="#FFFFFF">
            <path d="M712.942414,234.646275 L705.071429,236.755299 C704.750825,236.841204 704.456331,236.975917 704.193801,237.149302 C704.178955,236.987233 704.160123,236.824697 704.137229,236.661795 C703.368597,231.192695 698.311916,227.382213 692.842817,228.150845 C687.373717,228.919477 683.563235,233.976157 684.331867,239.445257 C685.100499,244.914356 690.157179,248.724838 695.626279,247.956206 C699.185257,247.456025 702.041867,245.139998 703.391312,242.076126 L707.867671,258.782124 C708.296496,260.382522 709.941507,261.33227 711.541906,260.903444 L716.447871,259.588895 L717.085661,264.127011 C717.239388,265.220831 716.477291,266.232167 715.383471,266.385893 L681.714357,271.117778 C680.620537,271.271505 679.609201,270.509408 679.455475,269.415589 L672.914339,222.872989 L672.914339,222.872989 C672.760612,221.779169 673.522709,220.767833 674.616529,220.614107 L674.616529,220.614107 L708.285643,215.882222 C709.379463,215.728495 710.390799,216.490592 710.544525,217.584411 L712.942414,234.646275 Z M696.968396,239.688963 L691.469014,240.461851 C691.300593,239.833943 691.16182,239.161902 691.062771,238.457128 C690.967983,237.782676 690.916427,237.127015 690.902369,236.502178 L696.421656,235.726492 C696.580371,236.330999 696.711537,236.975472 696.806325,237.649924 C696.905375,238.354698 696.957218,239.038956 696.968396,239.688963 Z M698.766129,239.436309 C698.744954,238.775406 698.686314,238.093204 698.588808,237.399412 C698.495423,236.734945 698.3707,236.090524 698.218172,235.474009 L701.628764,234.994681 C701.880657,235.604802 702.06058,236.256263 702.156692,236.940141 C702.252805,237.624019 702.259419,238.299837 702.185457,238.955753 L698.766129,239.436309 Z M695.546616,230.159684 C697.538305,230.490147 699.31792,231.566327 700.540158,233.12802 L697.613992,233.539266 C697.066615,232.11695 696.356563,230.943884 695.546616,230.159684 Z M695.771267,233.798244 L690.996066,234.469354 C691.241406,232.451127 691.922312,231.065568 692.734448,230.95143 C692.802518,230.941864 692.867733,230.924916 692.929398,230.901511 C692.995125,230.907012 693.062485,230.905327 693.130555,230.895761 C693.942692,230.781623 694.979132,231.925823 695.771267,233.798244 Z M697.587603,245.319252 C698.180758,244.349487 698.56202,243.010306 698.707951,241.46414 L701.653543,241.050164 C700.897718,242.91639 699.451625,244.459888 697.587603,245.319252 Z M696.862285,241.723532 C696.608271,243.695129 695.935219,245.043108 695.134648,245.155621 C695.066578,245.165188 695.001363,245.182135 694.939698,245.20554 C694.87397,245.200039 694.80661,245.201724 694.738541,245.21129 C693.937969,245.323803 692.919437,244.213561 692.131817,242.388355 L696.862285,241.723532 Z M689.671281,240.714506 L686.840332,241.11237 C686.588439,240.502249 686.408516,239.850789 686.312403,239.16691 C686.216291,238.483032 686.209677,237.807215 686.283639,237.151298 L689.105853,236.754662 C689.129168,237.389337 689.186903,238.043172 689.280288,238.707639 C689.377794,239.401432 689.509466,240.073369 689.671281,240.714506 Z M690.030925,231.244575 C689.570384,232.180345 689.272718,233.377204 689.153341,234.728332 L686.815553,235.056887 C687.452046,233.485306 688.57805,232.142593 690.030925,231.244575 Z M692.158137,245.781494 C690.478044,245.329248 688.992476,244.337948 687.928938,242.979032 L690.286151,242.647747 C690.79146,243.937691 691.43138,245.01769 692.158137,245.781494 Z M728.986383,244.869352 L727.243507,238.364848 L732.889578,239.564958 L735.59243,226.849039 L719.942069,223.522452 L717.857566,233.329264 L715.689399,233.910222 L718.193685,222.128481 C718.308512,221.588265 718.839528,221.243419 719.379744,221.358245 L736.986401,225.100655 C737.526617,225.215482 737.871464,225.746499 737.756637,226.286715 L733.806315,244.871519 C733.691488,245.411735 733.160472,245.756581 732.620256,245.641755 L728.986383,244.869352 Z M690.36448,260.813635 L704.228233,258.865211 C704.775143,258.788348 705.156191,258.28268 705.079328,257.73577 C705.002464,257.18886 704.496796,256.807812 703.949886,256.884675 L690.086133,258.833099 C689.539224,258.909962 689.158175,259.41563 689.235039,259.96254 C689.311902,260.50945 689.81757,260.890498 690.36448,260.813635 Z M705.589068,238.68715 L722.975732,234.028407 C723.509199,233.885466 724.057536,234.202048 724.200477,234.735514 L729.118039,253.088105 C729.260981,253.621571 728.944399,254.169908 728.410932,254.31285 L711.024268,258.971593 C710.490801,259.114534 709.942464,258.797952 709.799523,258.264486 L704.881961,239.911895 C704.739019,239.378429 705.055601,238.830092 705.589068,238.68715 Z M707.072632,240.360183 L710.437279,252.917219 L725.892092,248.776114 L722.527445,236.219078 L707.072632,240.360183 Z" id="photo-documents"></path>
        </g>
    </g>
</svg>