<?xml version="1.0" encoding="UTF-8"?>
<svg width="42px" height="44px" viewBox="0 0 42 44" version="1.1" xmlns="http://www.w3.org/2000/svg" xmlns:xlink="http://www.w3.org/1999/xlink">
    <!-- Generator: Sketch 47.1 (45422) - http://www.bohemiancoding.com/sketch -->
    <title>pic-2</title>
    <desc>Created with Sketch.</desc>
    <defs></defs>
    <g id="Stage" stroke="none" stroke-width="1" fill="none" fill-rule="evenodd">
        <g id="Artboard" transform="translate(-680.000000, -123.000000)" fill="#FFFFFF">
            <path d="M682,123 L720,123 C721.104569,123 722,123.895431 722,125 L722,165 C722,166.104569 721.104569,167 720,167 L682,167 C680.895431,167 680,166.104569 680,165 L680,125 L680,125 C680,123.895431 680.895431,123 682,123 L682,123 Z M684,127 L684,155 L718,155 L718,127 L684,127 Z M692.97332,138 C691.040324,138 689.47332,136.432997 689.47332,134.5 C689.47332,132.567003 691.040324,131 692.97332,131 C694.906317,131 692.97332,132.567003 692.97332,134.5 C692.97332,136.432997 694.906317,138 692.97332,138 Z M688.986229,148.249733 L694.139354,143.708795 L697.814616,146.326452 L705.137379,138.877487 C705.524553,138.483641 706.157695,138.478232 706.551541,138.865405 C706.600538,138.913572 706.64444,138.966659 706.682551,139.023827 L712.963533,148.4453 L712.963533,148.4453 C713.269886,148.904828 713.145712,149.525698 712.686183,149.83205 C712.521916,149.941562 712.328908,150 712.131483,150 L689.647364,150 C689.095079,150 688.647364,149.552285 688.647364,149 C688.647364,148.712859 688.770796,148.439573 688.986229,148.249733 Z" id="pic-2"></path>
        </g>
    </g>
</svg>