<?xml version="1.0" encoding="UTF-8"?>
<svg width="42px" height="44px" viewBox="0 0 42 44" version="1.1" xmlns="http://www.w3.org/2000/svg" xmlns:xlink="http://www.w3.org/1999/xlink">
    <!-- Generator: Sketch 47.1 (45422) - http://www.bohemiancoding.com/sketch -->
    <title>pic</title>
    <desc>Created with Sketch.</desc>
    <defs></defs>
    <g id="Stage" stroke="none" stroke-width="1" fill="none" fill-rule="evenodd">
        <g id="Artboard" transform="translate(-552.000000, -123.000000)" fill="#FFFFFF">
            <path d="M554,123 L592,123 C593.104569,123 594,123.895431 594,125 L594,165 C594,166.104569 593.104569,167 592,167 L554,167 C552.895431,167 552,166.104569 552,165 L552,125 L552,125 C552,123.895431 552.895431,123 554,123 L554,123 Z M556,127 L556,155 L590,155 L590,127 L556,127 Z M566,139.181818 C564.795015,139.181818 563.818182,138.204985 563.818182,137 C563.818182,135.795015 564.795015,134.818182 566,134.818182 C567.204985,134.818182 568.181818,135.795015 568.181818,137 C568.181818,138.204985 567.204985,139.181818 566,139.181818 Z M571.656854,142.656854 C571.548725,142.764983 571.426054,142.857514 571.29238,142.931777 C570.49784,143.373189 569.495903,143.086921 569.054491,142.29238 L567.80653,140.04605 C567.650412,139.765038 567.699495,139.41458 567.926806,139.18727 L568.18727,138.926806 C568.41458,138.699495 568.765038,138.650412 569.04605,138.80653 L571.29238,140.054491 C571.426054,140.128754 571.548725,140.221286 571.656854,140.329414 C572.299559,140.972119 572.299559,142.014149 571.656854,142.656854 Z M560.343146,131.343146 L560.343146,131.343146 C560.985851,130.700441 562.027881,130.700441 562.670586,131.343146 C562.778714,131.451275 562.871246,131.573946 562.945509,131.70762 L564.19347,133.95395 C564.349588,134.234962 564.300505,134.58542 564.073194,134.81273 L563.81273,135.073194 C563.58542,135.300505 563.234962,135.349588 562.95395,135.19347 L560.70762,133.945509 C559.913079,133.504097 559.626811,132.50216 560.068223,131.70762 C560.142486,131.573946 560.235017,131.451275 560.343146,131.343146 L560.343146,131.343146 Z M558,137 C558,136.847083 558.021312,136.694912 558.063322,136.547878 C558.313022,135.673928 559.22392,135.167873 560.09787,135.417573 L562.568708,136.123527 C562.877805,136.211841 563.090909,136.494358 563.090909,136.815824 L563.090909,137.184176 C563.090909,137.505642 562.877805,137.788159 562.568708,137.876473 L560.09787,138.582427 C559.950837,138.624436 559.798666,138.645749 559.645749,138.645749 C558.736827,138.645749 558,137.908922 558,137 Z M574,137 C574,137.908922 573.263173,138.645749 572.354251,138.645749 C572.201334,138.645749 572.049163,138.624436 571.90213,138.582427 L569.431292,137.876473 C569.122195,137.788159 568.909091,137.505642 568.909091,137.184176 L568.909091,136.815824 L568.909091,136.815824 C568.909091,136.494358 569.122195,136.211841 569.431292,136.123527 L571.90213,135.417573 C572.77608,135.167873 573.686978,135.673928 573.936678,136.547878 C573.978688,136.694912 574,136.847083 574,137 Z M566,145 C565.847083,145 565.694912,144.978688 565.547878,144.936678 C564.673928,144.686978 564.167873,143.77608 564.417573,142.90213 L565.123527,140.431292 C565.211841,140.122195 565.494358,139.909091 565.815824,139.909091 L566.184176,139.909091 C566.505642,139.909091 566.788159,140.122195 566.876473,140.431292 L567.582427,142.90213 C567.624436,143.049163 567.645749,143.201334 567.645749,143.354251 C567.645749,144.263173 566.908922,145 566,145 Z M566,129 C566.908922,129 567.645749,129.736827 567.645749,130.645749 C567.645749,130.798666 567.624436,130.950837 567.582427,131.09787 L566.876473,133.568708 C566.788159,133.877805 566.505642,134.090909 566.184176,134.090909 L565.815824,134.090909 L565.815824,134.090909 C565.494358,134.090909 565.211841,133.877805 565.123527,133.568708 L564.417573,131.09787 C564.167873,130.22392 564.673928,129.313022 565.547878,129.063322 C565.694912,129.021312 565.847083,129 566,129 Z M560.343146,142.656854 C560.235017,142.548725 560.142486,142.426054 560.068223,142.29238 C559.626811,141.49784 559.913079,140.495903 560.70762,140.054491 L562.95395,138.80653 C563.234962,138.650412 563.58542,138.699495 563.81273,138.926806 L564.073194,139.18727 C564.300505,139.41458 564.349588,139.765038 564.19347,140.04605 L562.945509,142.29238 C562.871246,142.426054 562.778714,142.548725 562.670586,142.656854 C562.027881,143.299559 560.985851,143.299559 560.343146,142.656854 Z M571.656854,131.343146 C572.299559,131.985851 572.299559,133.027881 571.656854,133.670586 C571.548725,133.778714 571.426054,133.871246 571.29238,133.945509 L569.04605,135.19347 C568.765038,135.349588 568.41458,135.300505 568.18727,135.073194 L567.926806,134.81273 C567.699495,134.58542 567.650412,134.234962 567.80653,133.95395 L569.054491,131.70762 C569.495903,130.913079 570.49784,130.626811 571.29238,131.068223 C571.426054,131.142486 571.548725,131.235017 571.656854,131.343146 Z M578.5,146 C577.671573,146 577,145.328427 577,144.5 C577,143.671573 577.671573,143 578.5,143 C579.328427,143 580,143.671573 580,144.5 C580,145.328427 579.328427,146 578.5,146 Z M586.5,146 C585.671573,146 585,145.328427 585,144.5 C585,143.671573 585.671573,143 586.5,143 C587.328427,143 588,143.671573 588,144.5 C588,145.328427 587.328427,146 586.5,146 Z M582.5,146 C581.671573,146 581,145.328427 581,144.5 C581,143.671573 581.671573,143 582.5,143 C583.328427,143 584,143.671573 584,144.5 C584,145.328427 583.328427,146 582.5,146 Z M586,142 C585.447715,142 585,141.552285 585,141 C585,140.447715 585.447715,140 586,140 C586.552285,140 587,140.447715 587,141 C587,141.552285 586.552285,142 586,142 Z M579,149 C578.447715,149 578,148.552285 578,148 C578,147.447715 578.447715,147 579,147 C579.552285,147 580,147.447715 580,148 C580,148.552285 579.552285,149 579,149 Z M579,142 C578.447715,142 578,141.552285 578,141 C578,140.447715 578.447715,140 579,140 C579.552285,140 580,140.447715 580,141 C580,141.552285 579.552285,142 579,142 Z M586,149 C585.447715,149 585,148.552285 585,148 C585,147.447715 585.447715,147 586,147 C586.552285,147 587,147.447715 587,148 C587,148.552285 586.552285,149 586,149 Z M582.5,142 C581.671573,142 581,141.328427 581,140.5 C581,139.671573 581.671573,139 582.5,139 C583.328427,139 584,139.671573 584,140.5 C584,141.328427 583.328427,142 582.5,142 Z M582.5,150 C581.671573,150 581,149.328427 581,148.5 C581,147.671573 581.671573,147 582.5,147 C583.328427,147 584,147.671573 584,148.5 C584,149.328427 583.328427,150 582.5,150 Z M569.873881,145.404999 C569.581864,144.93623 569.72515,144.319491 570.193919,144.027473 C570.662688,143.735456 571.279427,143.878742 571.571444,144.347511 C573.21749,146.989872 573.558252,149.878149 572.59071,152.931723 C572.423889,153.458211 571.861852,153.749778 571.335364,153.582958 C570.808877,153.416137 570.517309,152.8541 570.684129,152.327612 C571.476607,149.826543 571.207531,147.545878 569.873881,145.404999 Z" id="pic"></path>
        </g>
    </g>
</svg>