<?xml version="1.0" encoding="UTF-8"?>
<svg width="48px" height="48px" viewBox="0 0 48 48" version="1.1" xmlns="http://www.w3.org/2000/svg" xmlns:xlink="http://www.w3.org/1999/xlink">
    <!-- Generator: Sketch 47.1 (45422) - http://www.bohemiancoding.com/sketch -->
    <title>portrait-mode</title>
    <desc>Created with Sketch.</desc>
    <defs></defs>
    <g id="Stage" stroke="none" stroke-width="1" fill="none" fill-rule="evenodd">
        <g id="Artboard" transform="translate(-804.000000, -122.000000)" fill-rule="nonzero" fill="#FFFFFF">
            <path d="M837,144.964556 L837,145 C837,149.970563 832.970563,154 828,154 C823.029437,154 819,149.970563 819,145 L819,144.964556 C817.303853,144.721941 816,143.263236 816,141.5 C816,139.736764 817.303853,138.278059 819,138.035444 L819,137 C819,132.029437 823.029437,128 828,128 C832.970563,128 837,132.029437 837,137 L837,138.035444 C838.696147,138.278059 840,139.736764 840,141.5 C840,143.263236 838.696147,144.721941 837,144.964556 Z M835,139.6932 C833.215037,139.109153 831.904716,137.571727 831.614905,135.710572 L831.4264,134.5 L831.426378,134.500032 C830.115398,136.392349 827.518612,136.863616 825.626295,135.552636 C825.215099,135.267763 824.858538,134.911199 824.573669,134.5 C824.524856,136.330655 823.521317,138.002181 821.928507,138.905862 L821,139.43265 L821,145 C821,148.865993 824.134007,152 828,152 C831.865993,152 835,148.865993 835,145 L835,139.6932 Z M819.214658,151.620538 C821.22244,154.280636 824.41043,156 828,156 C831.58957,156 834.77756,154.280636 836.785342,151.620538 C842.488618,154.140776 845.56017,159.600597 846,168 L810,168 C810.43983,159.600597 813.511382,154.140776 819.214658,151.620538 Z M807,122 L849,122 C850.656854,122 852,123.343146 852,125 L852,167 C852,168.656854 850.656854,170 849,170 L807,170 C805.343146,170 804,168.656854 804,167 L804,125 C804,123.343146 805.343146,122 807,122 Z M807,124 C806.447715,124 806,124.447715 806,125 L806,167 C806,167.552285 806.447715,168 807,168 L849,168 C849.552285,168 850,167.552285 850,167 L850,125 C850,124.447715 849.552285,124 849,124 L807,124 Z M824,141.010309 C824,140.458024 824.447715,140.010309 825,140.010309 C825.552285,140.010309 826,140.458024 826,141.010309 L826,142.978179 C826,143.530463 825.552285,143.978179 825,143.978179 C824.447715,143.978179 824,143.530463 824,142.978179 L824,141.010309 Z M830,141.010309 C830,140.458024 830.447715,140.010309 831,140.010309 C831.552285,140.010309 832,140.458024 832,141.010309 L832,142.978179 C832,143.530463 831.552285,143.978179 831,143.978179 C830.447715,143.978179 830,143.530463 830,142.978179 L830,141.010309 Z M825.210367,148.866699 C824.814584,148.481506 824.805998,147.848399 825.191191,147.452616 C825.576384,147.056832 826.209491,147.048246 826.605275,147.433439 C826.976817,147.79504 827.470972,148 828,148 C828.570453,148 829.100168,147.761248 829.477541,147.347943 C829.849934,146.940092 830.482446,146.911347 830.890297,147.28374 C831.298148,147.656132 831.326892,148.288644 830.9545,148.696495 C830.202061,149.52058 829.138377,150 828,150 C826.944634,150 825.951642,149.588137 825.210367,148.866699 Z M818,141.5 C818,142.153109 818.417404,142.708729 819,142.914647 L819,140.085353 C818.417404,140.291271 818,140.846891 818,141.5 Z M838,141.5 C838,140.846891 837.582596,140.291271 837,140.085353 L837,142.914647 C837.582596,142.708729 838,142.153109 838,141.5 Z" id="portrait-mode"></path>
        </g>
    </g>
</svg>