<?xml version="1.0" encoding="UTF-8"?>
<svg width="50px" height="72px" viewBox="0 0 50 72" version="1.1" xmlns="http://www.w3.org/2000/svg" xmlns:xlink="http://www.w3.org/1999/xlink">
    <!-- Generator: Sketch 47.1 (45422) - http://www.bohemiancoding.com/sketch -->
    <title>stand</title>
    <desc>Created with Sketch.</desc>
    <defs></defs>
    <g id="Stage" stroke="none" stroke-width="1" fill="none" fill-rule="evenodd">
        <g id="Artboard" transform="translate(-38.000000, -110.000000)" fill="#FFFFFF">
            <path d="M64.9999853,148.947851 L64.9999853,142.955609 L67.9999632,142.955609 C69.1045246,142.955609 69.9999485,142.061383 69.9999485,140.958299 C69.9999485,139.855216 69.1045246,138.96099 67.9999632,138.96099 L58.0000368,138.96099 C56.8954754,138.96099 56.0000515,139.855216 56.0000515,140.958299 C56.0000515,142.061383 56.8954754,142.955609 58.0000368,142.955609 L61.0000147,142.955609 L61.0000147,148.947851 C59.7038277,148.964049 58.4945064,149.60688 57.7573826,150.67428 L38.3537558,178.771899 C37.72666,179.679971 37.9554227,180.923791 38.8647117,181.550048 C39.7740008,182.176305 41.0194869,181.947848 41.6465828,181.039776 L61.0502095,152.942157 L61.6229624,152.942157 L72.2443483,180.714776 C72.6384471,181.745258 73.7944178,182.261577 74.8262811,181.868005 C75.8581445,181.474434 76.3751548,180.32001 75.9810559,179.289527 L67.0899689,156.041264 L84.3534172,181.039776 C84.9805131,181.947848 86.2259992,182.176305 87.1352883,181.550048 C88.0445773,180.923791 88.27334,179.679971 87.6462442,178.771899 L68.2426174,150.67428 C67.5054936,149.60688 66.2961723,148.964049 64.9999853,148.947851 Z M54.0000662,112.995964 L56.5000478,112.995964 L57.4469896,111.104615 L57.4469896,111.104615 C57.7859638,110.427573 58.4782064,110 59.2353646,110 L67.7646281,110 C68.5217862,110 69.2140289,110.427573 69.553003,111.104615 L70.4999448,112.995964 L76.9998675,112.995964 C79.2090065,112.995964 80.9998675,114.786825 80.9998675,116.995964 L80.9998675,132.96368 C80.9998675,135.172819 79.2090065,136.96368 76.9998675,136.96368 L49.0001325,136.96368 C46.7909935,136.96368 45.0001325,135.172819 45.0001325,132.96368 L45.0001325,116.995964 L45.0001325,116.995964 C45.0001325,114.786825 46.7909935,112.995964 49.0001325,112.995964 L50.0000957,112.995964 C50.0000957,112.444423 50.4478076,111.99731 51.0000883,111.99731 L53.0000736,111.99731 C53.5523543,111.99731 54.0000662,112.444423 54.0000662,112.995964 Z M63,133 C67.4182455,133 70.9999411,129.418278 70.9999411,125 C70.9999411,120.581722 67.4182455,117 63,117 C58.5817545,117 55.0000589,120.581722 55.0000589,125 C55.0000589,129.418278 58.5817545,133 63,133 Z M73.999919,118.987893 L75.9999043,118.987893 C76.552185,118.987893 76.9998969,118.54078 76.9998969,117.989239 C76.9998969,117.437697 76.552185,116.990584 75.9999043,116.990584 L73.999919,116.990584 C73.4476383,116.990584 72.9999264,117.437697 72.9999264,117.989239 C72.9999264,118.54078 73.4476383,118.987893 73.999919,118.987893 Z M62.9998528,131 C59.6861443,131 56.9998528,128.313708 56.9998528,125 C56.9998528,121.686292 59.6861443,119 62.9998528,119 C66.3135613,119 68.9998528,121.686292 68.9998528,125 C68.9998528,128.313708 66.3135613,131 62.9998528,131 Z" id="stand"></path>
        </g>
    </g>
</svg>