<?xml version="1.0" encoding="UTF-8"?>
<svg width="66px" height="45px" viewBox="0 0 66 45" version="1.1" xmlns="http://www.w3.org/2000/svg" xmlns:xlink="http://www.w3.org/1999/xlink">
    <!-- Generator: Sketch 47.1 (45422) - http://www.bohemiancoding.com/sketch -->
    <title>video-library-2</title>
    <desc>Created with Sketch.</desc>
    <defs></defs>
    <g id="Stage" stroke="none" stroke-width="1" fill="none" fill-rule="evenodd">
        <g id="Artboard" transform="translate(-288.000000, -318.000000)" fill="#FFFFFF">
            <path d="M290,318 L352,318 C353.104569,318 354,318.895431 354,320 L354,357 C354,358.104569 353.104569,359 352,359 L290,359 C288.895431,359 288,358.104569 288,357 L288,320 L288,320 C288,318.895431 288.895431,318 290,318 L290,318 Z M314.004177,330.471859 L314.004177,346.863364 C314.004177,347.415649 314.451892,347.863364 315.004177,347.863364 C315.191597,347.863364 315.375245,347.810695 315.534176,347.711362 L328.64738,339.51561 C329.115716,339.2229 329.25809,338.605949 328.965379,338.137613 C328.884899,338.008844 328.776149,337.900094 328.64738,337.819613 L315.534176,329.623861 L315.534176,329.623861 C315.06584,329.331151 314.448889,329.473524 314.156179,329.94186 C314.056847,330.100792 314.004177,330.28444 314.004177,330.471859 Z M306,363 C305.447715,363 305,362.552285 305,362 C305,361.447715 305.447715,361 306,361 L336,361 C336.552285,361 337,361.447715 337,362 C337,362.552285 336.552285,363 336,363 L306,363 Z" id="video-library-2"></path>
        </g>
    </g>
</svg>