<?xml version="1.0" encoding="UTF-8"?>
<svg width="58px" height="30px" viewBox="0 0 58 30" version="1.1" xmlns="http://www.w3.org/2000/svg" xmlns:xlink="http://www.w3.org/1999/xlink">
    <!-- Generator: Sketch 47.1 (45422) - http://www.bohemiancoding.com/sketch -->
    <title>video-cam</title>
    <desc>Created with Sketch.</desc>
    <defs></defs>
    <g id="Stage" stroke="none" stroke-width="1" fill="none" fill-rule="evenodd">
        <g id="Artboard" transform="translate(-290.000000, -132.000000)" fill="#FFFFFF">
            <path d="M302.409713,132 L329.590287,132 C331.819084,132 332.627299,132.232064 333.442114,132.667832 C334.256929,133.103599 334.896401,133.743071 335.332168,134.557886 C335.767936,135.372701 336,136.180916 336,138.409713 L336,155.590287 C336,157.819084 335.767936,158.627299 335.332168,159.442114 C334.896401,160.256929 334.256929,160.896401 333.442114,161.332168 C332.627299,161.767936 331.819084,162 329.590287,162 L302.409713,162 C300.180916,162 299.372701,161.767936 298.557886,161.332168 C297.743071,160.896401 297.103599,160.256929 296.667832,159.442114 C296.232064,158.627299 296,157.819084 296,155.590287 L296,138.409713 C296,136.180916 296.232064,135.372701 296.667832,134.557886 C297.103599,133.743071 297.743071,133.103599 298.557886,132.667832 C299.372701,132.232064 300.180916,132 302.409713,132 Z M344.662071,135.004137 L344.662071,135.004137 C345.02932,134.673612 345.505916,134.490725 346,134.490725 C347.104569,134.490725 348,135.386155 348,136.490725 L348,157.509275 C348,158.003359 347.817113,158.479955 347.486588,158.847205 C346.74767,159.668225 345.483091,159.734782 344.662071,158.995863 L338.662071,153.595863 C338.240643,153.216579 338,152.676248 338,152.109275 L338,141.890725 C338,141.323752 338.240643,140.783421 338.662071,140.404137 L344.662071,135.004137 Z M292,134 L292,134 C293.104569,134 294,134.895431 294,136 L294,136 L294,140 C294,141.104569 293.104569,142 292,142 L290,142 L290,134 L292,134 Z" id="video-cam"></path>
        </g>
    </g>
</svg>