<?xml version="1.0" encoding="UTF-8"?>
<svg width="56px" height="46px" viewBox="0 0 56 46" version="1.1" xmlns="http://www.w3.org/2000/svg" xmlns:xlink="http://www.w3.org/1999/xlink">
    <!-- Generator: Sketch 47.1 (45422) - http://www.bohemiancoding.com/sketch -->
    <title>video-library</title>
    <desc>Created with Sketch.</desc>
    <defs></defs>
    <g id="Stage" stroke="none" stroke-width="1" fill="none" fill-rule="evenodd">
        <g id="Artboard" transform="translate(-166.000000, -317.000000)" fill-rule="nonzero" fill="#FFFFFF">
            <path d="M172.9056,323.837881 L178.235196,327.386881 L186.204754,326.689635 L180.875157,323.140635 L172.9056,323.837881 Z M188.844715,322.443389 L194.174311,325.992389 L202.143869,325.295143 L196.814273,321.746143 L188.844715,322.443389 Z M204.78383,321.048897 L210.113427,324.597898 L218.082984,323.900652 L212.753388,320.351651 L204.78383,321.048897 Z M167,332 L167,325.178845 L166.928432,324.360816 L166.928432,324.360816 C166.832162,323.260449 167.646143,322.290384 168.74651,322.194115 L168.74651,322.194115 L218.556244,317.836328 C219.656611,317.740058 220.626676,318.554039 220.722945,319.654406 L221.24588,325.631574 L171.756306,329.96135 L171.777778,330 L221,330 L221,336.5 L221,360 C221,361.656854 219.656854,363 218,363 L170,363 C168.343146,363 167,361.656854 167,360 L167,336.5 L167,332 Z M169,338 L169,360 C169,360.552285 169.447715,361 170,361 L218,361 C218.552285,361 219,360.552285 219,360 L219,338 L169,338 Z M205,336 L213,336 L218,332 L210,332 L205,336 Z M189,336 L197,336 L202,332 L194,332 L189,336 Z M173,336 L181,336 L186,332 L178,332 L173,336 Z" id="video-library"></path>
        </g>
    </g>
</svg>